<svg width="1135" height="253" viewBox="0 0 1135 253" fill="none" xmlns="http://www.w3.org/2000/svg">
<g clip-path="url(#clip0_536_413)">
<mask id="path-1-outside-1_536_413" maskUnits="userSpaceOnUse" x="51.6641" y="40" width="1026" height="145" fill="black">
<rect fill="white" x="51.6641" y="40" width="1026" height="145"/>
<path d="M134.203 46.3347C166.445 46.3347 182.566 57.718 182.566 80.4848C182.566 92.9867 178.552 102.988 170.524 110.489C162.628 117.991 151.771 121.741 137.954 121.741C131.505 121.741 125.781 119.899 120.78 116.214C118.411 114.635 116.437 112.792 114.858 110.687C124.465 110.687 131.768 107.792 136.769 102.001C141.902 96.0793 144.468 87.3937 144.468 75.9446C144.468 64.4954 138.809 58.7708 127.491 58.7708H122.754C121.964 58.7708 121.24 58.8366 120.582 58.9682L97.8815 178H55.0459L79.326 48.7035C93.4071 47.3875 104.527 46.6637 112.686 46.5321C120.846 46.4005 128.018 46.3347 134.203 46.3347ZM285.058 181.948C268.213 181.948 259.001 169.972 257.422 146.021H223.469C220.837 152.075 218.6 157.734 216.757 162.998L211.625 178H183.989L246.17 47.7165H288.611L296.902 143.653C298.218 157.47 301.508 166.419 306.772 170.499C302.955 178.132 295.717 181.948 285.058 181.948ZM229.588 131.611H256.83L254.461 80.8796V75.5498L240.445 106.541L229.588 131.611ZM336.267 178L360.35 48.3087C373.378 46.8611 389.368 46.1373 408.318 46.1373C427.4 46.1373 441.35 48.9009 450.167 54.4281C458.984 59.9552 463.392 68.3118 463.392 79.4978C463.392 90.5521 460.497 99.5667 454.707 106.541C449.048 113.516 441.284 118.122 431.414 120.359C433.651 131.282 437.336 141.152 442.468 149.969C447.206 158.26 452.338 163.721 457.865 166.353C455.891 171.881 452.865 175.829 448.785 178.197C444.837 180.698 439.968 181.948 434.177 181.948C428.519 181.948 423.452 180.303 418.978 177.013C414.503 173.591 410.489 168.788 406.936 162.603C399.435 149.18 395.29 131.874 394.5 110.687H395.882C405.62 110.424 412.924 107.792 417.793 102.791C422.662 97.6585 425.097 89.7625 425.097 79.103C425.097 65.8114 419.504 58.9024 408.318 58.376H403.975C402.791 58.376 401.87 58.4418 401.212 58.5734L378.511 178H336.267ZM578.805 181.948C561.96 181.948 552.748 169.972 551.169 146.021H517.216C514.584 152.075 512.347 157.734 510.505 162.998L505.372 178H477.736L539.917 47.7165H582.358L590.649 143.653C591.965 157.47 595.255 166.419 600.519 170.499C596.702 178.132 589.464 181.948 578.805 181.948ZM523.336 131.611H550.577L548.208 80.8796V75.5498L534.192 106.541L523.336 131.611ZM629.817 177.013L654.689 47.7165C670.218 46.4005 682.983 45.7425 692.985 45.7425C702.986 45.7425 711.211 46.2031 717.66 47.1243C724.108 47.9139 729.504 49.4273 733.846 51.6645C742.532 55.8756 746.875 63.7716 746.875 75.3524C746.875 82.064 743.98 88.2491 738.189 93.9079C732.794 99.0403 727.135 102.199 721.213 103.383C727.53 104.436 732.925 107.331 737.4 112.069C742.137 117.069 744.506 123.452 744.506 131.216C744.506 146.219 738.913 158.128 727.727 166.946C716.541 175.631 699.96 179.974 677.982 179.974C662.848 179.974 646.793 178.987 629.817 177.013ZM673.64 165.564C674.824 165.695 675.548 165.761 675.811 165.761H677.588C688.379 165.761 696.077 162.208 700.683 155.102C704.105 149.575 705.816 141.744 705.816 131.611C705.816 126.216 704.039 122.07 700.486 119.175C697.064 116.28 691.406 114.701 683.51 114.437L673.64 165.564ZM713.514 75.5498C713.514 64.627 708.25 59.1656 697.722 59.1656H695.946C695.419 59.1656 694.761 59.2314 693.972 59.363L686.076 101.014H688.05C705.026 100.619 713.514 92.1313 713.514 75.5498ZM801.104 180.171C797.024 180.04 792.813 179.974 788.47 179.974C784.259 179.974 780.048 180.237 775.837 180.764C775.311 178.658 775.047 176.355 775.047 173.855C775.047 168.591 776.495 164.379 779.39 161.221C782.417 158.063 786.233 156.483 790.839 156.483H801.499L818.08 81.8666C814.001 85.9461 807.75 87.9859 799.327 87.9859C795.116 87.9859 791.366 86.0119 788.076 82.064C784.786 78.3792 782.877 73.9048 782.351 68.6408C801.828 65.2192 826.108 56.9942 855.191 43.9659L861.508 51.4671L842.36 156.483H847.295C855.191 156.483 861.179 155.76 865.259 154.312C866.97 157.207 867.825 161.024 867.825 165.761C867.825 170.499 866.048 174.315 862.495 177.21C859.074 179.974 854.468 181.356 848.677 181.356C836.965 181.356 825.318 181.093 813.738 180.566L801.104 180.171ZM904.237 180.171C900.158 180.04 895.947 179.974 891.604 179.974C887.393 179.974 883.182 180.237 878.97 180.764C878.444 178.658 878.181 176.355 878.181 173.855C878.181 168.591 879.628 164.379 882.524 161.221C885.55 158.063 889.367 156.483 893.973 156.483H904.632L921.214 81.8666C917.134 85.9461 910.883 87.9859 902.461 87.9859C898.25 87.9859 894.499 86.0119 891.209 82.064C887.919 78.3792 886.011 73.9048 885.485 68.6408C904.961 65.2192 929.241 56.9942 958.325 43.9659L964.642 51.4671L945.494 156.483H950.429C958.325 156.483 964.313 155.76 968.392 154.312C970.103 157.207 970.958 161.024 970.958 165.761C970.958 170.499 969.182 174.315 965.629 177.21C962.207 179.974 957.601 181.356 951.811 181.356C940.098 181.356 928.452 181.093 916.871 180.566L904.237 180.171ZM1007.37 180.171C1003.29 180.04 999.08 179.974 994.737 179.974C990.526 179.974 986.315 180.237 982.104 180.764C981.577 178.658 981.314 176.355 981.314 173.855C981.314 168.591 982.762 164.379 985.657 161.221C988.684 158.063 992.5 156.483 997.106 156.483H1007.77L1024.35 81.8666C1020.27 85.9461 1014.02 87.9859 1005.59 87.9859C1001.38 87.9859 997.632 86.0119 994.343 82.064C991.053 78.3792 989.144 73.9048 988.618 68.6408C1008.09 65.2192 1032.37 56.9942 1061.46 43.9659L1067.78 51.4671L1048.63 156.483H1053.56C1061.46 156.483 1067.45 155.76 1071.53 154.312C1073.24 157.207 1074.09 161.024 1074.09 165.761C1074.09 170.499 1072.32 174.315 1068.76 177.21C1065.34 179.974 1060.73 181.356 1054.94 181.356C1043.23 181.356 1031.59 181.093 1020 180.566L1007.37 180.171Z"/>
</mask>
<path d="M134.203 46.3347C166.445 46.3347 182.566 57.718 182.566 80.4848C182.566 92.9867 178.552 102.988 170.524 110.489C162.628 117.991 151.771 121.741 137.954 121.741C131.505 121.741 125.781 119.899 120.78 116.214C118.411 114.635 116.437 112.792 114.858 110.687C124.465 110.687 131.768 107.792 136.769 102.001C141.902 96.0793 144.468 87.3937 144.468 75.9446C144.468 64.4954 138.809 58.7708 127.491 58.7708H122.754C121.964 58.7708 121.24 58.8366 120.582 58.9682L97.8815 178H55.0459L79.326 48.7035C93.4071 47.3875 104.527 46.6637 112.686 46.5321C120.846 46.4005 128.018 46.3347 134.203 46.3347ZM285.058 181.948C268.213 181.948 259.001 169.972 257.422 146.021H223.469C220.837 152.075 218.6 157.734 216.757 162.998L211.625 178H183.989L246.17 47.7165H288.611L296.902 143.653C298.218 157.47 301.508 166.419 306.772 170.499C302.955 178.132 295.717 181.948 285.058 181.948ZM229.588 131.611H256.83L254.461 80.8796V75.5498L240.445 106.541L229.588 131.611ZM336.267 178L360.35 48.3087C373.378 46.8611 389.368 46.1373 408.318 46.1373C427.4 46.1373 441.35 48.9009 450.167 54.4281C458.984 59.9552 463.392 68.3118 463.392 79.4978C463.392 90.5521 460.497 99.5667 454.707 106.541C449.048 113.516 441.284 118.122 431.414 120.359C433.651 131.282 437.336 141.152 442.468 149.969C447.206 158.26 452.338 163.721 457.865 166.353C455.891 171.881 452.865 175.829 448.785 178.197C444.837 180.698 439.968 181.948 434.177 181.948C428.519 181.948 423.452 180.303 418.978 177.013C414.503 173.591 410.489 168.788 406.936 162.603C399.435 149.18 395.29 131.874 394.5 110.687H395.882C405.62 110.424 412.924 107.792 417.793 102.791C422.662 97.6585 425.097 89.7625 425.097 79.103C425.097 65.8114 419.504 58.9024 408.318 58.376H403.975C402.791 58.376 401.87 58.4418 401.212 58.5734L378.511 178H336.267ZM578.805 181.948C561.96 181.948 552.748 169.972 551.169 146.021H517.216C514.584 152.075 512.347 157.734 510.505 162.998L505.372 178H477.736L539.917 47.7165H582.358L590.649 143.653C591.965 157.47 595.255 166.419 600.519 170.499C596.702 178.132 589.464 181.948 578.805 181.948ZM523.336 131.611H550.577L548.208 80.8796V75.5498L534.192 106.541L523.336 131.611ZM629.817 177.013L654.689 47.7165C670.218 46.4005 682.983 45.7425 692.985 45.7425C702.986 45.7425 711.211 46.2031 717.66 47.1243C724.108 47.9139 729.504 49.4273 733.846 51.6645C742.532 55.8756 746.875 63.7716 746.875 75.3524C746.875 82.064 743.98 88.2491 738.189 93.9079C732.794 99.0403 727.135 102.199 721.213 103.383C727.53 104.436 732.925 107.331 737.4 112.069C742.137 117.069 744.506 123.452 744.506 131.216C744.506 146.219 738.913 158.128 727.727 166.946C716.541 175.631 699.96 179.974 677.982 179.974C662.848 179.974 646.793 178.987 629.817 177.013ZM673.64 165.564C674.824 165.695 675.548 165.761 675.811 165.761H677.588C688.379 165.761 696.077 162.208 700.683 155.102C704.105 149.575 705.816 141.744 705.816 131.611C705.816 126.216 704.039 122.07 700.486 119.175C697.064 116.28 691.406 114.701 683.51 114.437L673.64 165.564ZM713.514 75.5498C713.514 64.627 708.25 59.1656 697.722 59.1656H695.946C695.419 59.1656 694.761 59.2314 693.972 59.363L686.076 101.014H688.05C705.026 100.619 713.514 92.1313 713.514 75.5498ZM801.104 180.171C797.024 180.04 792.813 179.974 788.47 179.974C784.259 179.974 780.048 180.237 775.837 180.764C775.311 178.658 775.047 176.355 775.047 173.855C775.047 168.591 776.495 164.379 779.39 161.221C782.417 158.063 786.233 156.483 790.839 156.483H801.499L818.08 81.8666C814.001 85.9461 807.75 87.9859 799.327 87.9859C795.116 87.9859 791.366 86.0119 788.076 82.064C784.786 78.3792 782.877 73.9048 782.351 68.6408C801.828 65.2192 826.108 56.9942 855.191 43.9659L861.508 51.4671L842.36 156.483H847.295C855.191 156.483 861.179 155.76 865.259 154.312C866.97 157.207 867.825 161.024 867.825 165.761C867.825 170.499 866.048 174.315 862.495 177.21C859.074 179.974 854.468 181.356 848.677 181.356C836.965 181.356 825.318 181.093 813.738 180.566L801.104 180.171ZM904.237 180.171C900.158 180.04 895.947 179.974 891.604 179.974C887.393 179.974 883.182 180.237 878.97 180.764C878.444 178.658 878.181 176.355 878.181 173.855C878.181 168.591 879.628 164.379 882.524 161.221C885.55 158.063 889.367 156.483 893.973 156.483H904.632L921.214 81.8666C917.134 85.9461 910.883 87.9859 902.461 87.9859C898.25 87.9859 894.499 86.0119 891.209 82.064C887.919 78.3792 886.011 73.9048 885.485 68.6408C904.961 65.2192 929.241 56.9942 958.325 43.9659L964.642 51.4671L945.494 156.483H950.429C958.325 156.483 964.313 155.76 968.392 154.312C970.103 157.207 970.958 161.024 970.958 165.761C970.958 170.499 969.182 174.315 965.629 177.21C962.207 179.974 957.601 181.356 951.811 181.356C940.098 181.356 928.452 181.093 916.871 180.566L904.237 180.171ZM1007.37 180.171C1003.29 180.04 999.08 179.974 994.737 179.974C990.526 179.974 986.315 180.237 982.104 180.764C981.577 178.658 981.314 176.355 981.314 173.855C981.314 168.591 982.762 164.379 985.657 161.221C988.684 158.063 992.5 156.483 997.106 156.483H1007.77L1024.35 81.8666C1020.27 85.9461 1014.02 87.9859 1005.59 87.9859C1001.38 87.9859 997.632 86.0119 994.343 82.064C991.053 78.3792 989.144 73.9048 988.618 68.6408C1008.09 65.2192 1032.37 56.9942 1061.46 43.9659L1067.78 51.4671L1048.63 156.483H1053.56C1061.46 156.483 1067.45 155.76 1071.53 154.312C1073.24 157.207 1074.09 161.024 1074.09 165.761C1074.09 170.499 1072.32 174.315 1068.76 177.21C1065.34 179.974 1060.73 181.356 1054.94 181.356C1043.23 181.356 1031.59 181.093 1020 180.566L1007.37 180.171Z" fill="#0AA40A"/>
<path d="M170.524 110.489L168.692 108.529L168.684 108.536L168.676 108.544L170.524 110.489ZM120.78 116.214L122.371 114.054L122.321 114.016L122.268 113.981L120.78 116.214ZM114.858 110.687V108.004H109.491L112.711 112.297L114.858 110.687ZM136.769 102.001L134.741 100.244L134.738 100.247L136.769 102.001ZM120.582 58.9682L120.056 56.3371L118.285 56.6913L117.947 58.4656L120.582 58.9682ZM97.8815 178V180.683H100.101L100.517 178.503L97.8815 178ZM55.0459 178L52.4087 177.505L51.8119 180.683H55.0459V178ZM79.326 48.7035L79.0763 46.0319L77.0622 46.2201L76.6888 48.2083L79.326 48.7035ZM112.686 46.5321L112.73 49.215L112.73 49.215L112.686 46.5321ZM134.203 49.0179C150.09 49.0179 161.525 51.8372 168.927 57.0641C176.159 62.1702 179.883 69.819 179.883 80.4848H185.249C185.249 68.3838 180.913 58.9576 172.023 52.6803C163.304 46.5238 150.558 43.6515 134.203 43.6515V49.0179ZM179.883 80.4848C179.883 92.3562 176.1 101.607 168.692 108.529L172.356 112.45C181.004 104.369 185.249 93.6172 185.249 80.4848H179.883ZM168.676 108.544C161.403 115.454 151.276 119.058 137.954 119.058V124.424C152.267 124.424 163.854 120.528 172.372 112.435L168.676 108.544ZM137.954 119.058C132.055 119.058 126.893 117.385 122.371 114.054L119.188 118.374C124.668 122.412 130.956 124.424 137.954 124.424V119.058ZM122.268 113.981C120.132 112.557 118.387 110.92 117.004 109.077L112.711 112.297C114.487 114.665 116.69 116.712 119.291 118.447L122.268 113.981ZM114.858 113.37C125.029 113.37 133.164 110.281 138.8 103.755L134.738 100.247C130.373 105.302 123.9 108.004 114.858 108.004V113.37ZM138.797 103.759C144.51 97.1665 147.151 87.7482 147.151 75.9446H141.785C141.785 87.0393 139.293 94.9922 134.741 100.244L138.797 103.759ZM147.151 75.9446C147.151 69.8142 145.635 64.7219 142.132 61.178C138.623 57.6282 133.572 56.0876 127.491 56.0876V61.4541C132.729 61.4541 136.166 62.7757 138.315 64.9506C140.471 67.1312 141.785 70.6258 141.785 75.9446H147.151ZM127.491 56.0876H122.754V61.4541H127.491V56.0876ZM122.754 56.0876C121.818 56.0876 120.915 56.1654 120.056 56.3371L121.109 61.5993C121.566 61.5078 122.111 61.4541 122.754 61.4541V56.0876ZM117.947 58.4656L95.2458 177.497L100.517 178.503L123.218 59.4709L117.947 58.4656ZM97.8815 175.317H55.0459V180.683H97.8815V175.317ZM57.683 178.495L81.9631 49.1987L76.6888 48.2083L52.4087 177.505L57.683 178.495ZM79.5756 51.3751C93.63 50.0616 104.672 49.3449 112.73 49.215L112.643 43.8492C104.383 43.9825 93.1843 44.7134 79.0763 46.0319L79.5756 51.3751ZM112.73 49.215C120.879 49.0835 128.036 49.0179 134.203 49.0179V43.6515C128 43.6515 120.813 43.7175 112.643 43.8492L112.73 49.215ZM257.422 146.021L260.099 145.845L259.934 143.338H257.422V146.021ZM223.469 146.021V143.338H221.71L221.008 144.951L223.469 146.021ZM216.757 162.998L214.225 162.111L214.222 162.12L214.219 162.129L216.757 162.998ZM211.625 178V180.683H213.543L214.164 178.869L211.625 178ZM183.989 178L181.568 176.844L179.735 180.683H183.989V178ZM246.17 47.7165V45.0333H244.477L243.748 46.5607L246.17 47.7165ZM288.611 47.7165L291.284 47.4855L291.072 45.0333H288.611V47.7165ZM296.902 143.653L294.228 143.884L294.229 143.895L294.23 143.907L296.902 143.653ZM306.772 170.499L309.172 171.699L310.157 169.728L308.415 168.378L306.772 170.499ZM229.588 131.611L227.126 130.545L225.502 134.294H229.588V131.611ZM256.83 131.611V134.294H259.641L259.51 131.486L256.83 131.611ZM254.461 80.8796H251.778V80.9422L251.78 81.0047L254.461 80.8796ZM254.461 75.5498H257.144L252.016 74.4441L254.461 75.5498ZM240.445 106.541L238.001 105.436L237.992 105.455L237.983 105.475L240.445 106.541ZM285.058 179.265C277.359 179.265 271.677 176.576 267.642 171.33C263.499 165.945 260.873 157.576 260.099 145.845L254.744 146.198C255.55 158.417 258.319 168.012 263.388 174.602C268.565 181.333 275.912 184.631 285.058 184.631V179.265ZM257.422 143.338H223.469V148.705H257.422V143.338ZM221.008 144.951C218.355 151.055 216.093 156.775 214.225 162.111L219.29 163.884C221.107 158.692 223.319 153.095 225.93 147.091L221.008 144.951ZM214.219 162.129L209.086 177.131L214.164 178.869L219.296 163.866L214.219 162.129ZM211.625 175.317H183.989V180.683H211.625V175.317ZM186.411 179.156L248.592 48.8722L243.748 46.5607L181.568 176.844L186.411 179.156ZM246.17 50.3997H288.611V45.0333H246.17V50.3997ZM285.938 47.9475L294.228 143.884L299.575 143.422L291.284 47.4855L285.938 47.9475ZM294.23 143.907C294.901 150.951 296.086 156.889 297.838 161.653C299.585 166.407 301.962 170.166 305.128 172.62L308.415 168.378C306.318 166.752 304.417 163.997 302.874 159.802C301.336 155.617 300.218 150.172 299.573 143.398L294.23 143.907ZM304.372 169.299C301.131 175.78 295.004 179.265 285.058 179.265V184.631C296.43 184.631 304.779 180.483 309.172 171.699L304.372 169.299ZM229.588 134.294H256.83V128.928H229.588V134.294ZM259.51 131.486L257.141 80.7544L251.78 81.0047L254.149 131.736L259.51 131.486ZM257.144 80.8796V75.5498H251.778V80.8796H257.144ZM252.016 74.4441L238.001 105.436L242.89 107.647L256.906 76.6554L252.016 74.4441ZM237.983 105.475L227.126 130.545L232.051 132.677L242.908 107.608L237.983 105.475ZM336.267 178L333.629 177.51L333.04 180.683H336.267V178ZM360.35 48.3087L360.054 45.6419L358.075 45.8617L357.712 47.8188L360.35 48.3087ZM450.167 54.4281L451.592 52.1546L451.592 52.1546L450.167 54.4281ZM454.707 106.541L452.642 104.828L452.633 104.839L452.623 104.851L454.707 106.541ZM431.414 120.359L430.821 117.743L428.258 118.323L428.785 120.898L431.414 120.359ZM442.468 149.969L444.798 148.638L444.792 148.629L444.787 148.619L442.468 149.969ZM457.865 166.353L460.392 167.256L461.207 164.973L459.019 163.931L457.865 166.353ZM448.785 178.197L447.438 175.877L447.393 175.903L447.349 175.931L448.785 178.197ZM418.978 177.013L417.348 179.144L417.368 179.16L417.388 179.175L418.978 177.013ZM406.936 162.603L404.594 163.912L404.602 163.926L404.61 163.939L406.936 162.603ZM394.5 110.687V108.004H391.715L391.819 110.787L394.5 110.687ZM395.882 110.687V113.37H395.918L395.954 113.369L395.882 110.687ZM417.793 102.791L419.716 104.663L419.728 104.65L419.74 104.638L417.793 102.791ZM408.318 58.376L408.444 55.6958L408.381 55.6928H408.318V58.376ZM401.212 58.5734L400.685 55.9423L398.913 56.2968L398.576 58.0724L401.212 58.5734ZM378.511 178V180.683H380.732L381.147 178.501L378.511 178ZM338.905 178.49L362.988 48.7986L357.712 47.8188L333.629 177.51L338.905 178.49ZM360.646 50.9755C373.544 49.5425 389.427 48.8205 408.318 48.8205V43.4541C389.308 43.4541 373.213 44.1797 360.054 45.6419L360.646 50.9755ZM408.318 48.8205C427.256 48.8205 440.578 51.5843 448.742 56.7015L451.592 52.1546C442.121 46.2175 427.544 43.4541 408.318 43.4541V48.8205ZM448.742 56.7015C456.708 61.6954 460.709 69.1525 460.709 79.4978H466.076C466.076 67.4711 461.26 58.2151 451.592 52.1546L448.742 56.7015ZM460.709 79.4978C460.709 90.0685 457.951 98.4336 452.642 104.828L456.771 108.255C463.044 100.7 466.076 91.0357 466.076 79.4978H460.709ZM452.623 104.851C447.391 111.3 440.182 115.621 430.821 117.743L432.007 122.976C442.385 120.624 450.705 115.733 456.791 108.232L452.623 104.851ZM428.785 120.898C431.075 132.08 434.857 142.228 440.149 151.319L444.787 148.619C439.814 140.076 436.227 130.485 434.042 119.821L428.785 120.898ZM440.138 151.301C445.007 159.82 450.484 165.811 456.712 168.776L459.019 163.931C454.192 161.632 449.405 156.7 444.798 148.638L440.138 151.301ZM455.338 165.451C453.524 170.531 450.845 173.899 447.438 175.877L450.132 180.518C454.884 177.759 458.259 173.23 460.392 167.256L455.338 165.451ZM447.349 175.931C443.923 178.101 439.581 179.265 434.177 179.265V184.631C440.355 184.631 445.751 183.295 450.221 180.464L447.349 175.931ZM434.177 179.265C429.079 179.265 424.572 177.796 420.567 174.851L417.388 179.175C422.333 182.81 427.958 184.631 434.177 184.631V179.265ZM420.608 174.882C416.48 171.725 412.684 167.222 409.263 161.266L404.61 163.939C408.295 170.354 412.526 175.457 417.348 179.144L420.608 174.882ZM409.279 161.294C402.048 148.355 397.961 131.502 397.181 110.587L391.819 110.787C392.619 132.246 396.822 150.005 404.594 163.912L409.279 161.294ZM394.5 113.37H395.882V108.004H394.5V113.37ZM395.954 113.369C406.112 113.095 414.193 110.334 419.716 104.663L415.871 100.919C411.655 105.249 405.129 107.753 395.809 108.005L395.954 113.369ZM419.74 104.638C425.274 98.8048 427.78 90.1089 427.78 79.103H422.414C422.414 89.4161 420.051 96.5122 415.847 100.944L419.74 104.638ZM427.78 79.103C427.78 72.135 426.322 66.3828 422.988 62.2643C419.59 58.0668 414.589 55.9849 408.444 55.6958L408.192 61.0563C413.233 61.2935 416.622 62.9293 418.817 65.6408C421.076 68.4314 422.414 72.7794 422.414 79.103H427.78ZM408.318 55.6928H403.975V61.0593H408.318V55.6928ZM403.975 55.6928C402.726 55.6928 401.6 55.7594 400.685 55.9423L401.738 61.2046C402.139 61.1242 402.856 61.0593 403.975 61.0593V55.6928ZM398.576 58.0724L375.875 177.499L381.147 178.501L403.848 59.0745L398.576 58.0724ZM378.511 175.317H336.267V180.683H378.511V175.317ZM551.169 146.021L553.846 145.845L553.681 143.338H551.169V146.021ZM517.216 146.021V143.338H515.457L514.755 144.951L517.216 146.021ZM510.505 162.998L507.972 162.111L507.969 162.12L507.966 162.129L510.505 162.998ZM505.372 178V180.683H507.29L507.911 178.869L505.372 178ZM477.736 178L475.315 176.844L473.483 180.683H477.736V178ZM539.917 47.7165V45.0333H538.225L537.496 46.5607L539.917 47.7165ZM582.358 47.7165L585.031 47.4855L584.819 45.0333H582.358V47.7165ZM590.649 143.653L587.975 143.884L587.976 143.895L587.978 143.907L590.649 143.653ZM600.519 170.499L602.919 171.699L603.904 169.728L602.162 168.378L600.519 170.499ZM523.336 131.611L520.873 130.545L519.249 134.294H523.336V131.611ZM550.577 131.611V134.294H553.388L553.257 131.486L550.577 131.611ZM548.208 80.8796H545.525V80.9422L545.528 81.0047L548.208 80.8796ZM548.208 75.5498H550.891L545.763 74.4441L548.208 75.5498ZM534.192 106.541L531.748 105.436L531.739 105.455L531.73 105.475L534.192 106.541ZM578.805 179.265C571.106 179.265 565.424 176.576 561.389 171.33C557.246 165.945 554.62 157.576 553.846 145.845L548.491 146.198C549.297 158.417 552.066 168.012 557.135 174.602C562.313 181.333 569.659 184.631 578.805 184.631V179.265ZM551.169 143.338H517.216V148.705H551.169V143.338ZM514.755 144.951C512.102 151.055 509.84 156.775 507.972 162.111L513.037 163.884C514.854 158.692 517.066 153.095 519.677 147.091L514.755 144.951ZM507.966 162.129L502.833 177.131L507.911 178.869L513.043 163.866L507.966 162.129ZM505.372 175.317H477.736V180.683H505.372V175.317ZM480.158 179.156L542.339 48.8722L537.496 46.5607L475.315 176.844L480.158 179.156ZM539.917 50.3997H582.358V45.0333H539.917V50.3997ZM579.685 47.9475L587.975 143.884L593.322 143.422L585.031 47.4855L579.685 47.9475ZM587.978 143.907C588.648 150.951 589.833 156.889 591.585 161.653C593.332 166.407 595.709 170.166 598.875 172.62L602.162 168.378C600.065 166.752 598.164 163.997 596.622 159.802C595.083 155.617 593.965 150.172 593.32 143.398L587.978 143.907ZM598.119 169.299C594.878 175.78 588.751 179.265 578.805 179.265V184.631C590.177 184.631 598.526 180.483 602.919 171.699L598.119 169.299ZM523.336 134.294H550.577V128.928H523.336V134.294ZM553.257 131.486L550.888 80.7544L545.528 81.0047L547.896 131.736L553.257 131.486ZM550.891 80.8796V75.5498H545.525V80.8796H550.891ZM545.763 74.4441L531.748 105.436L536.637 107.647L550.653 76.6554L545.763 74.4441ZM531.73 105.475L520.873 130.545L525.798 132.677L536.655 107.608L531.73 105.475ZM629.817 177.013L627.182 176.506L626.636 179.344L629.507 179.678L629.817 177.013ZM654.689 47.7165L654.463 45.0429L652.438 45.2144L652.054 47.2096L654.689 47.7165ZM717.66 47.1243L717.28 49.7805L717.307 49.7843L717.334 49.7876L717.66 47.1243ZM733.846 51.6645L732.618 54.0498L732.647 54.0647L732.676 54.0789L733.846 51.6645ZM738.189 93.9079L740.038 95.8521L740.052 95.8396L740.065 95.8269L738.189 93.9079ZM721.213 103.383L720.687 100.752L720.772 106.03L721.213 103.383ZM737.4 112.069L735.449 113.911L735.452 113.914L737.4 112.069ZM727.727 166.946L729.373 169.065L729.38 169.059L729.388 169.053L727.727 166.946ZM673.64 165.564L671.005 165.055L670.454 167.91L673.343 168.231L673.64 165.564ZM700.683 155.102L702.935 156.561L702.95 156.538L702.965 156.514L700.683 155.102ZM700.486 119.175L698.753 121.223L698.772 121.239L698.791 121.255L700.486 119.175ZM683.51 114.437L683.599 111.756L681.309 111.679L680.875 113.929L683.51 114.437ZM693.972 59.363L693.531 56.7163L691.684 57.0241L691.335 58.8633L693.972 59.363ZM686.076 101.014L683.44 100.515L682.836 103.698H686.076V101.014ZM688.05 101.014V103.698H688.081L688.112 103.697L688.05 101.014ZM632.452 177.52L657.324 48.2233L652.054 47.2096L627.182 176.506L632.452 177.52ZM654.916 50.3901C670.406 49.0774 683.088 48.4257 692.985 48.4257V43.0593C682.878 43.0593 670.03 43.7236 654.463 45.0429L654.916 50.3901ZM692.985 48.4257C702.919 48.4257 711.005 48.8841 717.28 49.7805L718.039 44.468C711.417 43.5221 703.054 43.0593 692.985 43.0593V48.4257ZM717.334 49.7876C723.565 50.5506 728.633 51.997 732.618 54.0498L735.075 49.2792C730.374 46.8575 724.651 45.2772 717.986 44.461L717.334 49.7876ZM732.676 54.0789C736.556 55.9602 739.382 58.6123 741.267 62.0379C743.167 65.4925 744.192 69.8884 744.192 75.3524H749.558C749.558 69.2356 748.411 63.8931 745.969 59.4517C743.51 54.9814 739.822 51.5799 735.017 49.2501L732.676 54.0789ZM744.192 75.3524C744.192 81.1961 741.702 86.7233 736.314 91.9889L740.065 95.8269C746.257 89.775 749.558 82.9318 749.558 75.3524H744.192ZM736.34 91.9638C731.226 96.8282 726.007 99.6879 720.687 100.752L721.739 106.014C728.263 104.709 734.361 101.252 740.038 95.8521L736.34 91.9638ZM720.772 106.03C726.5 106.985 731.369 109.591 735.449 113.911L739.35 110.226C734.482 105.071 728.559 101.887 721.654 100.736L720.772 106.03ZM735.452 113.914C739.656 118.352 741.823 124.044 741.823 131.216H747.189C747.189 122.86 744.618 115.787 739.347 110.223L735.452 113.914ZM741.823 131.216C741.823 145.448 736.568 156.561 726.066 164.838L729.388 169.053C741.258 159.696 747.189 146.99 747.189 131.216H741.823ZM726.081 164.826C715.563 172.993 699.673 177.291 677.982 177.291V182.657C700.246 182.657 717.519 178.269 729.373 169.065L726.081 164.826ZM677.982 177.291C662.964 177.291 647.013 176.311 630.127 174.348L629.507 179.678C646.573 181.663 662.733 182.657 677.982 182.657V177.291ZM673.343 168.231C674.46 168.355 675.363 168.444 675.811 168.444V163.078C675.819 163.078 675.688 163.074 675.314 163.04C674.977 163.009 674.52 162.962 673.936 162.897L673.343 168.231ZM675.811 168.444H677.588V163.078H675.811V168.444ZM677.588 168.444C689.006 168.444 697.698 164.641 702.935 156.561L698.432 153.642C694.456 159.775 687.752 163.078 677.588 163.078V168.444ZM702.965 156.514C706.757 150.388 708.499 141.988 708.499 131.611H703.132C703.132 141.501 701.453 148.761 698.402 153.689L702.965 156.514ZM708.499 131.611C708.499 125.568 706.473 120.592 702.181 117.095L698.791 121.255C701.605 123.548 703.132 126.863 703.132 131.611H708.499ZM702.219 117.127C698.098 113.64 691.687 112.025 683.599 111.756L683.42 117.119C691.124 117.376 696.03 118.92 698.753 121.223L702.219 117.127ZM680.875 113.929L671.005 165.055L676.274 166.072L686.144 114.946L680.875 113.929ZM716.197 75.5498C716.197 69.699 714.789 64.8138 711.498 61.3996C708.19 57.967 703.426 56.4824 697.722 56.4824V61.8488C702.547 61.8488 705.679 63.0949 707.634 65.1238C709.608 67.171 710.831 70.4778 710.831 75.5498H716.197ZM697.722 56.4824H695.946V61.8488H697.722V56.4824ZM695.946 56.4824C695.217 56.4824 694.399 56.5716 693.531 56.7163L694.413 62.0097C695.123 61.8913 695.622 61.8488 695.946 61.8488V56.4824ZM691.335 58.8633L683.44 100.515L688.712 101.514L696.608 59.8628L691.335 58.8633ZM686.076 103.698H688.05V98.3311H686.076V103.698ZM688.112 103.697C697.003 103.49 704.142 101.152 709.045 96.2494C713.959 91.3354 716.197 84.2754 716.197 75.5498H710.831C710.831 83.4057 708.825 88.8806 705.251 92.4547C701.666 96.0399 696.073 98.1438 687.987 98.3318L688.112 103.697ZM801.104 180.171L801.018 182.853L801.02 182.853L801.104 180.171ZM775.837 180.764L773.234 181.414L773.81 183.721L776.17 183.426L775.837 180.764ZM779.39 161.221L777.453 159.365L777.432 159.386L777.412 159.408L779.39 161.221ZM801.499 156.483V159.167H803.651L804.118 157.066L801.499 156.483ZM818.08 81.8666L820.7 82.4486L822.699 73.4537L816.183 79.9692L818.08 81.8666ZM788.076 82.064L790.137 80.3462L790.108 80.311L790.077 80.2769L788.076 82.064ZM782.351 68.6408L781.887 65.9981L779.433 66.4291L779.681 68.9078L782.351 68.6408ZM855.191 43.9659L857.244 42.2375L855.941 40.6901L854.094 41.5172L855.191 43.9659ZM861.508 51.4671L864.148 51.9484L864.375 50.7053L863.561 49.7387L861.508 51.4671ZM842.36 156.483L839.721 156.002L839.144 159.167H842.36V156.483ZM865.259 154.312L867.569 152.947L866.444 151.044L864.361 151.783L865.259 154.312ZM862.495 177.21L864.181 179.298L864.19 179.291L862.495 177.21ZM813.738 180.566L813.859 177.886L813.84 177.885L813.821 177.884L813.738 180.566ZM801.191 177.49C797.08 177.357 792.84 177.291 788.47 177.291V182.657C792.786 182.657 796.969 182.723 801.018 182.853L801.191 177.49ZM788.47 177.291C784.147 177.291 779.825 177.561 775.504 178.101L776.17 183.426C780.271 182.913 784.371 182.657 788.47 182.657V177.291ZM778.44 180.113C777.974 178.249 777.731 176.168 777.731 173.855H772.364C772.364 176.542 772.647 179.067 773.234 181.414L778.44 180.113ZM777.731 173.855C777.731 169.101 779.025 165.591 781.368 163.034L777.412 159.408C773.965 163.168 772.364 168.08 772.364 173.855H777.731ZM781.327 163.078C783.819 160.478 786.921 159.167 790.839 159.167V153.8C785.545 153.8 781.015 155.648 777.453 159.365L781.327 163.078ZM790.839 159.167H801.499V153.8H790.839V159.167ZM804.118 157.066L820.7 82.4486L815.461 81.2845L798.879 155.901L804.118 157.066ZM816.183 79.9692C812.798 83.354 807.365 85.3027 799.327 85.3027V90.6691C808.135 90.6691 815.203 88.5383 819.978 83.7639L816.183 79.9692ZM799.327 85.3027C796.087 85.3027 793.04 83.8303 790.137 80.3462L786.014 83.7817C789.691 88.1935 794.146 90.6691 799.327 90.6691V85.3027ZM790.077 80.2769C787.193 77.0461 785.495 73.1156 785.021 68.3738L779.681 68.9078C780.26 74.694 782.379 79.7122 786.074 83.851L790.077 80.2769ZM782.815 71.2836C802.601 67.8076 827.11 59.4856 856.288 46.4146L854.094 41.5172C825.106 54.5029 801.054 62.6308 781.887 65.9981L782.815 71.2836ZM853.139 45.6943L859.456 53.1954L863.561 49.7387L857.244 42.2375L853.139 45.6943ZM858.868 50.9858L839.721 156.002L845 156.965L864.148 51.9484L858.868 50.9858ZM842.36 159.167H847.295V153.8H842.36V159.167ZM847.295 159.167C855.288 159.167 861.642 158.443 866.156 156.841L864.361 151.783C860.717 153.077 855.094 153.8 847.295 153.8V159.167ZM862.949 155.677C864.335 158.023 865.142 161.317 865.142 165.761H870.508C870.508 160.73 869.604 156.391 867.569 152.947L862.949 155.677ZM865.142 165.761C865.142 169.724 863.704 172.764 860.8 175.13L864.19 179.291C868.393 175.866 870.508 171.274 870.508 165.761H865.142ZM860.809 175.123C857.998 177.394 854.05 178.673 848.677 178.673V184.039C854.886 184.039 860.15 182.554 864.181 179.298L860.809 175.123ZM848.677 178.673C837.005 178.673 825.399 178.41 813.859 177.886L813.616 183.247C825.237 183.775 836.925 184.039 848.677 184.039V178.673ZM813.821 177.884L801.188 177.489L801.02 182.853L813.654 183.248L813.821 177.884ZM904.237 180.171L904.151 182.853L904.154 182.853L904.237 180.171ZM878.97 180.764L876.367 181.414L876.944 183.721L879.303 183.426L878.97 180.764ZM882.524 161.221L880.586 159.365L880.566 159.386L880.546 159.408L882.524 161.221ZM904.632 156.483V159.167H906.785L907.252 157.066L904.632 156.483ZM921.214 81.8666L923.833 82.4486L925.832 73.4537L919.316 79.9692L921.214 81.8666ZM891.209 82.064L893.27 80.3462L893.241 80.311L893.211 80.2769L891.209 82.064ZM885.485 68.6408L885.02 65.9981L882.567 66.4291L882.815 68.9078L885.485 68.6408ZM958.325 43.9659L960.377 42.2375L959.074 40.6901L957.228 41.5172L958.325 43.9659ZM964.642 51.4671L967.281 51.9484L967.508 50.7053L966.694 49.7387L964.642 51.4671ZM945.494 156.483L942.854 156.002L942.277 159.167H945.494V156.483ZM968.392 154.312L970.702 152.947L969.578 151.044L967.495 151.783L968.392 154.312ZM965.629 177.21L967.315 179.298L967.324 179.291L965.629 177.21ZM916.871 180.566L916.993 177.886L916.974 177.885L916.955 177.884L916.871 180.566ZM904.324 177.49C900.214 177.357 895.974 177.291 891.604 177.291V182.657C895.92 182.657 900.102 182.723 904.151 182.853L904.324 177.49ZM891.604 177.291C887.281 177.291 882.958 177.561 878.638 178.101L879.303 183.426C883.405 182.913 887.505 182.657 891.604 182.657V177.291ZM881.573 180.113C881.108 178.249 880.864 176.168 880.864 173.855H875.498C875.498 176.542 875.78 179.067 876.367 181.414L881.573 180.113ZM880.864 173.855C880.864 169.101 882.158 165.591 884.501 163.034L880.546 159.408C877.099 163.168 875.498 168.08 875.498 173.855H880.864ZM884.461 163.078C886.952 160.478 890.055 159.167 893.973 159.167V153.8C888.679 153.8 884.148 155.648 880.586 159.365L884.461 163.078ZM893.973 159.167H904.632V153.8H893.973V159.167ZM907.252 157.066L923.833 82.4486L918.594 81.2845L902.013 155.901L907.252 157.066ZM919.316 79.9692C915.932 83.354 910.498 85.3027 902.461 85.3027V90.6691C911.268 90.6691 918.337 88.5383 923.111 83.7639L919.316 79.9692ZM902.461 85.3027C899.22 85.3027 896.174 83.8303 893.27 80.3462L889.148 83.7817C892.824 88.1935 897.279 90.6691 902.461 90.6691V85.3027ZM893.211 80.2769C890.326 77.0461 888.629 73.1156 888.154 68.3738L882.815 68.9078C883.393 74.694 885.512 79.7122 889.208 83.851L893.211 80.2769ZM885.949 71.2836C905.735 67.8076 930.243 59.4856 959.422 46.4146L957.228 41.5172C928.24 54.5029 904.188 62.6308 885.02 65.9981L885.949 71.2836ZM956.272 45.6943L962.589 53.1954L966.694 49.7387L960.377 42.2375L956.272 45.6943ZM962.002 50.9858L942.854 156.002L948.134 156.965L967.281 51.9484L962.002 50.9858ZM945.494 159.167H950.429V153.8H945.494V159.167ZM950.429 159.167C958.422 159.167 964.775 158.443 969.289 156.841L967.495 151.783C963.85 153.077 958.228 153.8 950.429 153.8V159.167ZM966.082 155.677C967.469 158.023 968.275 161.317 968.275 165.761H973.642C973.642 160.73 972.737 156.391 970.702 152.947L966.082 155.677ZM968.275 165.761C968.275 169.724 966.838 172.764 963.934 175.13L967.324 179.291C971.526 175.866 973.642 171.274 973.642 165.761H968.275ZM963.943 175.123C961.131 177.394 957.183 178.673 951.811 178.673V184.039C958.019 184.039 963.283 182.554 967.315 179.298L963.943 175.123ZM951.811 178.673C940.139 178.673 928.533 178.41 916.993 177.886L916.749 183.247C928.371 183.775 940.058 184.039 951.811 184.039V178.673ZM916.955 177.884L904.321 177.489L904.154 182.853L916.787 183.248L916.955 177.884ZM1007.37 180.171L1007.28 182.853L1007.29 182.853L1007.37 180.171ZM982.104 180.764L979.501 181.414L980.077 183.721L982.437 183.426L982.104 180.764ZM985.657 161.221L983.72 159.365L983.699 159.386L983.679 159.408L985.657 161.221ZM1007.77 156.483V159.167H1009.92L1010.38 157.066L1007.77 156.483ZM1024.35 81.8666L1026.97 82.4486L1028.97 73.4537L1022.45 79.9692L1024.35 81.8666ZM994.343 82.064L996.404 80.3462L996.375 80.311L996.344 80.2769L994.343 82.064ZM988.618 68.6408L988.154 65.9981L985.7 66.4291L985.948 68.9078L988.618 68.6408ZM1061.46 43.9659L1063.51 42.2375L1062.21 40.6901L1060.36 41.5172L1061.46 43.9659ZM1067.78 51.4671L1070.41 51.9484L1070.64 50.7053L1069.83 49.7387L1067.78 51.4671ZM1048.63 156.483L1045.99 156.002L1045.41 159.167H1048.63V156.483ZM1071.53 154.312L1073.84 152.947L1072.71 151.044L1070.63 151.783L1071.53 154.312ZM1068.76 177.21L1070.45 179.298L1070.46 179.291L1068.76 177.21ZM1020 180.566L1020.13 177.886L1020.11 177.885L1020.09 177.884L1020 180.566ZM1007.46 177.49C1003.35 177.357 999.107 177.291 994.737 177.291V182.657C999.053 182.657 1003.24 182.723 1007.28 182.853L1007.46 177.49ZM994.737 177.291C990.414 177.291 986.092 177.561 981.771 178.101L982.437 183.426C986.538 182.913 990.638 182.657 994.737 182.657V177.291ZM984.707 180.113C984.241 178.249 983.997 176.168 983.997 173.855H978.631C978.631 176.542 978.914 179.067 979.501 181.414L984.707 180.113ZM983.997 173.855C983.997 169.101 985.291 165.591 987.635 163.034L983.679 159.408C980.232 163.168 978.631 168.08 978.631 173.855H983.997ZM987.594 163.078C990.086 160.478 993.188 159.167 997.106 159.167V153.8C991.812 153.8 987.282 155.648 983.72 159.365L987.594 163.078ZM997.106 159.167H1007.77V153.8H997.106V159.167ZM1010.38 157.066L1026.97 82.4486L1021.73 81.2845L1005.15 155.901L1010.38 157.066ZM1022.45 79.9692C1019.07 83.354 1013.63 85.3027 1005.59 85.3027V90.6691C1014.4 90.6691 1021.47 88.5383 1026.24 83.7639L1022.45 79.9692ZM1005.59 85.3027C1002.35 85.3027 999.307 83.8303 996.404 80.3462L992.281 83.7817C995.958 88.1935 1000.41 90.6691 1005.59 90.6691V85.3027ZM996.344 80.2769C993.459 77.0461 991.762 73.1156 991.288 68.3738L985.948 68.9078C986.527 74.694 988.646 79.7122 992.341 83.851L996.344 80.2769ZM989.082 71.2836C1008.87 67.8076 1033.38 59.4856 1062.56 46.4146L1060.36 41.5172C1031.37 54.5029 1007.32 62.6308 988.154 65.9981L989.082 71.2836ZM1059.41 45.6943L1065.72 53.1954L1069.83 49.7387L1063.51 42.2375L1059.41 45.6943ZM1065.14 50.9858L1045.99 156.002L1051.27 156.965L1070.41 51.9484L1065.14 50.9858ZM1048.63 159.167H1053.56V153.8H1048.63V159.167ZM1053.56 159.167C1061.56 159.167 1067.91 158.443 1072.42 156.841L1070.63 151.783C1066.98 153.077 1061.36 153.8 1053.56 153.8V159.167ZM1069.22 155.677C1070.6 158.023 1071.41 161.317 1071.41 165.761H1076.78C1076.78 160.73 1075.87 156.391 1073.84 152.947L1069.22 155.677ZM1071.41 165.761C1071.41 169.724 1069.97 172.764 1067.07 175.13L1070.46 179.291C1074.66 175.866 1076.78 171.274 1076.78 165.761H1071.41ZM1067.08 175.123C1064.26 177.394 1060.32 178.673 1054.94 178.673V184.039C1061.15 184.039 1066.42 182.554 1070.45 179.298L1067.08 175.123ZM1054.94 178.673C1043.27 178.673 1031.67 178.41 1020.13 177.886L1019.88 183.247C1031.5 183.775 1043.19 184.039 1054.94 184.039V178.673ZM1020.09 177.884L1007.45 177.489L1007.29 182.853L1019.92 183.248L1020.09 177.884Z" fill="#FFE400" mask="url(#path-1-outside-1_536_413)"/>
<path d="M36.8945 199.899H1092.07" stroke="#0AA40A" stroke-width="2.68322"/>
<path d="M36.8945 205.266H1092.07" stroke="#0AA40A" stroke-width="2.68322"/>
</g>
<defs>
<clipPath id="clip0_536_413">
<rect width="1135" height="252.222" fill="white"/>
</clipPath>
</defs>
</svg>
