<svg width="1252" height="171" viewBox="0 0 1252 171" fill="none" xmlns="http://www.w3.org/2000/svg">
<path d="M97.8802 3.80136C137.465 3.80136 157.257 17.7771 157.257 45.7285C157.257 61.0776 152.329 73.3568 142.473 82.5663C132.779 91.7757 119.45 96.3804 102.485 96.3804C94.5681 96.3804 87.5398 94.1184 81.4002 89.5945C78.492 87.6557 76.0684 85.3937 74.1296 82.8086C85.9241 82.8086 94.8912 79.2541 101.031 72.1451C107.332 64.8745 110.483 54.2109 110.483 40.1544C110.483 26.0979 103.535 19.0696 89.6402 19.0696H83.8237C82.8543 19.0696 81.9657 19.1504 81.1578 19.312L53.2872 165.451H0.696475L30.506 6.70961C47.7938 5.09392 61.4464 4.2053 71.4637 4.04373C81.481 3.88215 90.2865 3.80136 97.8802 3.80136ZM283.089 170.298C262.409 170.298 251.099 155.595 249.16 126.19H207.475C204.244 133.622 201.497 140.57 199.235 147.032L192.934 165.451H159.004L235.346 5.49785H287.452L297.631 123.282C299.246 140.246 303.286 151.233 309.748 156.242C305.063 165.613 296.177 170.298 283.089 170.298ZM214.988 108.498H248.433L245.525 46.2132V39.6697L228.318 77.7192L214.988 108.498ZM345.961 165.451L375.528 6.22491C391.524 4.44765 411.154 3.55901 434.42 3.55901C457.848 3.55901 474.974 6.95196 485.799 13.7379C496.624 20.5238 502.037 30.7834 502.037 44.5168C502.037 58.0886 498.482 69.156 491.373 77.7192C484.426 86.2824 474.893 91.9373 462.776 94.6839C465.522 108.094 470.046 120.212 476.347 131.037C482.164 141.216 488.465 147.921 495.251 151.152C492.827 157.938 489.111 162.785 484.103 165.694C479.256 168.763 473.278 170.298 466.169 170.298C459.221 170.298 453.001 168.279 447.507 164.239C442.014 160.039 437.086 154.141 432.724 146.548C423.514 130.068 418.425 108.821 417.456 82.8086H419.152C431.108 82.4855 440.075 79.2541 446.053 73.1145C452.031 66.8133 455.02 57.1191 455.02 44.032C455.02 27.7136 448.154 19.2312 434.42 18.5849H429.088C427.634 18.5849 426.503 18.6657 425.696 18.8273L397.825 165.451H345.961ZM643.732 170.298C623.051 170.298 611.742 155.595 609.803 126.19H568.118C564.887 133.622 562.14 140.57 559.878 147.032L553.577 165.451H519.647L595.989 5.49785H648.095L658.274 123.282C659.889 140.246 663.928 151.233 670.391 156.242C665.706 165.613 656.819 170.298 643.732 170.298ZM575.631 108.498H609.076L606.168 46.2132V39.6697L588.96 77.7192L575.631 108.498ZM706.362 164.239L736.898 5.49785C755.963 3.88216 771.636 3.07431 783.915 3.07431C796.194 3.07431 806.292 3.6398 814.209 4.77078C822.126 5.7402 828.75 7.59824 834.082 10.3449C844.746 15.5151 850.077 25.2093 850.077 39.4273C850.077 47.6674 846.523 55.2611 839.414 62.2086C832.79 68.5098 825.842 72.3874 818.571 73.8415C826.327 75.1341 832.951 78.6886 838.444 84.5051C844.261 90.6447 847.169 98.4808 847.169 108.013C847.169 126.432 840.302 141.054 826.569 151.879C812.836 162.543 792.478 167.875 765.496 167.875C746.916 167.875 727.204 166.663 706.362 164.239ZM760.164 150.183C761.618 150.344 762.507 150.425 762.83 150.425H765.011C778.26 150.425 787.712 146.063 793.367 137.338C797.567 130.552 799.668 120.939 799.668 108.498C799.668 101.874 797.487 96.7843 793.124 93.2298C788.924 89.6753 781.976 87.7365 772.282 87.4133L760.164 150.183ZM809.12 39.6697C809.12 26.2595 802.657 19.5543 789.731 19.5543H787.55C786.904 19.5543 786.096 19.6351 785.127 19.7967L775.433 70.9333H777.856C798.698 70.4486 809.12 60.0274 809.12 39.6697Z" fill="#FFE400"/>
<path d="M916.656 168.117C911.648 167.955 906.478 167.875 901.146 167.875C895.976 167.875 890.805 168.198 885.635 168.844C884.989 166.259 884.666 163.432 884.666 160.362C884.666 153.899 886.443 148.729 889.998 144.851C893.714 140.973 898.399 139.035 904.054 139.035H917.141L937.499 47.425C932.49 52.4336 924.816 54.938 914.475 54.938C909.305 54.938 904.7 52.5144 900.661 47.6674C896.622 43.1434 894.279 37.6501 893.633 31.1873C917.545 26.9865 947.355 16.8885 983.061 0.89313L990.817 10.1026L967.308 139.035H973.367C983.061 139.035 990.413 138.146 995.421 136.369C997.522 139.923 998.572 144.609 998.572 150.425C998.572 156.242 996.391 160.927 992.028 164.482C987.828 167.875 982.173 169.571 975.064 169.571C960.684 169.571 946.385 169.248 932.167 168.602L916.656 168.117ZM1043.28 168.117C1038.27 167.955 1033.1 167.875 1027.77 167.875C1022.6 167.875 1017.43 168.198 1012.26 168.844C1011.61 166.259 1011.29 163.432 1011.29 160.362C1011.29 153.899 1013.06 148.729 1016.62 144.851C1020.33 140.973 1025.02 139.035 1030.67 139.035H1043.76L1064.12 47.425C1059.11 52.4336 1051.44 54.938 1041.1 54.938C1035.93 54.938 1031.32 52.5144 1027.28 47.6674C1023.24 43.1434 1020.9 37.6501 1020.25 31.1873C1044.17 26.9865 1073.97 16.8885 1109.68 0.89313L1117.44 10.1026L1093.93 139.035H1099.99C1109.68 139.035 1117.03 138.146 1122.04 136.369C1124.14 139.923 1125.19 144.609 1125.19 150.425C1125.19 156.242 1123.01 160.927 1118.65 164.482C1114.45 167.875 1108.79 169.571 1101.68 169.571C1087.3 169.571 1073.01 169.248 1058.79 168.602L1043.28 168.117ZM1169.9 168.117C1164.89 167.955 1159.72 167.875 1154.39 167.875C1149.22 167.875 1144.05 168.198 1138.88 168.844C1138.23 166.259 1137.91 163.432 1137.91 160.362C1137.91 153.899 1139.68 148.729 1143.24 144.851C1146.95 140.973 1151.64 139.035 1157.29 139.035H1170.38L1190.74 47.425C1185.73 52.4336 1178.06 54.938 1167.72 54.938C1162.55 54.938 1157.94 52.5144 1153.9 47.6674C1149.86 43.1434 1147.52 37.6501 1146.87 31.1873C1170.79 26.9865 1200.6 16.8885 1236.3 0.89313L1244.06 10.1026L1220.55 139.035H1226.61C1236.3 139.035 1243.65 138.146 1248.66 136.369C1250.76 139.923 1251.81 144.609 1251.81 150.425C1251.81 156.242 1249.63 160.927 1245.27 164.482C1241.07 167.875 1235.41 169.571 1228.3 169.571C1213.92 169.571 1199.63 169.248 1185.41 168.602L1169.9 168.117Z" fill="#0AA40A"/>
</svg>
