<svg width="175" height="15" viewBox="0 0 175 15" fill="none" xmlns="http://www.w3.org/2000/svg">
<path d="M13.3681 1.92401L11.2668 5.2779C10.5799 4.60443 9.76498 4.26769 8.82212 4.26769C8.48538 4.26769 8.18905 4.34851 7.93313 4.51014C7.69068 4.6583 7.56946 4.83341 7.56946 5.03545C7.56946 5.22402 8.32375 5.54729 9.83233 6.00525C11.3409 6.46321 12.0952 7.34546 12.0952 8.65199C12.0952 10.2549 11.4217 11.6153 10.0748 12.7332C8.72783 13.8512 7.0913 14.4102 5.16517 14.4102C4.06067 14.4102 2.93597 14.1879 1.79107 13.7434C1.41393 13.5953 0.955966 13.373 0.417189 13.0767L2.76087 9.39955C3.7172 10.302 4.69374 10.7532 5.69047 10.7532C6.06762 10.7532 6.38415 10.6724 6.64007 10.5108C6.90946 10.3491 7.04415 10.1336 7.04415 9.86424C7.04415 9.63526 6.2966 9.3322 4.80149 8.95506C3.31985 8.57791 2.57903 7.73607 2.57903 6.42954C2.57903 4.90749 3.23904 3.58075 4.55904 2.44932C5.89252 1.30441 7.49538 0.731964 9.36763 0.731964C10.1623 0.731964 10.856 0.819515 11.4487 0.994618C12.0413 1.16972 12.6811 1.47952 13.3681 1.92401ZM25.6934 4.51014C25.6934 6.05913 25.1613 7.38587 24.0972 8.49036C23.0332 9.59485 21.7536 10.1471 20.2585 10.1471H17.7733L16.8642 14.1273H12.1364L15.1872 0.913801H21.6323C22.8715 0.913801 23.8548 1.2438 24.5821 1.90381C25.323 2.55034 25.6934 3.41912 25.6934 4.51014ZM21.0666 5.21729C21.0666 4.98831 20.9858 4.80647 20.8242 4.67177C20.6625 4.53708 20.447 4.46973 20.1776 4.46973H19.1068L18.5815 6.79321H19.4503C19.9083 6.79321 20.2921 6.64505 20.6019 6.34872C20.9117 6.05239 21.0666 5.67525 21.0666 5.21729ZM40.4947 5.74259C40.4947 8.15362 39.6326 10.2077 37.9085 11.9049C36.1979 13.5885 34.0765 14.4304 31.5442 14.4304C29.7393 14.4304 28.3116 13.9792 27.2609 13.0767C26.2238 12.1608 25.7052 10.9216 25.7052 9.35914C25.7052 7.00199 26.5875 4.9681 28.352 3.25748C30.1299 1.5334 32.2514 0.671352 34.7163 0.671352C36.5077 0.671352 37.9153 1.12931 38.9389 2.04523C39.9761 2.94769 40.4947 4.18014 40.4947 5.74259ZM35.5244 6.7528C35.5244 6.18709 35.3695 5.73586 35.0597 5.39912C34.7499 5.06239 34.3122 4.89402 33.7465 4.89402C32.9383 4.89402 32.2177 5.23076 31.5846 5.90423C30.9516 6.5777 30.635 7.3724 30.635 8.28832C30.635 8.85403 30.8034 9.312 31.1401 9.6622C31.4769 10.0124 31.9348 10.1875 32.514 10.1875C33.3222 10.1875 34.0226 9.85751 34.6152 9.19751C35.2214 8.52403 35.5244 7.70913 35.5244 6.7528ZM53.5494 4.42932C53.5494 5.46647 53.2463 6.4026 52.6402 7.2377C52.0475 8.05934 51.2461 8.63179 50.2359 8.95506L52.4584 14.1273H47.0032L45.8718 9.78343L44.8616 14.1273H40.1136L43.1644 0.913801H49.4075C50.6737 0.913801 51.6771 1.23707 52.4179 1.8836C53.1722 2.53013 53.5494 3.37871 53.5494 4.42932ZM48.7812 5.37892C48.7812 4.7728 48.431 4.46973 47.7306 4.46973H47.1043L46.5789 6.81341H47.2053C47.6632 6.81341 48.0404 6.67199 48.3367 6.38913C48.633 6.10627 48.7812 5.76953 48.7812 5.37892ZM65.1532 0.913801L64.1632 5.23749H61.4962L59.4354 14.1273H54.7278L56.7887 5.17688H54.1419L55.1319 0.913801H65.1532ZM75.4485 1.92401L73.3472 5.2779C72.6603 4.60443 71.8454 4.26769 70.9025 4.26769C70.5658 4.26769 70.2695 4.34851 70.0135 4.51014C69.7711 4.6583 69.6499 4.83341 69.6499 5.03545C69.6499 5.22402 70.4042 5.54729 71.9127 6.00525C73.4213 6.46321 74.1756 7.34546 74.1756 8.65199C74.1756 10.2549 73.5021 11.6153 72.1552 12.7332C70.8082 13.8512 69.1717 14.4102 67.2456 14.4102C66.1411 14.4102 65.0164 14.1879 63.8715 13.7434C63.4943 13.5953 63.0364 13.373 62.4976 13.0767L64.8413 9.39955C65.7976 10.302 66.7741 10.7532 67.7709 10.7532C68.148 10.7532 68.4646 10.6724 68.7205 10.5108C68.9899 10.3491 69.1246 10.1336 69.1246 9.86424C69.1246 9.63526 68.377 9.3322 66.8819 8.95506C65.4003 8.57791 64.6594 7.73607 64.6594 6.42954C64.6594 4.90749 65.3194 3.58075 66.6395 2.44932C67.9729 1.30441 69.5758 0.731964 71.448 0.731964C72.2427 0.731964 72.9364 0.819515 73.5291 0.994618C74.1217 1.16972 74.7615 1.47952 75.4485 1.92401Z" fill="#FFC21E"/>
<path d="M89.572 0.913801L81.8338 10.0461H86.8444L85.8948 14.1273H73.1662L80.9852 4.87382H76.4191L77.3283 0.913801H89.572ZM103.128 5.74259C103.128 8.15362 102.265 10.2077 100.541 11.9049C98.8308 13.5885 96.7093 14.4304 94.1771 14.4304C92.3722 14.4304 90.9444 13.9792 89.8938 13.0767C88.8567 12.1608 88.3381 10.9216 88.3381 9.35914C88.3381 7.00199 89.2203 4.9681 90.9848 3.25748C92.7628 1.5334 94.8842 0.671352 97.3491 0.671352C99.1406 0.671352 100.548 1.12931 101.572 2.04523C102.609 2.94769 103.128 4.18014 103.128 5.74259ZM98.1573 6.7528C98.1573 6.18709 98.0024 5.73586 97.6926 5.39912C97.3828 5.06239 96.9451 4.89402 96.3793 4.89402C95.5712 4.89402 94.8506 5.23076 94.2175 5.90423C93.5844 6.5777 93.2679 7.3724 93.2679 8.28832C93.2679 8.85403 93.4363 9.312 93.773 9.6622C94.1097 10.0124 94.5677 10.1875 95.1469 10.1875C95.9551 10.1875 96.6555 9.85751 97.2481 9.19751C97.8542 8.52403 98.1573 7.70913 98.1573 6.7528ZM119.294 0.913801L116.243 14.1273H111.414L108.929 7.66199L107.454 14.1273H102.746L105.797 0.913801H110.525L113.091 7.58117L114.627 0.913801H119.294ZM129.65 0.913801L128.822 4.46973H124.781L124.498 5.74259H128.175L127.367 9.19751H123.69L123.407 10.4098H127.569L126.72 14.1273H117.81L120.861 0.913801H129.65ZM147.691 3.70197C147.691 4.42932 147.469 5.09606 147.025 5.70219C146.594 6.29484 146.014 6.73933 145.287 7.03566C146.378 7.4128 146.924 8.16709 146.924 9.29853C146.924 10.7128 146.277 11.9183 144.984 12.9151C143.691 13.8983 142.007 14.39 139.933 14.39C136.431 14.39 134.68 13.0969 134.68 10.5108C134.68 10.2953 134.7 10.0191 134.741 9.6824C134.741 9.62853 134.754 9.54098 134.781 9.41975H139.61L139.549 9.84404C139.549 10.5849 139.899 10.9553 140.6 10.9553C141.058 10.9553 141.435 10.8004 141.731 10.4906C142.028 10.1808 142.176 9.79016 142.176 9.31873C142.176 8.79342 141.785 8.53077 141.004 8.53077L140.6 8.57118L141.246 5.82341L141.549 5.86382C141.913 5.86382 142.223 5.74259 142.479 5.50014C142.735 5.25769 142.863 4.97484 142.863 4.65157C142.863 4.23402 142.64 4.02524 142.196 4.02524C141.63 4.02524 141.24 4.36198 141.024 5.03545H136.337C136.822 3.62116 137.596 2.5436 138.66 1.80278C139.778 1.02156 141.192 0.630943 142.903 0.630943C144.412 0.630943 145.583 0.913801 146.419 1.47952C147.267 2.03176 147.691 2.77258 147.691 3.70197ZM161.619 0.913801L156.326 4.89402C156.542 4.84014 156.71 4.79973 156.831 4.77279C157.208 4.69198 157.505 4.65157 157.72 4.65157C158.69 4.65157 159.458 4.94116 160.023 5.52035C160.589 6.09953 160.872 6.86056 160.872 7.80342C160.872 9.67567 160.158 11.2449 158.73 12.511C157.303 13.7771 155.538 14.4102 153.437 14.4102C151.78 14.4102 150.48 14.0263 149.537 13.2585C148.608 12.4773 148.143 11.4132 148.143 10.0663C148.143 8.04587 149.241 6.0928 151.437 4.20708L155.316 0.913801H161.619ZM156.185 8.65199C156.185 8.28832 156.063 7.99199 155.821 7.76301C155.578 7.53403 155.269 7.41954 154.892 7.41954C154.38 7.41954 153.895 7.63505 153.437 8.06607C152.992 8.48362 152.77 8.94159 152.77 9.43996C152.77 9.8171 152.891 10.1202 153.134 10.3491C153.39 10.5647 153.72 10.6724 154.124 10.6724C154.663 10.6724 155.141 10.4771 155.558 10.0865C155.976 9.69587 156.185 9.21771 156.185 8.65199ZM174.941 0.913801L174.093 4.63137H168.456L167.951 6.00525C168.234 5.92443 168.463 5.87055 168.638 5.84362C169.23 5.72239 169.709 5.66178 170.072 5.66178C171.244 5.66178 172.16 5.9379 172.82 6.49015C173.494 7.02893 173.83 7.76974 173.83 8.71261C173.83 10.3155 173.11 11.6691 171.668 12.7736C170.227 13.8647 168.362 14.4102 166.072 14.4102C164.887 14.4102 163.742 14.2485 162.637 13.9253C162.273 13.8175 161.829 13.6492 161.304 13.4202L162.779 9.56118C163.196 9.83057 163.553 10.0259 163.849 10.1471C164.752 10.5377 165.654 10.733 166.557 10.733C167.244 10.733 167.809 10.6253 168.254 10.4098C168.712 10.1942 168.941 9.91139 168.941 9.56118C168.941 9.21097 168.739 8.93485 168.335 8.73281C167.944 8.5173 167.365 8.40954 166.597 8.40954C165.883 8.40954 165.062 8.5173 164.132 8.73281C163.822 8.80016 163.425 8.91465 162.94 9.07628L166.011 0.913801H174.941Z" fill="white"/>
</svg>
