<svg width="292" height="24" viewBox="0 0 292 24" fill="none" xmlns="http://www.w3.org/2000/svg">
<path d="M21.8878 2.66115L18.3858 8.25097C17.2409 7.12851 15.8827 6.56729 14.3113 6.56729C13.7501 6.56729 13.2562 6.70198 12.8296 6.97137C12.4256 7.21831 12.2235 7.51015 12.2235 7.84688C12.2235 8.16117 13.4807 8.69995 15.995 9.46322C18.5093 10.2265 19.7664 11.6969 19.7664 13.8745C19.7664 16.5459 18.6439 18.8132 16.399 20.6765C14.1541 22.5398 11.4266 23.4714 8.21636 23.4714C6.37553 23.4714 4.50104 23.101 2.59287 22.3602C1.96429 22.1133 1.20102 21.7429 0.303062 21.249L4.2092 15.1204C5.80308 16.6245 7.43064 17.3765 9.09187 17.3765C9.72044 17.3765 10.248 17.2418 10.6745 16.9724C11.1235 16.703 11.348 16.3439 11.348 15.8949C11.348 15.5132 10.1021 15.0081 7.61023 14.3796C5.14084 13.751 3.90614 12.3479 3.90614 10.1704C3.90614 7.63362 5.00614 5.42238 7.20615 3.53666C9.42861 1.62849 12.1 0.674407 15.2205 0.674407C16.545 0.674407 17.7011 0.820326 18.6888 1.11216C19.6766 1.404 20.7429 1.92033 21.8878 2.66115ZM42.43 6.97137C42.43 9.55301 41.5433 11.7642 39.7698 13.6051C37.9963 15.4459 35.8637 16.3663 33.3718 16.3663H29.23L27.7147 23H19.8351L24.9198 0.97747H35.6616C37.727 0.97747 39.3657 1.52747 40.578 2.62748C41.8127 3.70503 42.43 5.153 42.43 6.97137ZM34.7188 8.14995C34.7188 7.76831 34.5841 7.46525 34.3147 7.24076C34.0453 7.01627 33.6861 6.90402 33.2371 6.90402H31.4524L30.5769 10.7765H32.0249C32.7882 10.7765 33.428 10.5295 33.9443 10.0357C34.4606 9.54179 34.7188 8.91321 34.7188 8.14995ZM67.0988 9.02546C67.0988 13.0438 65.6621 16.4673 62.7886 19.2959C59.9376 22.102 56.4019 23.5051 52.1814 23.5051C49.1733 23.5051 46.7937 22.7531 45.0426 21.249C43.3141 19.7224 42.4498 17.6571 42.4498 15.053C42.4498 11.1244 43.9202 7.73464 46.861 4.88361C49.8243 2.01013 53.36 0.573388 57.4682 0.573388C60.4539 0.573388 62.7998 1.33666 64.506 2.86319C66.2346 4.36728 67.0988 6.42137 67.0988 9.02546ZM58.8151 10.7091C58.8151 9.76628 58.557 9.01423 58.0406 8.45301C57.5243 7.89178 56.7947 7.61117 55.8519 7.61117C54.5049 7.61117 53.3039 8.17239 52.2488 9.29485C51.1937 10.4173 50.6661 11.7418 50.6661 13.2683C50.6661 14.2112 50.9467 14.9745 51.508 15.5581C52.0692 16.1418 52.8325 16.4336 53.7978 16.4336C55.1447 16.4336 56.3121 15.8836 57.2998 14.7836C58.31 13.6612 58.8151 12.303 58.8151 10.7091ZM88.8567 6.83668C88.8567 8.56525 88.3516 10.1255 87.3414 11.5173C86.3536 12.8867 85.0179 13.8408 83.3342 14.3796L87.0383 23H77.9465L76.0607 15.7602L74.3771 23H66.4638L71.5485 0.97747H81.9536C84.0638 0.97747 85.7363 1.51625 86.971 2.5938C88.2281 3.67136 88.8567 5.08565 88.8567 6.83668ZM80.9097 8.41933C80.9097 7.40913 80.3261 6.90402 79.1587 6.90402H78.1148L77.2393 10.8102H78.2832C79.0465 10.8102 79.675 10.5744 80.1689 10.103C80.6628 9.63158 80.9097 9.07036 80.9097 8.41933ZM108.196 0.97747L106.546 8.18362H102.101L98.6668 23H90.8208L94.2555 8.0826H89.8443L91.4943 0.97747H108.196ZM125.355 2.66115L121.853 8.25097C120.708 7.12851 119.35 6.56729 117.779 6.56729C117.217 6.56729 116.724 6.70198 116.297 6.97137C115.893 7.21831 115.691 7.51015 115.691 7.84688C115.691 8.16117 116.948 8.69995 119.462 9.46322C121.977 10.2265 123.234 11.6969 123.234 13.8745C123.234 16.5459 122.111 18.8132 119.866 20.6765C117.621 22.5398 114.894 23.4714 111.684 23.4714C109.843 23.4714 107.968 23.101 106.06 22.3602C105.432 22.1133 104.668 21.7429 103.77 21.249L107.677 15.1204C109.27 16.6245 110.898 17.3765 112.559 17.3765C113.188 17.3765 113.715 17.2418 114.142 16.9724C114.591 16.703 114.815 16.3439 114.815 15.8949C114.815 15.5132 113.569 15.0081 111.078 14.3796C108.608 13.751 107.373 12.3479 107.373 10.1704C107.373 7.63362 108.474 5.42238 110.674 3.53666C112.896 1.62849 115.567 0.674407 118.688 0.674407C120.012 0.674407 121.168 0.820326 122.156 1.11216C123.144 1.404 124.21 1.92033 125.355 2.66115Z" fill="#08969F"/>
<path d="M148.894 0.97747L135.997 16.1979H144.348L142.766 23H121.551L134.583 7.57749H126.973L128.488 0.97747H148.894ZM171.487 9.02546C171.487 13.0438 170.05 16.4673 167.177 19.2959C164.326 22.102 160.79 23.5051 156.57 23.5051C153.561 23.5051 151.182 22.7531 149.431 21.249C147.702 19.7224 146.838 17.6571 146.838 15.053C146.838 11.1244 148.308 7.73464 151.249 4.88361C154.212 2.01013 157.748 0.573388 161.856 0.573388C164.842 0.573388 167.188 1.33666 168.894 2.86319C170.623 4.36728 171.487 6.42137 171.487 9.02546ZM163.203 10.7091C163.203 9.76628 162.945 9.01423 162.429 8.45301C161.912 7.89178 161.183 7.61117 160.24 7.61117C158.893 7.61117 157.692 8.17239 156.637 9.29485C155.582 10.4173 155.054 11.7418 155.054 13.2683C155.054 14.2112 155.335 14.9745 155.896 15.5581C156.457 16.1418 157.221 16.4336 158.186 16.4336C159.533 16.4336 160.7 15.8836 161.688 14.7836C162.698 13.6612 163.203 12.303 163.203 10.7091ZM198.431 0.97747L193.346 23H185.298L181.156 12.2244L178.698 23H170.852L175.937 0.97747H183.816L188.093 12.0898L190.652 0.97747H198.431ZM215.691 0.97747L214.311 6.90402H207.576L207.104 9.02546H213.233L211.886 14.7836H205.757L205.286 16.8041H212.223L210.808 23H195.958L201.043 0.97747H215.691ZM245.76 5.62443C245.76 6.83668 245.39 7.9479 244.649 8.95811C243.931 9.94587 242.965 10.6867 241.753 11.1806C243.571 11.8091 244.481 13.0663 244.481 14.952C244.481 17.3092 243.403 19.3184 241.248 20.9796C239.093 22.6184 236.287 23.4378 232.829 23.4378C226.993 23.4378 224.074 21.2826 224.074 16.9724C224.074 16.6132 224.108 16.153 224.175 15.5918C224.175 15.502 224.198 15.3561 224.243 15.1541H232.291L232.19 15.8612C232.19 17.0959 232.773 17.7132 233.941 17.7132C234.704 17.7132 235.333 17.4551 235.826 16.9388C236.32 16.4224 236.567 15.7714 236.567 14.9857C236.567 14.1102 235.916 13.6724 234.614 13.6724L233.941 13.7398L235.018 9.16015L235.523 9.2275C236.129 9.2275 236.646 9.02546 237.072 8.62138C237.499 8.21729 237.712 7.74586 237.712 7.20709C237.712 6.51116 237.342 6.1632 236.601 6.1632C235.658 6.1632 235.007 6.72443 234.648 7.84688H226.836C227.644 5.48973 228.935 3.69381 230.708 2.45911C232.571 1.15706 234.928 0.506039 237.779 0.506039C240.294 0.506039 242.247 0.97747 243.639 1.92033C245.053 2.84074 245.76 4.07544 245.76 5.62443ZM268.974 0.97747L260.151 7.61117C260.51 7.52137 260.791 7.45402 260.993 7.40913C261.622 7.27443 262.115 7.20709 262.475 7.20709C264.091 7.20709 265.37 7.68974 266.313 8.65505C267.256 9.62036 267.728 10.8887 267.728 12.4602C267.728 15.5806 266.538 18.1959 264.158 20.3061C261.779 22.4163 258.838 23.4714 255.336 23.4714C252.575 23.4714 250.408 22.8316 248.837 21.552C247.288 20.25 246.513 18.4765 246.513 16.2316C246.513 12.8642 248.343 9.60913 252.002 6.46627L258.467 0.97747H268.974ZM259.915 13.8745C259.915 13.2683 259.713 12.7745 259.309 12.3928C258.905 12.0112 258.389 11.8204 257.76 11.8204C256.907 11.8204 256.099 12.1796 255.336 12.8979C254.595 13.5938 254.225 14.3571 254.225 15.1877C254.225 15.8163 254.427 16.3214 254.831 16.703C255.257 17.0622 255.807 17.2418 256.481 17.2418C257.379 17.2418 258.176 16.9163 258.871 16.2653C259.567 15.6143 259.915 14.8173 259.915 13.8745ZM291.177 0.97747L289.763 7.17341H280.368L279.526 9.46322C279.997 9.32852 280.379 9.23872 280.671 9.19383C281.658 8.99178 282.455 8.89076 283.062 8.89076C285.015 8.89076 286.541 9.35097 287.641 10.2714C288.764 11.1693 289.325 12.404 289.325 13.9755C289.325 16.6469 288.124 18.903 285.722 20.7439C283.32 22.5622 280.21 23.4714 276.394 23.4714C274.419 23.4714 272.51 23.202 270.67 22.6633C270.063 22.4837 269.323 22.2031 268.447 21.8214L270.905 15.3898C271.601 15.8387 272.196 16.1643 272.69 16.3663C274.194 17.0173 275.698 17.3428 277.202 17.3428C278.347 17.3428 279.29 17.1632 280.031 16.8041C280.794 16.4449 281.176 15.9734 281.176 15.3898C281.176 14.8061 280.839 14.3459 280.166 14.0092C279.515 13.65 278.549 13.4704 277.27 13.4704C276.08 13.4704 274.71 13.65 273.161 14.0092C272.645 14.1214 271.983 14.3122 271.175 14.5816L276.293 0.97747H291.177Z" fill="white"/>
</svg>
