<svg width="295" height="41" viewBox="0 0 295 41" fill="none" xmlns="http://www.w3.org/2000/svg">
<g clip-path="url(#clip0_122_389)">
<path d="M26.8887 11.6611L23.3866 17.2509C22.2417 16.1285 20.8836 15.5672 19.3121 15.5672C18.7509 15.5672 18.257 15.7019 17.8305 15.9713C17.4264 16.2182 17.2244 16.5101 17.2244 16.8468C17.2244 17.1611 18.4815 17.6999 20.9958 18.4632C23.5101 19.2264 24.7673 20.6968 24.7673 22.8744C24.7673 25.5458 23.6448 27.8132 21.3999 29.6765C19.155 31.5397 16.4274 32.4714 13.2172 32.4714C11.3764 32.4714 9.50189 32.101 7.59372 31.3601C6.96515 31.1132 6.20188 30.7428 5.30392 30.2489L9.21005 24.1203C10.8039 25.6244 12.4315 26.3764 14.0927 26.3764C14.7213 26.3764 15.2489 26.2418 15.6754 25.9724C16.1244 25.703 16.3489 25.3438 16.3489 24.8948C16.3489 24.5132 15.1029 24.0081 12.6111 23.3795C10.1417 22.7509 8.90699 21.3479 8.90699 19.1703C8.90699 16.6336 10.007 14.4223 12.207 12.5366C14.4295 10.6284 17.1009 9.67435 20.2213 9.67435C21.5458 9.67435 22.7019 9.82027 23.6897 10.1121C24.6775 10.4039 25.7438 10.9203 26.8887 11.6611ZM47.4309 15.9713C47.4309 18.553 46.5442 20.7642 44.7707 22.605C42.9972 24.4458 40.8645 25.3662 38.3727 25.3662H34.2308L32.7155 31.9999H24.8359L29.9206 9.97741H40.6625C42.7278 9.97741 44.3666 10.5274 45.5788 11.6274C46.8135 12.705 47.4309 14.1529 47.4309 15.9713ZM39.7196 17.1499C39.7196 16.7683 39.5849 16.4652 39.3156 16.2407C39.0462 16.0162 38.687 15.904 38.238 15.904H36.4533L35.5778 19.7764H37.0258C37.789 19.7764 38.4288 19.5295 38.9451 19.0356C39.4615 18.5417 39.7196 17.9132 39.7196 17.1499ZM72.0997 18.0254C72.0997 22.0438 70.663 25.4673 67.7895 28.2958C64.9384 31.102 61.4027 32.505 57.1823 32.505C54.1741 32.505 51.7945 31.753 50.0435 30.2489C48.3149 28.7224 47.4506 26.6571 47.4506 24.053C47.4506 20.1244 48.921 16.7346 51.8619 13.8835C54.8251 11.0101 58.3609 9.57333 62.469 9.57333C65.4548 9.57333 67.8007 10.3366 69.5068 11.8631C71.2354 13.3672 72.0997 15.4213 72.0997 18.0254ZM63.816 19.7091C63.816 18.7662 63.5578 18.0142 63.0415 17.4529C62.5252 16.8917 61.7956 16.6111 60.8527 16.6111C59.5058 16.6111 58.3047 17.1723 57.2496 18.2948C56.1945 19.4172 55.667 20.7417 55.667 22.2683C55.667 23.2111 55.9476 23.9744 56.5088 24.5581C57.07 25.1418 57.8333 25.4336 58.7986 25.4336C60.1456 25.4336 61.3129 24.8836 62.3007 23.7836C63.3109 22.6611 63.816 21.303 63.816 19.7091ZM93.8576 15.8366C93.8576 17.5652 93.3525 19.1254 92.3423 20.5172C91.3545 21.8866 90.0188 22.8407 88.3351 23.3795L92.0392 31.9999H82.9473L81.0616 24.7601L79.3779 31.9999H71.4646L76.5493 9.97741H86.9545C89.0647 9.97741 90.7371 10.5162 91.9718 11.5937C93.229 12.6713 93.8576 14.0856 93.8576 15.8366ZM85.9106 17.4193C85.9106 16.4091 85.3269 15.904 84.1596 15.904H83.1157L82.2402 19.8101H83.2841C84.0473 19.8101 84.6759 19.5744 85.1698 19.103C85.6637 18.6315 85.9106 18.0703 85.9106 17.4193ZM113.197 9.97741L111.547 17.1836H107.102L103.668 31.9999H95.8217L99.2564 17.0825H94.8451L96.4951 9.97741H113.197ZM130.356 11.6611L126.854 17.2509C125.709 16.1285 124.351 15.5672 122.779 15.5672C122.218 15.5672 121.724 15.7019 121.298 15.9713C120.894 16.2182 120.692 16.5101 120.692 16.8468C120.692 17.1611 121.949 17.6999 124.463 18.4632C126.977 19.2264 128.235 20.6968 128.235 22.8744C128.235 25.5458 127.112 27.8132 124.867 29.6765C122.622 31.5397 119.895 32.4714 116.685 32.4714C114.844 32.4714 112.969 32.101 111.061 31.3601C110.433 31.1132 109.669 30.7428 108.771 30.2489L112.677 24.1203C114.271 25.6244 115.899 26.3764 117.56 26.3764C118.189 26.3764 118.716 26.2418 119.143 25.9724C119.592 25.703 119.816 25.3438 119.816 24.8948C119.816 24.5132 118.57 24.0081 116.078 23.3795C113.609 22.7509 112.374 21.3479 112.374 19.1703C112.374 16.6336 113.474 14.4223 115.674 12.5366C117.897 10.6284 120.568 9.67435 123.689 9.67435C125.013 9.67435 126.169 9.82027 127.157 10.1121C128.145 10.4039 129.211 10.9203 130.356 11.6611Z" fill="#08969F"/>
<path d="M153.895 9.97741L140.998 25.1979H149.349L147.767 31.9999H126.552L139.584 16.5774H131.974L133.489 9.97741H153.895ZM176.488 18.0254C176.488 22.0438 175.051 25.4673 172.178 28.2958C169.327 31.102 165.791 32.505 161.57 32.505C158.562 32.505 156.183 31.753 154.432 30.2489C152.703 28.7224 151.839 26.6571 151.839 24.053C151.839 20.1244 153.309 16.7346 156.25 13.8835C159.213 11.0101 162.749 9.57333 166.857 9.57333C169.843 9.57333 172.189 10.3366 173.895 11.8631C175.624 13.3672 176.488 15.4213 176.488 18.0254ZM168.204 19.7091C168.204 18.7662 167.946 18.0142 167.43 17.4529C166.913 16.8917 166.184 16.6111 165.241 16.6111C163.894 16.6111 162.693 17.1723 161.638 18.2948C160.583 19.4172 160.055 20.7417 160.055 22.2683C160.055 23.2111 160.336 23.9744 160.897 24.5581C161.458 25.1418 162.221 25.4336 163.187 25.4336C164.534 25.4336 165.701 24.8836 166.689 23.7836C167.699 22.6611 168.204 21.303 168.204 19.7091ZM203.431 9.97741L198.347 31.9999H190.299L186.157 21.2244L183.699 31.9999H175.853L180.937 9.97741H188.817L193.094 21.0897L195.653 9.97741H203.431ZM220.692 9.97741L219.311 15.904H212.577L212.105 18.0254H218.234L216.887 23.7836H210.758L210.287 25.804H217.224L215.809 31.9999H200.959L206.044 9.97741H220.692ZM250.761 14.6244C250.761 15.8366 250.391 16.9478 249.65 17.9581C248.931 18.9458 247.966 19.6866 246.754 20.1805C248.572 20.8091 249.481 22.0662 249.481 23.952C249.481 26.3091 248.404 28.3183 246.249 29.9795C244.094 31.6183 241.287 32.4377 237.83 32.4377C231.994 32.4377 229.075 30.2826 229.075 25.9724C229.075 25.6132 229.109 25.153 229.176 24.5917C229.176 24.502 229.199 24.356 229.244 24.154H237.292L237.191 24.8611C237.191 26.0958 237.774 26.7132 238.942 26.7132C239.705 26.7132 240.333 26.455 240.827 25.9387C241.321 25.4224 241.568 24.7713 241.568 23.9856C241.568 23.1101 240.917 22.6724 239.615 22.6724L238.942 22.7397L240.019 18.1601L240.524 18.2274C241.13 18.2274 241.647 18.0254 242.073 17.6213C242.5 17.2172 242.713 16.7458 242.713 16.207C242.713 15.5111 242.343 15.1631 241.602 15.1631C240.659 15.1631 240.008 15.7244 239.649 16.8468H231.836C232.645 14.4897 233.935 12.6937 235.709 11.459C237.572 10.157 239.929 9.50598 242.78 9.50598C245.295 9.50598 247.248 9.97741 248.64 10.9203C250.054 11.8407 250.761 13.0754 250.761 14.6244ZM273.974 9.97741L265.152 16.6111C265.511 16.5213 265.792 16.454 265.994 16.4091C266.622 16.2744 267.116 16.207 267.475 16.207C269.092 16.207 270.371 16.6897 271.314 17.655C272.257 18.6203 272.729 19.8887 272.729 21.4601C272.729 24.5805 271.539 27.1958 269.159 29.3061C266.78 31.4163 263.839 32.4714 260.337 32.4714C257.575 32.4714 255.409 31.8316 253.838 30.552C252.289 29.2499 251.514 27.4765 251.514 25.2315C251.514 21.8642 253.344 18.6091 257.003 15.4662L263.468 9.97741H273.974ZM264.916 22.8744C264.916 22.2683 264.714 21.7744 264.31 21.3928C263.906 21.0111 263.39 20.8203 262.761 20.8203C261.908 20.8203 261.1 21.1795 260.337 21.8979C259.596 22.5938 259.225 23.357 259.225 24.1877C259.225 24.8162 259.427 25.3213 259.832 25.703C260.258 26.0622 260.808 26.2418 261.482 26.2418C262.379 26.2418 263.176 25.9162 263.872 25.2652C264.568 24.6142 264.916 23.8173 264.916 22.8744ZM296.178 9.97741L294.763 16.1733H285.368L284.527 18.4632C284.998 18.3285 285.38 18.2387 285.672 18.1938C286.659 17.9917 287.456 17.8907 288.062 17.8907C290.015 17.8907 291.542 18.3509 292.642 19.2713C293.764 20.1693 294.326 21.404 294.326 22.9754C294.326 25.6469 293.125 27.903 290.723 29.7438C288.321 31.5622 285.211 32.4714 281.395 32.4714C279.419 32.4714 277.511 32.202 275.67 31.6632C275.064 31.4836 274.324 31.203 273.448 30.8214L275.906 24.3897C276.602 24.8387 277.197 25.1642 277.691 25.3662C279.195 26.0173 280.699 26.3428 282.203 26.3428C283.348 26.3428 284.291 26.1632 285.032 25.804C285.795 25.4448 286.177 24.9734 286.177 24.3897C286.177 23.806 285.84 23.3458 285.166 23.0091C284.515 22.6499 283.55 22.4703 282.27 22.4703C281.081 22.4703 279.711 22.6499 278.162 23.0091C277.646 23.1213 276.984 23.3122 276.176 23.5815L281.294 9.97741H296.178Z" fill="#354857"/>
</g>
<g clip-path="url(#clip1_122_389)">
<path d="M19.2398 11.661L15.7377 17.2508C14.5928 16.1284 13.2346 15.5672 11.6632 15.5672C11.102 15.5672 10.6081 15.7019 10.1816 15.9712C9.77748 16.2182 9.57544 16.51 9.57544 16.8468C9.57544 17.161 10.8326 17.6998 13.3469 18.4631C15.8612 19.2264 17.1183 20.6968 17.1183 22.8743C17.1183 25.5458 15.9959 27.8131 13.751 29.6764C11.5061 31.5397 8.7785 32.4713 5.56829 32.4713C3.72746 32.4713 1.85297 32.1009 -0.0552045 31.3601C-0.683778 31.1131 -1.44705 30.7427 -2.34501 30.2489L1.56113 24.1203C3.15501 25.6243 4.78257 26.3764 6.4438 26.3764C7.07237 26.3764 7.59993 26.2417 8.02646 25.9723C8.47544 25.7029 8.69993 25.3437 8.69993 24.8947C8.69993 24.5131 7.45401 24.008 4.96216 23.3794C2.49276 22.7509 1.25807 21.3478 1.25807 19.1702C1.25807 16.6335 2.35807 14.4223 4.55808 12.5365C6.78054 10.6284 9.45197 9.67429 12.5724 9.67429C13.8969 9.67429 15.053 9.8202 16.0408 10.112C17.0285 10.4039 18.0949 10.9202 19.2398 11.661ZM39.782 15.9712C39.782 18.5529 38.8952 20.7641 37.1218 22.6049C35.3483 24.4458 33.2156 25.3662 30.7238 25.3662H26.5819L25.0666 31.9999H17.187L22.2717 9.97735H33.0136C35.0789 9.97735 36.7177 10.5273 37.9299 11.6274C39.1646 12.7049 39.782 14.1529 39.782 15.9712ZM32.0707 17.1498C32.0707 16.7682 31.936 16.4651 31.6666 16.2406C31.3972 16.0161 31.0381 15.9039 30.5891 15.9039H28.8044L27.9289 19.7764H29.3768C30.1401 19.7764 30.7799 19.5294 31.2962 19.0355C31.8125 18.5417 32.0707 17.9131 32.0707 17.1498ZM64.4508 18.0253C64.4508 22.0437 63.014 25.4672 60.1405 28.2958C57.2895 31.1019 53.7538 32.505 49.5334 32.505C46.5252 32.505 44.1456 31.7529 42.3946 30.2489C40.666 28.7223 39.8017 26.657 39.8017 24.0529C39.8017 20.1243 41.2721 16.7345 44.2129 13.8835C47.1762 11.01 50.7119 9.57327 54.8201 9.57327C57.8058 9.57327 60.1518 10.3365 61.8579 11.8631C63.5865 13.3672 64.4508 15.4212 64.4508 18.0253ZM56.1671 19.709C56.1671 18.7662 55.9089 18.0141 55.3926 17.4529C54.8762 16.8917 54.1466 16.611 53.2038 16.611C51.8568 16.611 50.6558 17.1723 49.6007 18.2947C48.5456 19.4172 48.0181 20.7417 48.0181 22.2682C48.0181 23.2111 48.2987 23.9743 48.8599 24.558C49.4211 25.1417 50.1844 25.4335 51.1497 25.4335C52.4966 25.4335 53.664 24.8835 54.6518 23.7835C55.662 22.6611 56.1671 21.3029 56.1671 19.709ZM86.2086 15.8366C86.2086 17.5651 85.7035 19.1253 84.6933 20.5172C83.7056 21.8866 82.3698 22.8407 80.6862 23.3794L84.3903 31.9999H75.2984L73.4127 24.7601L71.729 31.9999H63.8157L68.9004 9.97735H79.3056C81.4158 9.97735 83.0882 10.5161 84.3229 11.5937C85.5801 12.6712 86.2086 14.0855 86.2086 15.8366ZM78.2617 17.4192C78.2617 16.409 77.678 15.9039 76.5106 15.9039H75.4668L74.5912 19.81H75.6351C76.3984 19.81 77.027 19.5743 77.5209 19.1029C78.0147 18.6315 78.2617 18.0702 78.2617 17.4192ZM105.548 9.97735L103.898 17.1835H99.4534L96.0187 31.9999H88.1727L91.6075 17.0825H87.1962L88.8462 9.97735H105.548ZM122.707 11.661L119.205 17.2508C118.06 16.1284 116.702 15.5672 115.131 15.5672C114.569 15.5672 114.075 15.7019 113.649 15.9712C113.245 16.2182 113.043 16.51 113.043 16.8468C113.043 17.161 114.3 17.6998 116.814 18.4631C119.329 19.2264 120.586 20.6968 120.586 22.8743C120.586 25.5458 119.463 27.8131 117.218 29.6764C114.973 31.5397 112.246 32.4713 109.036 32.4713C107.195 32.4713 105.32 32.1009 103.412 31.3601C102.784 31.1131 102.02 30.7427 101.122 30.2489L105.028 24.1203C106.622 25.6243 108.25 26.3764 109.911 26.3764C110.54 26.3764 111.067 26.2417 111.494 25.9723C111.943 25.7029 112.167 25.3437 112.167 24.8947C112.167 24.5131 110.921 24.008 108.43 23.3794C105.96 22.7509 104.725 21.3478 104.725 19.1702C104.725 16.6335 105.825 14.4223 108.025 12.5365C110.248 10.6284 112.919 9.67429 116.04 9.67429C117.364 9.67429 118.52 9.8202 119.508 10.112C120.496 10.4039 121.562 10.9202 122.707 11.661Z" fill="#08969F"/>
<path d="M146.246 9.97735L133.349 25.1978H141.7L140.118 31.9999H118.903L131.935 16.5774H124.325L125.84 9.97735H146.246ZM168.839 18.0253C168.839 22.0437 167.402 25.4672 164.529 28.2958C161.678 31.1019 158.142 32.505 153.921 32.505C150.913 32.505 148.534 31.7529 146.783 30.2489C145.054 28.7223 144.19 26.657 144.19 24.0529C144.19 20.1243 145.66 16.7345 148.601 13.8835C151.564 11.01 155.1 9.57327 159.208 9.57327C162.194 9.57327 164.54 10.3365 166.246 11.8631C167.975 13.3672 168.839 15.4212 168.839 18.0253ZM160.555 19.709C160.555 18.7662 160.297 18.0141 159.781 17.4529C159.264 16.8917 158.535 16.611 157.592 16.611C156.245 16.611 155.044 17.1723 153.989 18.2947C152.934 19.4172 152.406 20.7417 152.406 22.2682C152.406 23.2111 152.687 23.9743 153.248 24.558C153.809 25.1417 154.573 25.4335 155.538 25.4335C156.885 25.4335 158.052 24.8835 159.04 23.7835C160.05 22.6611 160.555 21.3029 160.555 19.709ZM195.782 9.97735L190.698 31.9999H182.65L178.508 21.2243L176.05 31.9999H168.204L173.289 9.97735H181.168L185.445 21.0896L188.004 9.97735H195.782ZM213.043 9.97735L211.662 15.9039H204.928L204.456 18.0253H210.585L209.238 23.7835H203.109L202.638 25.8039H209.575L208.16 31.9999H193.31L198.395 9.97735H213.043ZM243.112 14.6243C243.112 15.8366 242.742 16.9478 242.001 17.958C241.282 18.9457 240.317 19.6866 239.105 20.1804C240.923 20.809 241.832 22.0662 241.832 23.9519C241.832 26.309 240.755 28.3182 238.6 29.9795C236.445 31.6182 233.639 32.4376 230.181 32.4376C224.345 32.4376 221.426 30.2825 221.426 25.9723C221.426 25.6131 221.46 25.1529 221.527 24.5917C221.527 24.5019 221.55 24.356 221.595 24.1539H229.643L229.542 24.8611C229.542 26.0958 230.125 26.7131 231.293 26.7131C232.056 26.7131 232.684 26.455 233.178 25.9386C233.672 25.4223 233.919 24.7713 233.919 23.9856C233.919 23.11 233.268 22.6723 231.966 22.6723L231.293 22.7396L232.37 18.16L232.875 18.2274C233.481 18.2274 233.998 18.0253 234.424 17.6213C234.851 17.2172 235.064 16.7457 235.064 16.207C235.064 15.511 234.694 15.1631 233.953 15.1631C233.01 15.1631 232.359 15.7243 232 16.8468H224.188C224.996 14.4896 226.286 12.6937 228.06 11.459C229.923 10.1569 232.28 9.50592 235.131 9.50592C237.646 9.50592 239.599 9.97735 240.991 10.9202C242.405 11.8406 243.112 13.0753 243.112 14.6243ZM266.326 9.97735L257.503 16.611C257.862 16.5212 258.143 16.4539 258.345 16.409C258.973 16.2743 259.467 16.207 259.826 16.207C261.443 16.207 262.722 16.6896 263.665 17.6549C264.608 18.6202 265.08 19.8886 265.08 21.46C265.08 24.5805 263.89 27.1958 261.51 29.306C259.131 31.4162 256.19 32.4713 252.688 32.4713C249.926 32.4713 247.76 31.8315 246.189 30.5519C244.64 29.2499 243.865 27.4764 243.865 25.2315C243.865 21.8641 245.695 18.609 249.354 15.4661L255.819 9.97735H266.326ZM257.267 22.8743C257.267 22.2682 257.065 21.7743 256.661 21.3927C256.257 21.0111 255.741 20.8202 255.112 20.8202C254.259 20.8202 253.451 21.1794 252.688 21.8978C251.947 22.5937 251.576 23.357 251.576 24.1876C251.576 24.8162 251.779 25.3213 252.183 25.7029C252.609 26.0621 253.159 26.2417 253.833 26.2417C254.731 26.2417 255.528 25.9162 256.223 25.2652C256.919 24.6141 257.267 23.8172 257.267 22.8743ZM288.529 9.97735L287.114 16.1733H277.72L276.878 18.4631C277.349 18.3284 277.731 18.2386 278.023 18.1937C279.01 17.9917 279.807 17.8906 280.413 17.8906C282.366 17.8906 283.893 18.3508 284.993 19.2713C286.115 20.1692 286.677 21.4039 286.677 22.9754C286.677 25.6468 285.476 27.9029 283.074 29.7437C280.672 31.5621 277.562 32.4713 273.746 32.4713C271.771 32.4713 269.862 32.2019 268.022 31.6631C267.415 31.4835 266.675 31.2029 265.799 30.8213L268.257 24.3896C268.953 24.8386 269.548 25.1641 270.042 25.3662C271.546 26.0172 273.05 26.3427 274.554 26.3427C275.699 26.3427 276.642 26.1631 277.383 25.8039C278.146 25.4448 278.528 24.9733 278.528 24.3896C278.528 23.806 278.191 23.3458 277.517 23.009C276.866 22.6498 275.901 22.4703 274.622 22.4703C273.432 22.4703 272.062 22.6498 270.513 23.009C269.997 23.1213 269.335 23.3121 268.527 23.5815L273.645 9.97735H288.529Z" fill="#354857"/>
</g>
<defs>
<clipPath id="clip0_122_389">
<rect width="222.242" height="41.009" fill="white"/>
</clipPath>
<clipPath id="clip1_122_389">
<rect width="75.4036" height="41.009" fill="white" transform="translate(219.597 -6.10352e-05)"/>
</clipPath>
</defs>
</svg>
