<svg width="406" height="391" viewBox="0 0 406 391" fill="none" xmlns="http://www.w3.org/2000/svg">
<path d="M277.5 156C252.463 127.773 235.44 107.706 204.766 87.7593C174.091 67.8126 145.51 54.4833 119.537 49.5405C93.5637 44.5976 73.0199 48.2186 60.5031 59.9456C47.9863 71.6727 44.0587 90.979 49.217 115.423C54.3754 139.868 68.3879 168.352 89.4826 197.274C110.577 226.196 137.807 254.258 167.728 277.909C197.649 301.561 231.622 322.27 257 331C282.377 339.729 317.258 345.842 335 339.5C322.31 344.036 288.998 328.807 266 319C226.119 301.993 209.706 282.619 177.533 253.92C154.117 233.033 136.657 216.933 121.569 196.247C106.482 175.561 96.4593 155.188 92.7699 137.704C89.0805 120.221 91.8896 106.412 100.842 98.0246C109.795 89.637 123.761 85.8954 142.338 89.4307C160.915 92.9661 194.042 98.6466 215.982 112.913C237.921 127.18 259.592 135.811 277.5 156Z" fill="#17A6DC"/>
<path d="M215.073 262.297C214.221 262.297 213.497 261.999 212.901 261.403C212.305 260.807 212.008 260.084 212.008 259.232V253.656L215.967 254.592V256.806C215.967 257.232 216.108 257.6 216.392 257.913C216.704 258.196 217.073 258.338 217.499 258.338H222.352C222.749 258.338 223.104 258.196 223.416 257.913C223.728 257.6 223.885 257.232 223.885 256.806V249.314C223.885 248.888 223.728 248.533 223.416 248.249C223.104 247.937 222.749 247.781 222.352 247.781H218.436L219.33 243.822H222.352C222.749 243.822 223.104 243.68 223.416 243.396C223.728 243.084 223.885 242.715 223.885 242.289V237.947C223.885 237.55 223.728 237.209 223.416 236.926C223.104 236.613 222.749 236.457 222.352 236.457H217.371V236.415C216.974 236.443 216.633 236.613 216.35 236.926C216.094 237.209 215.967 237.55 215.967 237.947V241.991L212.008 241.098V235.521C212.008 234.698 212.305 233.988 212.901 233.392C213.497 232.796 214.221 232.498 215.073 232.498H224.779C225.602 232.498 226.311 232.796 226.907 233.392C227.503 233.988 227.801 234.698 227.801 235.521V244.716C227.801 245.142 227.744 245.511 227.631 245.823C227.744 246.135 227.801 246.49 227.801 246.887V259.232C227.801 260.084 227.503 260.807 226.907 261.403C226.311 261.999 225.602 262.297 224.779 262.297H215.073ZM236.15 262.297C235.298 262.297 234.575 261.999 233.979 261.403C233.383 260.807 233.085 260.084 233.085 259.232V235.563C233.085 234.712 233.383 233.988 233.979 233.392C234.575 232.796 235.298 232.498 236.15 232.498H245.856C246.679 232.498 247.388 232.796 247.984 233.392C248.609 233.988 248.921 234.712 248.921 235.563V240.204L244.962 241.14V237.99C244.962 237.564 244.806 237.209 244.493 236.926C244.21 236.613 243.855 236.457 243.429 236.457H238.576C238.15 236.457 237.782 236.613 237.469 236.926C237.186 237.209 237.044 237.564 237.044 237.99V243.822H245.856C246.679 243.822 247.388 244.12 247.984 244.716C248.609 245.312 248.921 246.036 248.921 246.887V259.232C248.921 260.084 248.609 260.807 247.984 261.403C247.388 261.999 246.679 262.297 245.856 262.297H236.15ZM238.576 258.338H243.429C243.855 258.338 244.21 258.196 244.493 257.913C244.806 257.6 244.962 257.232 244.962 256.806V249.314C244.962 248.888 244.806 248.533 244.493 248.249C244.21 247.937 243.855 247.781 243.429 247.781H238.576C238.15 247.781 237.782 247.937 237.469 248.249C237.186 248.533 237.044 248.888 237.044 249.314V256.806C237.044 257.232 237.186 257.6 237.469 257.913C237.782 258.196 238.15 258.338 238.576 258.338ZM256.81 262.297C255.987 262.297 255.278 261.999 254.682 261.403C254.086 260.807 253.788 260.098 253.788 259.275V253.656L257.747 254.635V256.806C257.747 257.232 257.889 257.6 258.172 257.913C258.485 258.196 258.853 258.338 259.279 258.338H264.09C264.515 258.338 264.87 258.196 265.154 257.913C265.466 257.6 265.622 257.232 265.622 256.806V249.356C265.622 248.93 265.466 248.576 265.154 248.292C264.87 247.98 264.515 247.824 264.09 247.824H256.81C255.987 247.824 255.278 247.526 254.682 246.93C254.086 246.334 253.788 245.61 253.788 244.759V232.498H269.581V236.457H257.747V242.332C257.747 242.758 257.889 243.127 258.172 243.439C258.485 243.723 258.853 243.865 259.279 243.865H266.559C267.382 243.865 268.091 244.163 268.687 244.759C269.283 245.355 269.581 246.064 269.581 246.887V259.275C269.581 260.098 269.283 260.807 268.687 261.403C268.091 261.999 267.382 262.297 266.559 262.297H256.81Z" fill="url(#paint0_linear_206_152)"/>
<path d="M198.794 168.983C196.546 168.405 194.218 168.116 191.81 168.116C189.37 168.116 187.411 168.71 185.934 169.898C184.425 171.118 183.67 172.836 183.67 175.052C183.67 177.267 184.232 179.001 185.356 180.253C186.48 181.473 188.679 182.549 191.954 183.48L200.768 186.033C205.488 187.413 209.245 189.581 212.038 192.535C214.832 195.457 216.229 199.743 216.229 205.394C216.229 209.858 215.121 213.711 212.905 216.954C210.69 220.197 207.672 222.701 203.851 224.467C200.062 226.201 195.775 227.068 190.991 227.068C187.042 227.068 182.98 226.57 178.806 225.575C174.632 224.547 171.164 223.119 168.402 221.288V218.977C168.402 218.238 168.499 217.114 168.691 215.605C168.916 214.096 169.221 212.523 169.607 210.885C170.024 209.215 170.506 207.803 171.051 206.647H180.443C181.503 208.734 182.129 211.463 182.322 214.834C184.537 215.83 187.218 216.328 190.365 216.328C193.415 216.328 195.92 215.605 197.878 214.16C199.869 212.715 200.865 210.644 200.865 207.947C200.865 206.663 200.768 205.619 200.576 204.816C200.383 203.982 199.773 203.099 198.745 202.168C197.718 201.236 196.257 200.466 194.363 199.856L184.2 196.918C173.861 193.996 168.691 187.413 168.691 177.171C168.691 173.189 169.671 169.721 171.629 166.767C173.62 163.813 176.382 161.518 179.914 159.88C183.445 158.242 187.555 157.424 192.243 157.424C199.275 157.424 206.13 159.013 212.809 162.192V164.456C212.809 165.194 212.697 166.334 212.472 167.875C212.279 169.384 211.974 170.958 211.557 172.595C211.172 174.233 210.69 175.629 210.112 176.785H200.768C199.644 175.18 198.986 172.579 198.794 168.983ZM241.975 168.116H232.824C232.342 171.68 231.523 174.506 230.368 176.593L220.976 176.015C219.531 173.51 218.808 169.625 218.808 164.359C218.808 162.176 219.033 160.137 219.483 158.242H267.55L268.513 166.045L239.904 208.959C238.106 211.72 236.26 213.887 234.365 215.461L233.306 216.231L233.787 217.339C236.741 216.729 239.968 216.424 243.468 216.424H255.509C255.926 212.86 256.745 210.034 257.965 207.947L267.357 208.525C268.802 211.03 269.524 214.915 269.524 220.181C269.524 222.428 269.284 224.467 268.802 226.297H217.893L216.93 218.495L245.539 175.581C247.337 172.82 249.215 170.653 251.174 169.079L252.137 168.309L251.656 167.201C248.702 167.811 245.475 168.116 241.975 168.116Z" fill="url(#paint1_linear_206_152)"/>
<path d="M283.5 162.379C258.325 134.302 242.359 113.826 211.897 93.6474C181.434 73.4692 153.187 59.7751 127.704 54.2969C102.221 48.8188 82.2611 51.8025 70.3476 62.8708C58.4341 73.9391 55.1023 92.5949 60.7736 116.479C66.445 140.363 80.8646 168.403 102.209 197.052C123.554 225.702 150.865 253.674 180.688 277.432C210.511 301.191 244.897 320.156 269.896 329.297C294.896 338.439 322.242 344.139 339.397 338.439C327.127 342.516 299.935 332.756 278.028 321C240.057 300.621 220.5 283.5 189.636 254.38C166.812 232.847 148.771 217.38 133.505 196.889C118.238 176.398 107.925 156.343 103.868 139.26C99.8121 122.177 102.195 108.834 110.716 100.918C119.237 93.0011 132.773 89.7291 151 93.6473C169.226 97.5654 201.712 103.946 223.5 118.379C245.288 132.811 265.494 142.297 283.5 162.379Z" fill="#E15827"/>
<defs>
<linearGradient id="paint0_linear_206_152" x1="240.868" y1="232.297" x2="240.868" y2="262.297" gradientUnits="userSpaceOnUse">
<stop offset="0.291667" stop-color="#E15827"/>
<stop offset="0.557292" stop-color="#17A6DC"/>
</linearGradient>
<linearGradient id="paint1_linear_206_152" x1="218.868" y1="156.297" x2="218.868" y2="226.297" gradientUnits="userSpaceOnUse">
<stop offset="0.5" stop-color="#E15827"/>
<stop offset="0.833333" stop-color="#17A6DC"/>
</linearGradient>
</defs>
</svg>
