<svg width="405" height="390" viewBox="0 0 405 390" fill="none" xmlns="http://www.w3.org/2000/svg">
<path d="M227.157 278C226.238 278 225.457 277.678 224.814 277.035C224.17 276.392 223.849 275.611 223.849 274.692V268.672L228.122 269.683V272.073C228.122 272.532 228.275 272.93 228.582 273.267C228.918 273.574 229.317 273.727 229.776 273.727H235.014C235.443 273.727 235.826 273.574 236.163 273.267C236.5 272.93 236.668 272.532 236.668 272.073V263.986C236.668 263.526 236.5 263.143 236.163 262.837C235.826 262.5 235.443 262.332 235.014 262.332H230.787L231.752 258.058H235.014C235.443 258.058 235.826 257.905 236.163 257.599C236.5 257.262 236.668 256.864 236.668 256.404V251.717C236.668 251.289 236.5 250.921 236.163 250.615C235.826 250.278 235.443 250.109 235.014 250.109H229.638V250.063C229.209 250.094 228.842 250.278 228.536 250.615C228.26 250.921 228.122 251.289 228.122 251.717V256.083L223.849 255.118V249.098C223.849 248.21 224.17 247.444 224.814 246.801C225.457 246.158 226.238 245.836 227.157 245.836H237.633C238.522 245.836 239.288 246.158 239.931 246.801C240.574 247.444 240.896 248.21 240.896 249.098V259.023C240.896 259.483 240.834 259.881 240.712 260.218C240.834 260.555 240.896 260.938 240.896 261.367V274.692C240.896 275.611 240.574 276.392 239.931 277.035C239.288 277.678 238.522 278 237.633 278H227.157ZM249.907 278C248.988 278 248.207 277.678 247.564 277.035C246.92 276.392 246.599 275.611 246.599 274.692V249.144C246.599 248.225 246.92 247.444 247.564 246.801C248.207 246.158 248.988 245.836 249.907 245.836H260.383C261.272 245.836 262.037 246.158 262.681 246.801C263.355 247.444 263.692 248.225 263.692 249.144V254.153L259.418 255.164V251.763C259.418 251.304 259.25 250.921 258.913 250.615C258.607 250.278 258.224 250.109 257.764 250.109H252.526C252.067 250.109 251.668 250.278 251.331 250.615C251.025 250.921 250.872 251.304 250.872 251.763V258.058H260.383C261.272 258.058 262.037 258.38 262.681 259.023C263.355 259.667 263.692 260.448 263.692 261.367V274.692C263.692 275.611 263.355 276.392 262.681 277.035C262.037 277.678 261.272 278 260.383 278H249.907ZM252.526 273.727H257.764C258.224 273.727 258.607 273.574 258.913 273.267C259.25 272.93 259.418 272.532 259.418 272.073V263.986C259.418 263.526 259.25 263.143 258.913 262.837C258.607 262.5 258.224 262.332 257.764 262.332H252.526C252.067 262.332 251.668 262.5 251.331 262.837C251.025 263.143 250.872 263.526 250.872 263.986V272.073C250.872 272.532 251.025 272.93 251.331 273.267C251.668 273.574 252.067 273.727 252.526 273.727ZM272.207 278C271.319 278 270.553 277.678 269.91 277.035C269.266 276.392 268.945 275.626 268.945 274.738V268.672L273.218 269.729V272.073C273.218 272.532 273.371 272.93 273.678 273.267C274.014 273.574 274.413 273.727 274.872 273.727H280.064C280.524 273.727 280.907 273.574 281.213 273.267C281.55 272.93 281.719 272.532 281.719 272.073V264.032C281.719 263.572 281.55 263.189 281.213 262.883C280.907 262.546 280.524 262.377 280.064 262.377H272.207C271.319 262.377 270.553 262.056 269.91 261.413C269.266 260.769 268.945 259.988 268.945 259.069V245.836H285.992V250.109H273.218V256.45C273.218 256.91 273.371 257.308 273.678 257.645C274.014 257.951 274.413 258.104 274.872 258.104H282.729C283.618 258.104 284.384 258.426 285.027 259.069C285.67 259.712 285.992 260.478 285.992 261.367V274.738C285.992 275.626 285.67 276.392 285.027 277.035C284.384 277.678 283.618 278 282.729 278H272.207Z" fill="url(#paint0_linear_200_150)"/>
<path d="M206.486 171.722C203.966 171.074 201.355 170.75 198.654 170.75C195.917 170.75 193.721 171.416 192.064 172.748C190.372 174.117 189.526 176.043 189.526 178.528C189.526 181.013 190.156 182.957 191.416 184.362C192.677 185.73 195.143 186.936 198.816 187.981L208.701 190.843C213.995 192.392 218.208 194.823 221.341 198.135C224.473 201.412 226.04 206.22 226.04 212.557C226.04 217.563 224.798 221.884 222.313 225.521C219.828 229.158 216.443 231.967 212.158 233.947C207.909 235.892 203.101 236.864 197.736 236.864C193.307 236.864 188.751 236.306 184.07 235.19C179.389 234.037 175.5 232.435 172.403 230.382V227.79C172.403 226.961 172.511 225.701 172.727 224.009C172.979 222.316 173.321 220.552 173.753 218.715C174.221 216.843 174.762 215.258 175.374 213.962H185.907C187.095 216.303 187.797 219.363 188.013 223.144C190.498 224.261 193.505 224.819 197.034 224.819C200.455 224.819 203.264 224.009 205.46 222.388C207.693 220.768 208.809 218.445 208.809 215.42C208.809 213.98 208.701 212.81 208.485 211.909C208.269 210.973 207.585 209.983 206.432 208.938C205.28 207.894 203.642 207.03 201.517 206.346L190.12 203.051C178.525 199.774 172.727 192.392 172.727 180.905C172.727 176.439 173.825 172.55 176.022 169.237C178.255 165.925 181.351 163.35 185.313 161.513C189.274 159.677 193.883 158.759 199.14 158.759C207.027 158.759 214.715 160.541 222.205 164.106V166.645C222.205 167.473 222.079 168.751 221.827 170.48C221.611 172.172 221.269 173.937 220.8 175.773C220.368 177.61 219.828 179.176 219.18 180.473H208.701C207.441 178.672 206.702 175.755 206.486 171.722ZM254.914 170.75H244.651C244.111 174.747 243.193 177.916 241.897 180.256L231.364 179.608C229.743 176.8 228.933 172.442 228.933 166.537C228.933 164.088 229.185 161.801 229.689 159.677H283.596L284.676 168.427L252.591 216.555C250.575 219.651 248.504 222.082 246.38 223.847L245.191 224.711L245.732 225.953C249.045 225.269 252.664 224.927 256.589 224.927H270.092C270.56 220.93 271.479 217.761 272.847 215.42L283.38 216.068C285.001 218.877 285.811 223.234 285.811 229.14C285.811 231.661 285.541 233.947 285.001 236H227.907L226.826 227.25L258.911 179.122C260.928 176.025 263.034 173.595 265.231 171.83L266.311 170.966L265.771 169.724C262.458 170.408 258.839 170.75 254.914 170.75Z" fill="url(#paint1_linear_200_150)"/>
<path d="M201.689 91.3375C213.706 99.1515 223.352 107.045 232.234 115.542C227.787 112.858 223.33 110.142 218.898 107.26C197.17 93.1311 165.366 87.1465 146.571 83.6098C145.435 83.3961 144.347 83.1914 143.312 82.9944C123.561 79.2356 107.633 83.0535 97.0435 92.9744C86.1108 103.217 83.4659 119.366 87.3533 137.788C91.2555 156.28 101.723 177.359 117.08 198.414C132.55 219.624 150.42 236.07 173.805 256.929C178.738 261.329 183.339 265.53 187.745 269.553C211.786 291.502 230.01 308.141 264.575 322.881C267.676 324.204 271.002 325.66 274.46 327.174C274.893 327.364 275.327 327.554 275.764 327.746C270.119 326.103 264.607 324.33 259.446 322.554C234.724 314.05 200.549 295.788 171.075 272.489C141.531 249.136 114.666 221.441 93.8924 192.959C73.0802 164.424 59.5223 136.664 54.5801 113.244C49.6232 89.7545 53.7124 72.8013 64.2408 62.9372C74.8922 52.9578 93.2636 49.1297 118.463 53.9254C143.443 58.6794 171.327 71.5937 201.689 91.3375Z" stroke="#17A6DC" stroke-width="11"/>
<path d="M283.363 162.317C258.198 134.251 242.238 113.782 211.787 93.6118C181.336 73.4414 153.1 59.7525 127.627 54.2764C102.154 48.8003 82.2013 51.7829 70.2923 62.847C58.3834 73.9111 55.0529 92.5597 60.7221 116.435C66.3912 140.31 80.8054 168.339 102.142 196.977C123.478 225.616 150.779 253.577 180.591 277.327C210.403 301.076 244.775 320.034 269.765 329.172C294.756 338.31 322.091 344.008 339.239 338.31C326.974 342.385 301.062 329.88 278.365 319.756C239.008 302.202 221.675 282.992 189.535 254.283C166.142 233.388 148.686 217.297 133.425 196.814C118.165 176.331 107.855 156.283 103.8 139.207C99.7456 122.131 102.808 103.674 111.326 95.761C119.843 87.8476 137.09 86.8462 155.309 90.7629C173.528 94.6796 201.606 103.907 223.386 118.334C245.166 132.76 265.364 142.243 283.363 162.317Z" fill="url(#paint2_linear_200_150)"/>
<defs>
<linearGradient id="paint0_linear_200_150" x1="255" y1="246" x2="255" y2="278" gradientUnits="userSpaceOnUse">
<stop offset="0.291667" stop-color="#E15827"/>
<stop offset="0.557292" stop-color="#02ADEF"/>
</linearGradient>
<linearGradient id="paint1_linear_200_150" x1="229" y1="157" x2="229" y2="236" gradientUnits="userSpaceOnUse">
<stop offset="0.5" stop-color="#E15827"/>
<stop offset="0.833333" stop-color="#02ADEF"/>
</linearGradient>
<linearGradient id="paint2_linear_200_150" x1="77.5" y1="95" x2="340.5" y2="375.5" gradientUnits="userSpaceOnUse">
<stop stop-color="#E56726"/>
<stop offset="0.260417" stop-color="#E56627"/>
<stop offset="0.536458" stop-color="#BB390A"/>
<stop offset="0.71875" stop-color="#AE2E00"/>
<stop offset="0.859375" stop-color="#C84314"/>
<stop offset="1" stop-color="#E15827" stop-opacity="0"/>
</linearGradient>
</defs>
</svg>
