<svg width="106" height="63" viewBox="0 0 106 63" fill="none" xmlns="http://www.w3.org/2000/svg">
<path d="M2.508 47.6996L2.266 50.9556V50.9996C2.266 51.139 2.31733 51.2306 2.42 51.2746L3.102 51.5606L2.992 52.5616H0.253L0.143 51.5826L0.649 51.2746L1.276 47.0286C1.28333 46.9773 1.287 46.915 1.287 46.8416C1.287 46.7536 1.265 46.6876 1.221 46.6436C1.18433 46.5996 1.111 46.5446 1.001 46.4786L0.495 46.1926L0.561 45.1476H3.718L5.291 50.2736L6.853 45.1476H9.801L9.845 46.3026L9.141 46.4786L9.735 50.7906C9.757 50.9373 9.78633 51.051 9.823 51.1316C9.867 51.2123 9.96233 51.3443 10.109 51.5276L10.34 51.8246L10.274 52.5616H6.996L6.897 51.5496L7.799 51.3186L7.425 47.6336L6.017 52.6056L4.136 52.7706L2.508 47.6996ZM12.9571 51.5826L13.2981 51.3736L15.8721 45.1366L17.7421 44.9716L19.9421 50.9116C20.0154 51.1023 20.0667 51.227 20.0961 51.2856C20.1254 51.3443 20.1804 51.425 20.2611 51.5276L20.4591 51.7806L20.3931 52.5616H17.3021L17.1921 51.5166L17.9731 51.3186L17.6211 50.2076L15.3881 50.2406L15.1461 50.9336C15.1241 50.9996 15.1131 51.0546 15.1131 51.0986C15.1131 51.15 15.1204 51.1903 15.1351 51.2196C15.1571 51.2416 15.1901 51.26 15.2341 51.2746L15.9931 51.5936L15.8831 52.5616H13.0011L12.9571 51.5826ZM16.5541 46.8526L15.8281 48.9646L17.2471 49.0306L16.5541 46.8526ZM23.1091 51.4396L23.9121 51.2196V47.0066C23.9121 46.816 23.8974 46.6913 23.8681 46.6326C23.8388 46.5666 23.7618 46.508 23.6371 46.4566L23.0871 46.1376L23.1201 45.1476H29.0931C29.1444 45.9176 29.1701 46.6693 29.1701 47.4026L28.3561 47.4576L27.5751 46.4896L25.9141 46.4456V48.4036L28.2571 48.1946V49.8886L25.9141 49.6356V50.7796C25.9141 50.9556 25.9251 51.0693 25.9471 51.1206C25.9764 51.172 26.0461 51.2233 26.1561 51.2746L26.8161 51.6706L26.7831 52.5616H23.1641L23.1091 51.4396ZM32.0565 51.4396L32.8595 51.2196V47.0066C32.8595 46.816 32.8448 46.6913 32.8155 46.6326C32.7862 46.5666 32.7092 46.508 32.5845 46.4566L32.0125 46.1266L32.0675 45.1476H35.5985L35.6425 46.2696L34.8505 46.4896V50.7796C34.8505 50.9556 34.8615 51.0693 34.8835 51.1206C34.9128 51.172 34.9825 51.2233 35.0925 51.2746L35.6535 51.6156L35.6205 52.5616H32.1115L32.0565 51.4396ZM38.3451 51.5826L38.6861 51.3736L41.2601 45.1366L43.1301 44.9716L45.3301 50.9116C45.4035 51.1023 45.4548 51.227 45.4841 51.2856C45.5135 51.3443 45.5685 51.425 45.6491 51.5276L45.8471 51.7806L45.7811 52.5616H42.6901L42.5801 51.5166L43.3611 51.3186L43.0091 50.2076L40.7761 50.2406L40.5341 50.9336C40.5121 50.9996 40.5011 51.0546 40.5011 51.0986C40.5011 51.15 40.5085 51.1903 40.5231 51.2196C40.5451 51.2416 40.5781 51.26 40.6221 51.2746L41.3811 51.5936L41.2711 52.5616H38.3891L38.3451 51.5826ZM41.9421 46.8526L41.2161 48.9646L42.6351 49.0306L41.9421 46.8526ZM55.0411 52.6936C54.2344 52.6936 53.4167 52.569 52.5881 52.3196C52.6247 51.5936 52.6834 50.919 52.7641 50.2956L53.6111 50.1306L54.1611 51.0656C54.6011 51.2196 54.9897 51.2966 55.3271 51.2966C55.4444 51.2966 55.6937 51.2636 56.0751 51.1976C56.0897 51.051 56.0971 50.952 56.0971 50.9006C56.0971 50.7246 56.0677 50.5926 56.0091 50.5046C55.9504 50.4093 55.8221 50.3066 55.6241 50.1966C55.4261 50.0793 55.0704 49.907 54.5571 49.6796C53.9264 49.3716 53.4717 49.0416 53.1931 48.6896C52.9144 48.3303 52.7751 47.9086 52.7751 47.4246C52.7751 46.6693 53.0317 46.079 53.5451 45.6536C54.0584 45.2283 54.7624 45.0156 55.6571 45.0156C56.0897 45.0156 56.5187 45.0596 56.9441 45.1476C57.3767 45.2283 57.7544 45.342 58.0771 45.4886C58.0624 45.8993 58.0294 46.409 57.9781 47.0176L57.9451 47.4906L57.1421 47.6116L56.3061 46.5446C56.0421 46.464 55.7121 46.4236 55.3161 46.4236C55.0667 46.4236 54.8797 46.4456 54.7551 46.4896C54.7184 46.6363 54.7001 46.75 54.7001 46.8306C54.7001 46.992 54.7404 47.135 54.8211 47.2596C54.9017 47.377 55.0447 47.5016 55.2501 47.6336C55.4554 47.7583 55.7597 47.916 56.1631 48.1066C56.7497 48.3853 57.1934 48.631 57.4941 48.8436C57.7947 49.0563 58.0037 49.28 58.1211 49.5146C58.2457 49.742 58.3081 50.0206 58.3081 50.3506C58.3081 51.0766 58.0184 51.6486 57.4391 52.0666C56.8597 52.4846 56.0604 52.6936 55.0411 52.6936ZM61.1175 51.4396L61.9205 51.2196V47.0286C61.9205 46.838 61.9059 46.7133 61.8765 46.6546C61.8472 46.5886 61.7702 46.53 61.6455 46.4786L61.0735 46.1596L61.1395 45.2686C61.6969 45.1806 62.2249 45.1183 62.7235 45.0816C63.2222 45.0376 63.7575 45.0156 64.3295 45.0156C65.1215 45.0156 65.7559 45.1 66.2325 45.2686C66.7165 45.4373 67.0685 45.7013 67.2885 46.0606C67.5159 46.42 67.6295 46.8966 67.6295 47.4906C67.6295 48.2606 67.3509 48.8656 66.7935 49.3056C66.2435 49.7456 65.4882 49.9656 64.5275 49.9656L63.9225 49.9436V50.7796C63.9225 50.9556 63.9335 51.0693 63.9555 51.1206C63.9849 51.172 64.0509 51.2233 64.1535 51.2746L64.8245 51.6706L64.7805 52.5616H61.1725L61.1175 51.4396ZM64.6265 48.7446C65.0225 48.7446 65.3122 48.7043 65.4955 48.6236C65.5762 48.2643 65.6165 47.8866 65.6165 47.4906C65.6165 47.058 65.5322 46.75 65.3635 46.5666C65.2022 46.3833 64.9382 46.2916 64.5715 46.2916C64.4469 46.2916 64.2305 46.3063 63.9225 46.3356V48.6786C64.1205 48.7226 64.3552 48.7446 64.6265 48.7446ZM74.1415 52.7156C72.9241 52.7156 72.0148 52.4076 71.4135 51.7916C70.8195 51.1756 70.5225 50.2406 70.5225 48.9866C70.5225 48.1726 70.6728 47.4686 70.9735 46.8746C71.2741 46.2733 71.7031 45.8113 72.2605 45.4886C72.8178 45.166 73.4815 45.0046 74.2515 45.0046C76.7008 45.0046 77.9255 46.255 77.9255 48.7556C77.9255 49.577 77.7751 50.2846 77.4745 50.8786C77.1738 51.4726 76.7375 51.9273 76.1655 52.2426C75.6008 52.558 74.9261 52.7156 74.1415 52.7156ZM74.3725 51.1976C74.7905 51.1976 75.1901 51.0913 75.5715 50.8786C75.6521 50.6513 75.7145 50.369 75.7585 50.0316C75.8025 49.687 75.8245 49.3496 75.8245 49.0196C75.8245 48.2056 75.6705 47.5896 75.3625 47.1716C75.0618 46.7536 74.6181 46.5446 74.0315 46.5446C73.6135 46.5446 73.2101 46.6216 72.8215 46.7756C72.7408 46.915 72.6785 47.146 72.6345 47.4686C72.5905 47.784 72.5685 48.147 72.5685 48.5576C72.5685 49.4083 72.7225 50.061 73.0305 50.5156C73.3385 50.9703 73.7858 51.1976 74.3725 51.1976ZM80.6425 51.4396L81.4456 51.2196V47.0286C81.4456 46.838 81.4309 46.7133 81.4015 46.6546C81.3722 46.5886 81.2952 46.53 81.1705 46.4786L80.5985 46.1596L80.6645 45.2576C81.7646 45.0963 82.8242 45.0156 83.8436 45.0156C84.6356 45.0156 85.2736 45.0963 85.7576 45.2576C86.2416 45.4116 86.5936 45.6573 86.8136 45.9946C87.0409 46.3246 87.1546 46.7646 87.1546 47.3146C87.1546 47.7693 87.0372 48.169 86.8025 48.5136C86.5679 48.851 86.2342 49.1113 85.8016 49.2946L87.5616 52.1326L87.5506 52.5616H85.5486L83.9206 49.6246L83.4366 49.6136V50.8456C83.4366 51.0216 83.4475 51.1353 83.4695 51.1866C83.4989 51.2306 83.5649 51.282 83.6675 51.3406L84.1406 51.6156L84.0966 52.5616H80.6975L80.6425 51.4396ZM84.1406 48.3816C84.5292 48.3816 84.8152 48.345 84.9986 48.2716C85.0719 48.0076 85.1086 47.6923 85.1086 47.3256C85.1086 46.959 85.0279 46.6986 84.8666 46.5446C84.7126 46.3906 84.4522 46.3136 84.0856 46.3136C83.8802 46.3136 83.6712 46.3246 83.4586 46.3466V48.3156C83.6492 48.3596 83.8766 48.3816 84.1406 48.3816ZM91.6645 51.4836L92.6215 51.2196V46.4566L91.6975 46.5336L90.8835 47.5126L90.0805 47.4466C90.0805 46.838 90.1098 46.0716 90.1685 45.1476H97.0545C97.1131 46.0716 97.1425 46.838 97.1425 47.4466L96.3505 47.5126L95.5255 46.5336L94.6235 46.4566V50.7796C94.6235 50.9556 94.6345 51.0693 94.6565 51.1206C94.6785 51.172 94.7408 51.2233 94.8435 51.2746L95.5255 51.6816L95.4815 52.5616H91.7195L91.6645 51.4836ZM102.317 52.6936C101.511 52.6936 100.693 52.569 99.8644 52.3196C99.9011 51.5936 99.9598 50.919 100.04 50.2956L100.887 50.1306L101.437 51.0656C101.877 51.2196 102.266 51.2966 102.603 51.2966C102.721 51.2966 102.97 51.2636 103.351 51.1976C103.366 51.051 103.373 50.952 103.373 50.9006C103.373 50.7246 103.344 50.5926 103.285 50.5046C103.227 50.4093 103.098 50.3066 102.9 50.1966C102.702 50.0793 102.347 49.907 101.833 49.6796C101.203 49.3716 100.748 49.0416 100.469 48.6896C100.191 48.3303 100.051 47.9086 100.051 47.4246C100.051 46.6693 100.308 46.079 100.821 45.6536C101.335 45.2283 102.039 45.0156 102.933 45.0156C103.366 45.0156 103.795 45.0596 104.22 45.1476C104.653 45.2283 105.031 45.342 105.353 45.4886C105.339 45.8993 105.306 46.409 105.254 47.0176L105.221 47.4906L104.418 47.6116L103.582 46.5446C103.318 46.464 102.988 46.4236 102.592 46.4236C102.343 46.4236 102.156 46.4456 102.031 46.4896C101.995 46.6363 101.976 46.75 101.976 46.8306C101.976 46.992 102.017 47.135 102.097 47.2596C102.178 47.377 102.321 47.5016 102.526 47.6336C102.732 47.7583 103.036 47.916 103.439 48.1066C104.026 48.3853 104.47 48.631 104.77 48.8436C105.071 49.0563 105.28 49.28 105.397 49.5146C105.522 49.742 105.584 50.0206 105.584 50.3506C105.584 51.0766 105.295 51.6486 104.715 52.0666C104.136 52.4846 103.337 52.6936 102.317 52.6936Z" fill="#E15827"/>
<path d="M12.806 60.4975C12.302 60.4975 11.798 60.4788 11.294 60.4415L11.259 59.7555L11.77 59.6155V56.9485C11.77 56.8271 11.7607 56.7478 11.742 56.7105C11.7233 56.6685 11.6743 56.6311 11.595 56.5985L11.231 56.3955L11.273 55.8145C12.029 55.7165 12.6777 55.6675 13.219 55.6675C13.8817 55.6675 14.367 55.7655 14.675 55.9615C14.983 56.1575 15.137 56.4678 15.137 56.8925C15.137 57.1025 15.1043 57.2891 15.039 57.4525C14.9737 57.6111 14.8733 57.7558 14.738 57.8865C15.2047 58.0965 15.438 58.4371 15.438 58.9085C15.438 59.3285 15.3213 59.6668 15.088 59.9235C14.8547 60.1801 14.5117 60.3481 14.059 60.4275C13.891 60.4741 13.4733 60.4975 12.806 60.4975ZM13.835 57.6625C13.8817 57.5411 13.905 57.3381 13.905 57.0535C13.905 56.8575 13.8583 56.7128 13.765 56.6195C13.6763 56.5261 13.5387 56.4748 13.352 56.4655C13.2307 56.4655 13.1093 56.4701 12.988 56.4795V57.6485C13.0673 57.6438 13.17 57.6415 13.296 57.6415C13.4873 57.6415 13.667 57.6485 13.835 57.6625ZM13.541 59.6295C13.807 59.6295 13.996 59.6061 14.108 59.5595C14.1547 59.3728 14.178 59.2071 14.178 59.0625C14.178 58.8291 14.1173 58.6635 13.996 58.5655C13.8747 58.4675 13.6693 58.4185 13.38 58.4185C13.3193 58.4185 13.2423 58.4231 13.149 58.4325L12.988 58.4395V59.5805C13.1513 59.6131 13.3357 59.6295 13.541 59.6295ZM19.046 60.5535C18.5 60.5535 18.0777 60.3878 17.779 60.0565C17.485 59.7251 17.338 59.2678 17.338 58.6845C17.338 58.2785 17.4103 57.9308 17.555 57.6415C17.6997 57.3475 17.905 57.1235 18.171 56.9695C18.437 56.8155 18.7473 56.7385 19.102 56.7385C19.6293 56.7385 20.033 56.9065 20.313 57.2425C20.5977 57.5785 20.733 58.0568 20.719 58.6775L18.591 59.0695C18.6563 59.2655 18.7473 59.4101 18.864 59.5035C18.9853 59.5921 19.144 59.6365 19.34 59.6365C19.4753 59.6365 19.6363 59.6178 19.823 59.5805C20.0097 59.5385 20.1987 59.4825 20.39 59.4125L20.551 60.1055C20.3783 60.2361 20.1543 60.3435 19.879 60.4275C19.6037 60.5115 19.326 60.5535 19.046 60.5535ZM19.571 58.0895C19.5617 57.9121 19.5103 57.7838 19.417 57.7045C19.3283 57.6205 19.2023 57.5785 19.039 57.5785C18.9037 57.5785 18.7753 57.5971 18.654 57.6345C18.556 57.8631 18.5117 58.1105 18.521 58.3765L19.571 58.0895ZM24.0493 60.5605C23.6386 60.5605 23.3353 60.4601 23.1393 60.2595C22.9433 60.0541 22.8453 59.7438 22.8453 59.3285V57.6275H22.3553V57.1165L23.6153 55.9685L24.0213 56.0175V56.8085H25.1973V57.6345H24.0213V59.0765C24.0213 59.3005 24.0516 59.4498 24.1123 59.5245C24.1776 59.5991 24.3013 59.6365 24.4833 59.6365C24.6373 59.6365 24.852 59.6155 25.1273 59.5735L25.2113 60.2875C25.0433 60.3668 24.8543 60.4321 24.6443 60.4835C24.439 60.5348 24.2406 60.5605 24.0493 60.5605ZM28.464 60.5605C28.0533 60.5605 27.75 60.4601 27.554 60.2595C27.358 60.0541 27.26 59.7438 27.26 59.3285V57.6275H26.77V57.1165L28.03 55.9685L28.436 56.0175V56.8085H29.612V57.6345H28.436V59.0765C28.436 59.3005 28.4663 59.4498 28.527 59.5245C28.5923 59.5991 28.716 59.6365 28.898 59.6365C29.052 59.6365 29.2666 59.6155 29.542 59.5735L29.626 60.2875C29.458 60.3668 29.269 60.4321 29.059 60.4835C28.8536 60.5348 28.6553 60.5605 28.464 60.5605ZM31.6911 55.2895L32.8811 54.9745L33.1681 56.0385L31.9851 56.3605L31.6911 55.2895ZM31.3971 59.8255L31.8871 59.6785V57.9775C31.8871 57.8748 31.8777 57.8095 31.8591 57.7815C31.8451 57.7488 31.8054 57.7138 31.7401 57.6765L31.4321 57.5085L31.4671 56.9835C31.8544 56.9088 32.1531 56.8551 32.3631 56.8225C32.5777 56.7851 32.7737 56.7641 32.9511 56.7595C33.0117 56.9601 33.0491 57.1095 33.0631 57.2075V59.4475C33.0631 59.5455 33.0701 59.6108 33.0841 59.6435C33.0981 59.6761 33.1377 59.7111 33.2031 59.7485L33.5461 59.9445L33.5181 60.4695H31.4181L31.3971 59.8255ZM35.2308 59.7975L35.6648 59.6715V57.9775C35.6648 57.8748 35.6578 57.8095 35.6438 57.7815C35.6298 57.7488 35.5925 57.7138 35.5318 57.6765L35.2238 57.5085L35.2448 56.9835L35.3988 56.9555C36.0102 56.8341 36.4512 56.7688 36.7218 56.7595C36.7592 56.8575 36.7895 56.9648 36.8128 57.0815C37.0975 56.9508 37.3285 56.8621 37.5058 56.8155C37.6878 56.7641 37.8582 56.7385 38.0168 56.7385C38.7588 56.7385 39.1298 57.1818 39.1298 58.0685V59.4405C39.1298 59.5385 39.1368 59.6038 39.1508 59.6365C39.1648 59.6691 39.2045 59.7041 39.2698 59.7415L39.6058 59.9375L39.5778 60.4625H37.6458L37.6108 59.7975L37.9538 59.6995V58.3765C37.9538 58.1665 37.9468 58.0195 37.9328 57.9355C37.9188 57.8515 37.8792 57.7861 37.8138 57.7395C37.7532 57.6928 37.6435 57.6695 37.4848 57.6695C37.3168 57.6695 37.1045 57.6951 36.8478 57.7465V59.4405C36.8478 59.5385 36.8548 59.6038 36.8688 59.6365C36.8828 59.6691 36.9202 59.7041 36.9808 59.7415L37.3238 59.9375L37.2958 60.4625H35.2658L35.2308 59.7975ZM42.6939 62.0655C42.1573 62.0655 41.7513 61.9815 41.4759 61.8135C41.2053 61.6455 41.0699 61.3981 41.0699 61.0715C41.0699 60.7261 41.2286 60.4228 41.5459 60.1615C41.4479 60.0635 41.3989 59.9561 41.3989 59.8395C41.3989 59.6715 41.5086 59.4335 41.7279 59.1255C41.3453 58.9248 41.1539 58.5795 41.1539 58.0895C41.1539 57.6601 41.2986 57.3288 41.5879 57.0955C41.8819 56.8575 42.3043 56.7385 42.8549 56.7385C43.2423 56.7385 43.5596 56.7968 43.8069 56.9135L44.6469 56.6545H44.9759V57.6695H44.4299C44.4533 57.7861 44.4649 57.9005 44.4649 58.0125C44.4649 58.4418 44.3203 58.7685 44.0309 58.9925C43.7416 59.2165 43.3169 59.3285 42.7569 59.3285C42.5656 59.3285 42.3929 59.3145 42.2389 59.2865V59.3845C42.2389 59.4591 42.2693 59.5128 42.3299 59.5455C42.3953 59.5735 42.5329 59.6015 42.7429 59.6295L43.3729 59.7205C43.8676 59.7905 44.2083 59.9118 44.3949 60.0845C44.5863 60.2571 44.6819 60.4788 44.6819 60.7495C44.6819 61.1695 44.5093 61.4938 44.1639 61.7225C43.8186 61.9511 43.3286 62.0655 42.6939 62.0655ZM42.8619 58.6425C42.9599 58.6425 43.0719 58.6285 43.1979 58.6005C43.2166 58.5445 43.2329 58.4605 43.2469 58.3485C43.2656 58.2365 43.2749 58.1338 43.2749 58.0405C43.2749 57.8305 43.2283 57.6741 43.1349 57.5715C43.0463 57.4688 42.9063 57.4175 42.7149 57.4175C42.6216 57.4175 42.5189 57.4315 42.4069 57.4595C42.3836 57.5155 42.3626 57.5971 42.3439 57.7045C42.3299 57.8118 42.3229 57.9145 42.3229 58.0125C42.3229 58.2271 42.3673 58.3858 42.4559 58.4885C42.5446 58.5911 42.6799 58.6425 42.8619 58.6425ZM43.0159 61.2745C43.2306 61.2745 43.3939 61.2558 43.5059 61.2185C43.5339 61.1625 43.5479 61.0878 43.5479 60.9945C43.5479 60.8825 43.5083 60.7961 43.4289 60.7355C43.3496 60.6795 43.2073 60.6375 43.0019 60.6095L42.7779 60.5745C42.5726 60.5511 42.3649 60.5185 42.1549 60.4765C42.1269 60.6025 42.1129 60.7028 42.1129 60.7775C42.1129 60.9455 42.1876 61.0691 42.3369 61.1485C42.4863 61.2325 42.7126 61.2745 43.0159 61.2745ZM51.8662 60.5605C51.1802 60.5605 50.6762 60.3808 50.3542 60.0215C50.0368 59.6575 49.8782 59.0881 49.8782 58.3135V56.9345C49.8782 56.8131 49.8688 56.7338 49.8502 56.6965C49.8362 56.6545 49.7918 56.6171 49.7172 56.5845L49.4932 56.4515L49.5142 55.7515H51.6982L51.7332 56.4445L51.1522 56.6055V58.0405C51.1522 58.5258 51.2222 58.9085 51.3622 59.1885C51.5022 59.4685 51.7425 59.6085 52.0832 59.6085C52.1952 59.6085 52.3025 59.5921 52.4052 59.5595C52.5125 59.5268 52.6035 59.4825 52.6782 59.4265C52.7248 59.3191 52.7575 59.1768 52.7762 58.9995C52.7948 58.8175 52.8042 58.5748 52.8042 58.2715V56.9345C52.8042 56.8131 52.7948 56.7338 52.7762 56.6965C52.7575 56.6545 52.7085 56.6171 52.6292 56.5845L52.2862 56.3885L52.3212 55.7515H54.4002L54.4352 56.5075L54.0712 56.6055V58.1875C54.0712 58.9388 53.8775 59.5221 53.4902 59.9375C53.1075 60.3528 52.5662 60.5605 51.8662 60.5605ZM56.1023 59.7975L56.5363 59.6715V57.9775C56.5363 57.8748 56.5293 57.8095 56.5153 57.7815C56.5013 57.7488 56.464 57.7138 56.4033 57.6765L56.0953 57.5085L56.1163 56.9835L56.2703 56.9555C56.8816 56.8341 57.3226 56.7688 57.5933 56.7595C57.6306 56.8575 57.661 56.9648 57.6843 57.0815C57.969 56.9508 58.2 56.8621 58.3773 56.8155C58.5593 56.7641 58.7296 56.7385 58.8883 56.7385C59.6303 56.7385 60.0013 57.1818 60.0013 58.0685V59.4405C60.0013 59.5385 60.0083 59.6038 60.0223 59.6365C60.0363 59.6691 60.076 59.7041 60.1413 59.7415L60.4773 59.9375L60.4493 60.4625H58.5173L58.4823 59.7975L58.8253 59.6995V58.3765C58.8253 58.1665 58.8183 58.0195 58.8043 57.9355C58.7903 57.8515 58.7506 57.7861 58.6853 57.7395C58.6246 57.6928 58.515 57.6695 58.3563 57.6695C58.1883 57.6695 57.976 57.6951 57.7193 57.7465V59.4405C57.7193 59.5385 57.7263 59.6038 57.7403 59.6365C57.7543 59.6691 57.7916 59.7041 57.8523 59.7415L58.1953 59.9375L58.1673 60.4625H56.1373L56.1023 59.7975ZM62.1164 59.8255L62.6064 59.6785V56.3255C62.6064 56.2228 62.5971 56.1575 62.5784 56.1295C62.5644 56.0968 62.5247 56.0618 62.4594 56.0245L62.1514 55.8635L62.1864 55.3315C62.2797 55.3128 62.3521 55.3011 62.4034 55.2965C63.0194 55.1845 63.4487 55.1238 63.6914 55.1145C63.7381 55.2218 63.7684 55.3431 63.7824 55.4785V59.4475C63.7824 59.5455 63.7894 59.6108 63.8034 59.6435C63.8174 59.6761 63.8571 59.7111 63.9224 59.7485L64.2654 59.9445L64.2374 60.4695H62.1374L62.1164 59.8255ZM66.203 55.2895L67.393 54.9745L67.68 56.0385L66.497 56.3605L66.203 55.2895ZM65.909 59.8255L66.399 59.6785V57.9775C66.399 57.8748 66.3897 57.8095 66.371 57.7815C66.357 57.7488 66.3173 57.7138 66.252 57.6765L65.944 57.5085L65.979 56.9835C66.3663 56.9088 66.665 56.8551 66.875 56.8225C67.0897 56.7851 67.2857 56.7641 67.463 56.7595C67.5237 56.9601 67.561 57.1095 67.575 57.2075V59.4475C67.575 59.5455 67.582 59.6108 67.596 59.6435C67.61 59.6761 67.6497 59.7111 67.715 59.7485L68.058 59.9445L68.03 60.4695H65.93L65.909 59.8255ZM69.7427 59.8045L70.1767 59.6785V57.9775C70.1767 57.8748 70.1697 57.8095 70.1557 57.7815C70.1417 57.7488 70.1044 57.7138 70.0437 57.6765L69.7357 57.5085L69.7567 56.9835L69.9457 56.9485C70.5197 56.8318 70.9444 56.7688 71.2197 56.7595C71.2571 56.8575 71.2874 56.9578 71.3107 57.0605C71.5627 56.9438 71.7774 56.8621 71.9547 56.8155C72.1367 56.7641 72.3024 56.7385 72.4517 56.7385C72.6337 56.7385 72.8041 56.7735 72.9627 56.8435C73.1214 56.9088 73.2404 56.9975 73.3197 57.1095C73.5857 56.9788 73.8237 56.8855 74.0337 56.8295C74.2484 56.7688 74.4514 56.7385 74.6427 56.7385C75.0254 56.7385 75.3077 56.8481 75.4897 57.0675C75.6717 57.2868 75.7627 57.6205 75.7627 58.0685V59.4475C75.7627 59.5455 75.7697 59.6108 75.7837 59.6435C75.7977 59.6761 75.8374 59.7111 75.9027 59.7485L76.2387 59.9445L76.2107 60.4695H74.3067L74.2717 59.8045L74.6077 59.7065V58.3835C74.6077 58.1828 74.6007 58.0405 74.5867 57.9565C74.5774 57.8678 74.5401 57.8001 74.4747 57.7535C74.4094 57.7021 74.2997 57.6765 74.1457 57.6765C74.0244 57.6765 73.8214 57.6975 73.5367 57.7395C73.5461 57.8141 73.5507 57.9238 73.5507 58.0685V59.4475C73.5507 59.5455 73.5577 59.6108 73.5717 59.6435C73.5857 59.6761 73.6277 59.7111 73.6977 59.7485L74.0407 59.9445L74.0127 60.4695H72.0947L72.0597 59.8045L72.3957 59.7065V58.3835C72.3957 58.1781 72.3887 58.0335 72.3747 57.9495C72.3654 57.8608 72.3281 57.7931 72.2627 57.7465C72.1974 57.6998 72.0901 57.6765 71.9407 57.6765C71.7774 57.6765 71.5791 57.6975 71.3457 57.7395V59.4475C71.3457 59.5455 71.3527 59.6108 71.3667 59.6435C71.3807 59.6761 71.4181 59.7111 71.4787 59.7485L71.8217 59.9445L71.7937 60.4695H69.7777L69.7427 59.8045ZM78.1768 55.2895L79.3668 54.9745L79.6538 56.0385L78.4708 56.3605L78.1768 55.2895ZM77.8828 59.8255L78.3728 59.6785V57.9775C78.3728 57.8748 78.3635 57.8095 78.3448 57.7815C78.3308 57.7488 78.2911 57.7138 78.2258 57.6765L77.9178 57.5085L77.9528 56.9835C78.3401 56.9088 78.6388 56.8551 78.8488 56.8225C79.0635 56.7851 79.2595 56.7641 79.4368 56.7595C79.4975 56.9601 79.5348 57.1095 79.5488 57.2075V59.4475C79.5488 59.5455 79.5558 59.6108 79.5698 59.6435C79.5838 59.6761 79.6235 59.7111 79.6888 59.7485L80.0318 59.9445L80.0038 60.4695H77.9038L77.8828 59.8255ZM83.1706 60.5605C82.7599 60.5605 82.4566 60.4601 82.2606 60.2595C82.0646 60.0541 81.9666 59.7438 81.9666 59.3285V57.6275H81.4766V57.1165L82.7366 55.9685L83.1426 56.0175V56.8085H84.3186V57.6345H83.1426V59.0765C83.1426 59.3005 83.1729 59.4498 83.2336 59.5245C83.2989 59.5991 83.4226 59.6365 83.6046 59.6365C83.7586 59.6365 83.9733 59.6155 84.2486 59.5735L84.3326 60.2875C84.1646 60.3668 83.9756 60.4321 83.7656 60.4835C83.5603 60.5348 83.3619 60.5605 83.1706 60.5605ZM87.7417 60.5535C87.1957 60.5535 86.7734 60.3878 86.4747 60.0565C86.1807 59.7251 86.0337 59.2678 86.0337 58.6845C86.0337 58.2785 86.106 57.9308 86.2507 57.6415C86.3954 57.3475 86.6007 57.1235 86.8667 56.9695C87.1327 56.8155 87.443 56.7385 87.7977 56.7385C88.325 56.7385 88.7287 56.9065 89.0087 57.2425C89.2934 57.5785 89.4287 58.0568 89.4147 58.6775L87.2867 59.0695C87.352 59.2655 87.443 59.4101 87.5597 59.5035C87.681 59.5921 87.8397 59.6365 88.0357 59.6365C88.171 59.6365 88.332 59.6178 88.5187 59.5805C88.7054 59.5385 88.8944 59.4825 89.0857 59.4125L89.2467 60.1055C89.074 60.2361 88.85 60.3435 88.5747 60.4275C88.2994 60.5115 88.0217 60.5535 87.7417 60.5535ZM88.2667 58.0895C88.2574 57.9121 88.206 57.7838 88.1127 57.7045C88.024 57.6205 87.898 57.5785 87.7347 57.5785C87.5994 57.5785 87.471 57.5971 87.3497 57.6345C87.2517 57.8631 87.2074 58.1105 87.2167 58.3765L88.2667 58.0895ZM92.7103 60.5605C92.2623 60.5605 91.9123 60.3925 91.6603 60.0565C91.4083 59.7205 91.2823 59.2701 91.2823 58.7055C91.2823 58.0568 91.4527 57.5668 91.7933 57.2355C92.1387 56.9041 92.6287 56.7385 93.2633 56.7385C93.3007 56.7385 93.422 56.7431 93.6273 56.7525V56.3325C93.6273 56.2298 93.6203 56.1621 93.6063 56.1295C93.5923 56.0968 93.5527 56.0618 93.4873 56.0245L93.1723 55.8635L93.2073 55.3315C93.6553 55.2521 93.9867 55.1985 94.2013 55.1705C94.416 55.1378 94.5863 55.1191 94.7123 55.1145C94.7543 55.2218 94.7847 55.3431 94.8033 55.4785V59.4615C94.8033 59.5455 94.8103 59.6038 94.8243 59.6365C94.843 59.6691 94.8827 59.7018 94.9433 59.7345L95.2093 59.8955L95.1813 60.3295C94.724 60.4461 94.276 60.5161 93.8373 60.5395C93.8047 60.4508 93.772 60.3435 93.7393 60.2175C93.422 60.4461 93.079 60.5605 92.7103 60.5605ZM93.1163 59.6645C93.2703 59.6645 93.443 59.6131 93.6343 59.5105V57.6975C93.4943 57.6368 93.3147 57.6065 93.0953 57.6065C92.918 57.6065 92.7477 57.6298 92.5843 57.6765C92.547 57.7651 92.5167 57.8865 92.4933 58.0405C92.4747 58.1945 92.4653 58.3648 92.4653 58.5515C92.4653 58.9341 92.5167 59.2165 92.6193 59.3985C92.7267 59.5758 92.8923 59.6645 93.1163 59.6645Z" fill="#E15827"/>
<path d="M45.7084 27.1455L46.498 27.7198V30.7345L45.7084 32.1701L44.6317 30.7345V32.6726C44.6317 32.6726 46.6224 34.2491 48.1489 34.4671C48.8149 34.5622 49.8716 34.4671 49.8716 34.4671V35.2567C49.8716 35.2567 49.2743 35.1843 48.9385 35.3285C48.7169 35.4236 48.436 35.6874 48.436 35.6874C48.436 35.6874 47.1783 35.3692 46.3544 35.3285C46.0184 35.3119 45.8236 35.2663 45.493 35.3285C44.9631 35.4282 44.6658 35.6053 44.2728 35.9745C43.9949 36.2356 43.6985 36.7641 43.6985 36.7641C43.6985 36.7641 43.7733 37.1059 43.9139 37.2665C44.0627 37.4366 44.4163 37.5537 44.4163 37.5537L44.9906 36.5487H51.0201L50.3023 37.9844H46.498L50.4459 40.4249V42.5065C50.4459 42.5065 50.3328 43.0014 50.087 43.1525C49.8243 43.3141 49.6037 43.1877 49.2974 43.1525C48.6096 43.0736 48.2863 42.771 47.6464 42.5065L47.5964 42.4858C45.8776 41.7755 44.8893 41.367 43.2678 40.4249C42.1654 39.7843 41.5072 39.4614 40.5402 38.6304C39.9689 38.1395 39.6179 37.8768 39.1764 37.2665C38.684 36.586 38.5082 36.1256 38.2432 35.3285C37.9205 34.3577 37.938 33.7597 37.8125 32.7444C37.6815 31.6839 37.5972 30.0167 37.5972 30.0167L37.0229 29.2989V26.0688L37.8125 25.5663L41.5451 28.6529L45.7084 27.1455Z" fill="white"/>
<path d="M54.5376 35.6156L54.1787 34.826L59.7776 34.18V34.9696L54.5376 35.6156Z" fill="#E15827" stroke="#E15827" stroke-width="0.143561"/>
<path d="M51.8592 36.1068L51.1531 35.448L51.0628 35.2398L53.6961 34.8653L53.9982 35.8476L51.8592 36.1068Z" fill="#E15827" stroke="#E15827" stroke-width="0.143561"/>
<path d="M48.7237 25.8534H47.8624L46.9292 27.0019V31.237L46.355 31.9548V32.6726L47.5752 33.3904H49.8004L50.6618 32.6726V31.8112L49.8004 30.8063V27.0019L48.7237 25.8534Z" fill="white"/>
<path d="M55.9016 31.237L53.461 33.6775C53.461 33.6775 53.3022 32.6063 52.9586 32.0266C52.5642 31.3614 51.523 30.6628 51.523 30.6628L51.2358 28.2222L52.0972 27.5762C52.0972 27.5762 53.6094 28.2009 54.6095 28.5093C55.1099 28.6637 55.9016 28.8682 55.9016 28.8682V31.237Z" fill="white"/>
<path d="M57.9829 25.2792L58.8443 24.2025L59.6339 24.9203V30.8063L58.8443 32.1701L57.9829 31.5241V25.2792Z" fill="white"/>
<path d="M34.0083 24.3461L34.439 22.6951C34.439 22.6951 34.8351 23.7094 35.3003 24.2025C35.6582 24.5818 36.3771 24.9921 36.3771 24.9921V28.2222H35.1568L34.0083 24.3461Z" fill="white"/>
<path d="M38.028 20.1828C36.708 19.5237 35.085 17.814 35.085 17.814L39.3918 18.6036C39.3918 18.6036 41.2676 18.9104 42.4783 19.0343C44.4322 19.2343 47.503 19.2496 47.503 19.2496C47.503 19.2496 48.513 20.0971 49.2975 20.3263C50.3213 20.6256 50.9629 20.2798 52.0251 20.1828C53.6912 20.0307 54.6425 19.9634 56.2602 19.5368C58.037 19.0682 60.6388 17.814 60.6388 17.814C60.6388 17.814 59.6732 19.1382 58.8443 19.7521C57.232 20.9461 55.8597 20.7278 53.8914 21.1159C51.6227 21.5633 50.3179 21.7619 48.0054 21.7619C45.693 21.7619 44.3959 21.5221 42.1194 21.1159C40.5061 20.828 39.4942 20.9149 38.028 20.1828Z" fill="white"/>
<path d="M31.0652 14.0815C31.6719 14.3332 32.3572 15.1582 32.3572 15.1582C32.3572 15.1582 31.4124 14.7586 31.2088 15.1582C31.0208 15.527 31.487 15.7435 31.7112 16.0914C32.0029 16.544 32.2192 16.7618 32.5726 17.1681L32.6007 17.2004C33.1817 17.8686 33.5218 18.2596 34.2235 18.819C35.3221 19.6948 36.0871 19.9964 37.3819 20.5418C38.4684 20.9994 39.1133 21.1732 40.2531 21.4749C41.3054 21.7534 41.9056 21.8785 42.9807 22.0491C43.9836 22.2083 44.5514 22.274 45.5648 22.3363C46.8239 22.4136 48.795 22.3363 48.795 22.3363C48.795 22.3363 49.4155 23.1949 50.0152 23.3412C50.342 23.4209 50.5404 23.3535 50.8766 23.3412C52.157 23.2944 52.8491 23.0119 54.1067 22.7669C55.4289 22.5094 56.1837 22.4138 57.4804 22.0491C58.9144 21.6458 61.0694 20.7571 61.0694 20.7571C61.0694 20.7571 62.6383 20.0889 63.3664 19.3215C64.1518 18.4937 64.7425 17.4296 64.9456 16.3067C65.0653 15.6447 65.2577 15.4323 64.7302 15.0147C64.3126 14.6841 63.3664 15.0147 63.3664 15.0147C63.3664 15.0147 64.4171 14.1516 65.2327 14.0097C65.6745 13.9329 66.0012 13.7714 66.3812 14.0097C66.7528 14.2429 66.7617 14.5932 66.8836 15.0147C67.0705 15.661 67.0035 16.0754 66.8836 16.7374C66.7491 17.4801 66.5488 17.8815 66.1658 18.5319C65.6234 19.453 65.1288 19.8597 64.3046 20.5376L64.2995 20.5418C63.185 21.4584 62.4038 21.7869 61.0694 22.3363C59.7235 22.8904 58.9007 23.0232 57.4804 23.3412C55.3256 23.8236 54.0851 23.9887 51.8815 24.1308C50.0073 24.2516 48.9502 24.1582 47.0722 24.1308C45.8947 24.1135 45.2334 24.1225 44.0575 24.059C42.3418 23.9663 41.3636 23.9658 39.6788 23.6283C38.365 23.3651 37.6545 23.0993 36.3769 22.6952C35.3881 22.3824 34.809 22.2626 33.8646 21.8338C32.9845 21.4342 32.4964 21.1773 31.7112 20.6135C31.0814 20.1613 30.7105 19.9084 30.2038 19.3215C29.6854 18.7209 29.4293 18.3323 29.1271 17.5988C28.9379 17.1395 28.8376 16.8704 28.7682 16.3785C28.7017 15.9066 28.6925 15.6287 28.7682 15.1582C28.819 14.8427 28.7988 14.6294 28.9836 14.3686C29.2229 14.0309 29.5089 13.9368 29.9167 13.8662C30.3663 13.7883 30.6437 13.9067 31.0652 14.0815Z" fill="white"/>
<path d="M60.8539 10.4925C60.8725 9.5638 60.6386 8.12373 60.6386 8.12373C60.6386 8.12373 61.3761 9.51599 61.5 10.4925C61.5705 11.0487 61.6435 11.3674 61.6435 11.9281C61.6435 12.4327 61.6591 12.8165 61.3564 13.2201C60.9257 13.7944 60.7358 13.9818 60.2079 14.3686C59.4292 14.9392 58.9671 15.1307 58.0545 15.4453C56.3483 16.0336 55.2611 15.8243 53.4605 15.9478C50.4122 16.1569 48.6882 16.0986 45.6365 15.9478C43.3602 15.8353 42.0839 15.7263 39.8223 15.4453C39.0079 15.3442 38.5181 15.4209 37.7406 15.1582C36.9797 14.9011 35.9461 14.1533 35.9461 14.1533V13.2201C35.9461 12.5193 35.8608 12.1212 35.9461 11.4256C36.0488 10.5886 36.5204 9.344 36.5204 9.344L37.0946 7.62127C37.0946 7.62127 37.5294 6.43493 37.956 5.75498C38.3376 5.14682 38.6064 4.83653 39.1045 4.31937C39.5453 3.8616 39.8446 3.65905 40.3247 3.24267C40.8806 2.76059 41.1368 2.41312 41.7603 2.0224C42.3344 1.66269 42.7156 1.56846 43.3395 1.3046C43.9772 1.03492 44.3061 0.763181 44.9905 0.658574C45.4615 0.586572 45.7342 0.658574 46.2107 0.658574H48.4359C49.1367 0.658574 49.4408 0.443231 50.2304 0.658574C51.02 0.873917 50.9482 0.873915 51.4507 0.945696C51.9532 1.01748 52.3003 1.02442 52.7427 1.3046C53.0777 1.5167 53.2261 1.70272 53.4605 2.0224C53.72 2.37623 53.8643 2.59979 53.963 3.02733C54.0576 3.43704 53.963 4.10403 53.963 4.10403C53.963 4.10403 52.7852 4.06589 52.0967 4.31937C51.3597 4.59073 50.9384 4.85614 50.4458 5.46786C49.884 6.1655 49.5861 6.72831 49.6562 7.62127C49.7141 8.35907 49.9757 8.77241 50.4458 9.344C50.9447 9.9506 51.3689 10.1972 52.0967 10.4925C52.9602 10.8428 54.4655 10.7796 54.4655 10.7796V13.579C54.4655 13.579 54.6808 14.3686 55.7575 14.3686C56.8342 14.3686 57.6077 13.959 58.0545 13.8662C58.7723 13.717 59.2181 13.5494 60.2797 12.6459C60.597 12.3758 60.7444 12.2713 60.7821 11.8563C60.8539 11.0667 60.8387 11.2539 60.8539 10.4925Z" fill="white"/>
<path d="M61.7154 24.2743L62.3614 22.5516L62.505 27.1455L61.5 28.2223L60.4951 27.7198V25.1357L61.7154 24.2743Z" fill="white"/>
</svg>
