<svg xmlns="http://www.w3.org/2000/svg" fill="none" viewBox="21.24 21.1 132.14 133.19">
<path d="M125.409 70.179C114.094 57.4224 106.401 48.3538 92.5387 39.3393C78.6761 30.3249 65.7595 24.3011 54.0217 22.0673C42.2838 19.8335 32.9996 21.4699 27.3429 26.7696C21.6863 32.0694 19.9113 40.7944 22.2425 51.8414C24.5736 62.8883 30.9062 75.7611 40.4395 88.8318C49.9727 101.902 62.2784 114.584 75.8004 125.273C89.3225 135.962 104.676 145.321 116.145 149.266C127.613 153.211 143.377 155.973 151.395 153.107C145.66 155.157 130.606 148.275 120.212 143.843C102.189 136.157 94.7713 127.401 80.2318 114.432C69.6494 104.992 61.7588 97.7163 54.9403 88.3677C48.1217 79.019 43.5924 69.812 41.9251 61.9107C40.2577 54.0095 41.5273 47.7691 45.5731 43.9785C49.619 40.1879 55.9308 38.497 64.3261 40.0947C72.7215 41.6924 87.6924 44.2596 97.6075 50.7071C107.523 57.1545 117.316 61.055 125.409 70.179Z" fill="#17A6DC"/>
<path d="M97.1966 117.659C96.8118 117.659 96.4848 117.525 96.2154 117.255C95.9461 116.986 95.8114 116.659 95.8114 116.274V113.754L97.6006 114.177V115.177C97.6006 115.37 97.6647 115.537 97.793 115.678C97.9341 115.806 98.1008 115.87 98.2932 115.87H100.486C100.666 115.87 100.826 115.806 100.967 115.678C101.108 115.537 101.179 115.37 101.179 115.177V111.791C101.179 111.599 101.108 111.439 100.967 111.31C100.826 111.169 100.666 111.099 100.486 111.099H98.7164L99.1204 109.31H100.486C100.666 109.31 100.826 109.246 100.967 109.117C101.108 108.976 101.179 108.809 101.179 108.617V106.655C101.179 106.475 101.108 106.321 100.967 106.193C100.826 106.052 100.666 105.981 100.486 105.981H98.2355V105.962C98.0559 105.975 97.902 106.052 97.7738 106.193C97.6583 106.321 97.6006 106.475 97.6006 106.655V108.482L95.8114 108.078V105.558C95.8114 105.186 95.9461 104.866 96.2154 104.596C96.4848 104.327 96.8118 104.192 97.1966 104.192H101.583C101.955 104.192 102.276 104.327 102.545 104.596C102.814 104.866 102.949 105.186 102.949 105.558V109.714C102.949 109.906 102.923 110.073 102.872 110.214C102.923 110.355 102.949 110.515 102.949 110.695V116.274C102.949 116.659 102.814 116.986 102.545 117.255C102.276 117.525 101.955 117.659 101.583 117.659H97.1966ZM106.722 117.659C106.337 117.659 106.01 117.525 105.741 117.255C105.471 116.986 105.337 116.659 105.337 116.274V105.577C105.337 105.193 105.471 104.866 105.741 104.596C106.01 104.327 106.337 104.192 106.722 104.192H111.108C111.48 104.192 111.801 104.327 112.07 104.596C112.352 104.866 112.493 105.193 112.493 105.577V107.674L110.704 108.098V106.674C110.704 106.482 110.634 106.321 110.493 106.193C110.364 106.052 110.204 105.981 110.012 105.981H107.818C107.626 105.981 107.459 106.052 107.318 106.193C107.19 106.321 107.126 106.482 107.126 106.674V109.31H111.108C111.48 109.31 111.801 109.444 112.07 109.714C112.352 109.983 112.493 110.31 112.493 110.695V116.274C112.493 116.659 112.352 116.986 112.07 117.255C111.801 117.525 111.48 117.659 111.108 117.659H106.722ZM107.818 115.87H110.012C110.204 115.87 110.364 115.806 110.493 115.678C110.634 115.537 110.704 115.37 110.704 115.177V111.791C110.704 111.599 110.634 111.439 110.493 111.31C110.364 111.169 110.204 111.099 110.012 111.099H107.818C107.626 111.099 107.459 111.169 107.318 111.31C107.19 111.439 107.126 111.599 107.126 111.791V115.177C107.126 115.37 107.19 115.537 107.318 115.678C107.459 115.806 107.626 115.87 107.818 115.87ZM116.059 117.659C115.687 117.659 115.366 117.525 115.097 117.255C114.828 116.986 114.693 116.665 114.693 116.293V113.754L116.482 114.196V115.177C116.482 115.37 116.546 115.537 116.674 115.678C116.816 115.806 116.982 115.87 117.175 115.87H119.349C119.541 115.87 119.701 115.806 119.83 115.678C119.971 115.537 120.041 115.37 120.041 115.177V111.811C120.041 111.618 119.971 111.458 119.83 111.33C119.701 111.189 119.541 111.118 119.349 111.118H116.059C115.687 111.118 115.366 110.983 115.097 110.714C114.828 110.445 114.693 110.118 114.693 109.733V104.192H121.83V105.981H116.482V108.636C116.482 108.829 116.546 108.995 116.674 109.137C116.816 109.265 116.982 109.329 117.175 109.329H120.464C120.836 109.329 121.157 109.464 121.426 109.733C121.696 110.002 121.83 110.323 121.83 110.695V116.293C121.83 116.665 121.696 116.986 121.426 117.255C121.157 117.525 120.836 117.659 120.464 117.659H116.059Z" fill="url(#paint0_linear_241_2)"/>
<path d="M89.8406 76.4116C88.8249 76.1505 87.7728 76.0199 86.6845 76.0199C85.5817 76.0199 84.6965 76.2883 84.029 76.8252C83.347 77.3766 83.006 78.1529 83.006 79.1542C83.006 80.1554 83.26 80.939 83.7679 81.5049C84.2757 82.0564 85.2697 82.5425 86.7498 82.9633L90.7331 84.1169C92.8661 84.7409 94.5639 85.7203 95.8264 87.0553C97.0888 88.3758 97.72 90.313 97.72 92.8669C97.72 94.8839 97.2194 96.6252 96.2181 98.0908C95.2169 99.5564 93.8529 100.688 92.1261 101.486C90.4138 102.27 88.4766 102.662 86.3145 102.662C84.5297 102.662 82.6941 102.437 80.8076 101.987C78.9212 101.523 77.3541 100.877 76.1061 100.05V99.005C76.1061 98.6713 76.1497 98.1634 76.2367 97.4814C76.3383 96.7994 76.4762 96.0883 76.6503 95.3483C76.8389 94.5937 77.0566 93.9552 77.3033 93.4328H81.5477C82.0266 94.3761 82.3095 95.6095 82.3966 97.1331C83.3978 97.5829 84.6095 97.8079 86.0315 97.8079C87.4101 97.8079 88.5419 97.4814 89.4271 96.8284C90.3267 96.1754 90.7766 95.2394 90.7766 94.0205C90.7766 93.4401 90.7331 92.9685 90.646 92.6057C90.5589 92.2285 90.2832 91.8294 89.8189 91.4086C89.3545 90.9878 88.6943 90.6395 87.8381 90.3638L83.2455 89.0361C78.573 87.7156 76.2367 84.7409 76.2367 80.1119C76.2367 78.3126 76.6793 76.7454 77.5645 75.4104C78.4641 74.0754 79.7121 73.0379 81.3083 72.2978C82.9045 71.5578 84.7618 71.1878 86.8804 71.1878C90.0583 71.1878 93.1564 71.906 96.1746 73.3426V74.3656C96.1746 74.6994 96.1238 75.2145 96.0222 75.911C95.9352 76.593 95.7973 77.3041 95.6087 78.0441C95.4346 78.7842 95.2169 79.4154 94.9557 79.9378H90.7331C90.2252 79.2122 89.9277 78.0369 89.8406 76.4116ZM109.355 76.0199H105.22C105.002 77.6306 104.632 78.9075 104.11 79.8507L99.8653 79.5895C99.2123 78.4577 98.8858 76.7019 98.8858 74.3221C98.8858 73.3354 98.9874 72.4139 99.1905 71.5578H120.913L121.349 75.0839L108.419 94.4776C107.607 95.7256 106.772 96.705 105.916 97.4161L105.437 97.7643L105.655 98.265C106.99 97.9892 108.448 97.8514 110.03 97.8514H115.472C115.66 96.2407 116.03 94.9637 116.582 94.0205L120.826 94.2817C121.479 95.4136 121.806 97.1694 121.806 99.5492C121.806 100.565 121.697 101.486 121.479 102.313H98.4723L98.0369 98.7873L110.966 79.3936C111.779 78.1457 112.628 77.1662 113.513 76.4552L113.948 76.1069L113.73 75.6063C112.395 75.882 110.937 76.0199 109.355 76.0199Z" fill="url(#paint1_linear_241_2)"/>
<path d="M128.12 73.0625C116.743 60.3738 109.528 51.1201 95.7606 42.0011C81.9937 32.8821 69.2282 26.6934 57.7119 24.2177C46.1956 21.7419 37.1751 23.0904 31.7911 28.0924C26.4071 33.0944 24.9014 41.5254 27.4644 52.3193C30.0275 63.1131 36.5441 75.7849 46.1902 88.7323C55.8363 101.68 68.1788 114.321 81.6567 125.058C95.1346 135.795 110.674 144.366 121.972 148.497C133.27 152.628 145.629 155.205 153.381 152.628C147.836 154.471 135.547 150.06 125.647 144.747C108.487 135.538 99.6488 127.8 85.7004 114.64C75.386 104.909 67.2327 97.9191 60.3334 88.6586C53.4342 79.3981 48.7732 70.3348 46.9401 62.6146C45.1069 54.8945 46.1838 48.8643 50.0347 45.2867C53.8855 41.709 60.003 40.2303 68.2399 42.001C76.4767 43.7718 91.1578 46.6555 101.004 53.1778C110.851 59.7 119.983 63.9871 128.12 73.0625Z" fill="#E15827"/>
<defs>
<linearGradient id="paint0_linear_241_2" x1="109.119" y1="104.659" x2="109.119" y2="117.659" gradientUnits="userSpaceOnUse">
<stop offset="0.291667" stop-color="#E15827"/>
<stop offset="0.557292" stop-color="#17A6DC"/>
</linearGradient>
<linearGradient id="paint1_linear_241_2" x1="99.2349" y1="70.3135" x2="99.2349" y2="102.313" gradientUnits="userSpaceOnUse">
<stop offset="0.5" stop-color="#E15827"/>
<stop offset="0.833333" stop-color="#17A6DC"/>
</linearGradient>
</defs>
</svg>