<svg width="1152" height="393" viewBox="0 0 1152 393" fill="none" xmlns="http://www.w3.org/2000/svg">
<rect width="1152" height="393" fill="black" style="fill:black;fill-opacity:1;"/>
<path d="M417.704 193.425L434.001 151.695C435.067 151.746 436.184 151.771 437.351 151.771C438.519 151.771 439.509 151.771 440.321 151.771C440.727 151.771 441.463 151.771 442.529 151.771C443.646 151.72 444.839 151.695 446.109 151.695C447.428 151.695 448.622 151.695 449.688 151.695C450.804 151.644 451.566 151.619 451.972 151.619C452.124 152.38 452.124 153.167 451.972 153.979H451.82C449.485 154.233 447.784 154.487 446.718 154.741C445.652 154.944 444.992 155.452 444.738 156.264C444.535 157.025 444.433 158.294 444.433 160.071L445.042 195.634C445.042 197.207 445.093 198.451 445.195 199.365C445.296 200.279 445.575 200.939 446.032 201.345C446.489 201.751 447.225 202.056 448.241 202.259C449.256 202.411 450.703 202.563 452.581 202.715C452.734 203.477 452.734 204.264 452.581 205.076C452.175 205.076 451.414 205.051 450.297 205C449.231 205 448.038 205 446.718 205C445.449 205 444.256 205 443.139 205C442.073 204.949 441.336 204.924 440.93 204.924C440.524 204.924 439.788 204.949 438.722 205C437.656 205 436.488 205 435.219 205C433.95 205 432.782 205 431.716 205C430.65 205.051 429.914 205.076 429.508 205.076C429.457 204.315 429.457 203.528 429.508 202.715H429.66C431.894 202.462 433.518 202.233 434.534 202.03C435.549 201.776 436.158 201.269 436.361 200.507C436.615 199.695 436.742 198.4 436.742 196.623L436.057 155.807L416.867 204.924C416.511 205.076 415.953 205.178 415.192 205.228C414.43 205.279 413.77 205.305 413.212 205.305L395.164 157.406L393.946 196.623C393.895 198.299 393.971 199.517 394.174 200.279C394.377 200.989 394.986 201.497 396.002 201.802C397.017 202.106 398.718 202.411 401.104 202.715C401.307 203.528 401.307 204.315 401.104 205.076C400.596 205.076 399.708 205.051 398.438 205C397.22 205 395.976 205 394.707 205C393.489 204.949 392.6 204.924 392.042 204.924C391.737 204.924 391.128 204.949 390.214 205C389.351 205 388.387 205 387.32 205C386.254 205 385.264 205 384.351 205C383.488 205.051 382.904 205.076 382.599 205.076C382.498 204.264 382.498 203.477 382.599 202.715C384.985 202.411 386.686 202.106 387.701 201.802C388.717 201.497 389.351 200.888 389.605 199.974C389.91 199.06 390.087 197.613 390.138 195.634L391.585 160.071C391.686 158.294 391.61 157.025 391.356 156.264C391.103 155.502 390.417 154.995 389.3 154.741C388.234 154.436 386.457 154.182 383.97 153.979C383.919 153.167 383.919 152.38 383.97 151.619C385.696 151.619 387.473 151.644 389.3 151.695C391.128 151.746 393.159 151.771 395.392 151.771C396.154 151.771 397.169 151.771 398.438 151.771C399.708 151.771 400.875 151.746 401.941 151.695L417.704 193.425ZM467.945 205.076C467.843 204.264 467.843 203.452 467.945 202.639C469.366 202.487 470.508 202.309 471.371 202.106C472.234 201.903 472.971 201.548 473.58 201.04C474.189 200.482 474.773 199.669 475.331 198.603C475.89 197.486 476.55 195.938 477.311 193.958L493.76 151.771C494.318 151.568 494.978 151.416 495.74 151.314C496.552 151.212 497.237 151.162 497.796 151.162L514.168 194.644C514.879 196.471 515.462 197.918 515.919 198.984C516.376 199.999 516.884 200.736 517.442 201.192C518.001 201.649 518.712 201.979 519.575 202.182C520.438 202.335 521.631 202.487 523.154 202.639C523.255 203.452 523.255 204.264 523.154 205.076C521.377 205.076 519.549 205.051 517.671 205C515.792 204.949 513.914 204.924 512.036 204.924C510.107 204.924 508.152 204.949 506.172 205C504.243 205.051 502.314 205.076 500.385 205.076C500.232 204.315 500.232 203.502 500.385 202.639C502.872 202.386 504.598 202.157 505.563 201.954C506.527 201.7 507.01 201.091 507.01 200.126C507.01 199.72 506.934 199.263 506.781 198.756C506.629 198.248 506.426 197.613 506.172 196.852L501.832 185.125H484.698L480.89 195.634C480.535 196.598 480.256 197.41 480.053 198.07C479.9 198.68 479.824 199.238 479.824 199.746C479.824 200.862 480.332 201.573 481.347 201.878C482.413 202.132 484.139 202.386 486.525 202.639C486.627 203.502 486.627 204.315 486.525 205.076C484.799 205.076 483.099 205.051 481.423 205C479.748 204.949 478.047 204.924 476.321 204.924C474.9 204.924 473.529 204.949 472.209 205C470.889 205.051 469.468 205.076 467.945 205.076ZM485.84 181.926H500.689L493.227 161.67L485.84 181.926ZM539.199 205.076C539.098 204.315 539.098 203.502 539.199 202.639C541.636 202.386 543.388 202.157 544.454 201.954C545.52 201.7 546.18 201.192 546.434 200.431C546.687 199.669 546.814 198.375 546.814 196.547V161.137C546.814 159.005 546.687 157.482 546.434 156.568C546.18 155.655 545.52 155.071 544.454 154.817C543.438 154.512 541.763 154.258 539.428 154.055C539.326 153.294 539.326 152.482 539.428 151.619C540.646 151.619 541.662 151.644 542.474 151.695C543.337 151.695 544.225 151.695 545.139 151.695C546.053 151.695 547.195 151.72 548.566 151.771C549.987 151.771 551.866 151.771 554.201 151.771C557.095 151.771 560.039 151.771 563.034 151.771C566.03 151.72 568.796 151.695 571.335 151.695C573.924 151.695 576.005 151.695 577.579 151.695C579.204 151.644 580.067 151.619 580.168 151.619C580.422 153.548 580.701 155.553 581.006 157.634C581.31 159.716 581.64 161.924 581.996 164.26C581.59 164.31 581.158 164.336 580.701 164.336C580.295 164.336 579.889 164.31 579.483 164.26C578.163 160.858 576.615 158.472 574.838 157.101C573.01 155.629 570.142 154.893 566.233 154.893H555.191V176.444H560.217C562.654 176.444 564.507 176.291 565.776 175.987C567.045 175.631 567.984 174.895 568.593 173.778C569.203 172.611 569.685 170.783 570.04 168.296C570.954 168.143 571.817 168.143 572.629 168.296C572.579 170.428 572.528 172.128 572.477 173.398C572.477 174.616 572.477 175.581 572.477 176.291C572.477 177.002 572.477 177.662 572.477 178.271C572.477 178.83 572.477 179.464 572.477 180.175C572.477 180.886 572.477 181.876 572.477 183.145C572.528 184.414 572.579 186.14 572.629 188.323C571.868 188.475 571.005 188.475 570.04 188.323C569.736 185.632 569.279 183.703 568.67 182.536C568.06 181.317 567.147 180.556 565.928 180.251C564.76 179.947 563.085 179.794 560.902 179.794H555.191V195.557C555.191 197.131 555.242 198.35 555.343 199.213C555.445 200.076 555.749 200.761 556.257 201.269C556.765 201.726 557.526 202.03 558.542 202.182C559.608 202.335 561.131 202.487 563.111 202.639C563.263 203.452 563.263 204.264 563.111 205.076C562.044 205.076 560.75 205.051 559.227 205C557.704 205 556.181 205 554.658 205C553.186 204.949 551.942 204.924 550.927 204.924C549.962 204.924 548.769 204.949 547.347 205C545.926 205 544.479 205 543.007 205C541.585 205.051 540.316 205.076 539.199 205.076ZM616.676 160.147V195.557C616.676 197.131 616.727 198.375 616.829 199.289C616.93 200.203 617.209 200.862 617.666 201.269C618.123 201.675 618.859 201.979 619.875 202.182C620.89 202.335 622.337 202.487 624.215 202.639C624.368 203.452 624.368 204.264 624.215 205.076C623.2 205.076 621.956 205.051 620.484 205C619.012 205 617.539 205 616.067 205C614.646 204.949 613.453 204.924 612.488 204.924C611.524 204.924 610.305 204.949 608.833 205C607.411 205 605.965 205 604.492 205C603.071 205.051 601.802 205.076 600.685 205.076C600.532 204.315 600.532 203.502 600.685 202.639C603.122 202.386 604.873 202.157 605.939 201.954C607.005 201.7 607.665 201.192 607.919 200.431C608.173 199.669 608.3 198.375 608.3 196.547V161.137C608.3 159.005 608.173 157.482 607.919 156.568C607.665 155.655 607.005 155.071 605.939 154.817C604.873 154.512 603.122 154.258 600.685 154.055C600.583 153.294 600.583 152.482 600.685 151.619C601.751 151.619 603.02 151.644 604.492 151.695C606.015 151.695 607.513 151.72 608.985 151.771C610.457 151.771 611.676 151.771 612.64 151.771C613.605 151.771 614.798 151.771 616.219 151.771C617.641 151.72 619.088 151.695 620.56 151.695C622.032 151.644 623.251 151.619 624.215 151.619C624.368 152.38 624.368 153.192 624.215 154.055C621.829 154.258 620.103 154.487 619.037 154.741C617.971 154.995 617.311 155.502 617.057 156.264C616.803 157.025 616.676 158.32 616.676 160.147ZM639.759 205.076C639.657 204.264 639.657 203.452 639.759 202.639C641.18 202.487 642.323 202.309 643.186 202.106C644.049 201.903 644.785 201.548 645.394 201.04C646.003 200.482 646.587 199.669 647.145 198.603C647.704 197.486 648.364 195.938 649.125 193.958L665.574 151.771C666.132 151.568 666.792 151.416 667.554 151.314C668.366 151.212 669.051 151.162 669.61 151.162L685.982 194.644C686.693 196.471 687.277 197.918 687.734 198.984C688.19 199.999 688.698 200.736 689.257 201.192C689.815 201.649 690.526 201.979 691.389 202.182C692.252 202.335 693.445 202.487 694.968 202.639C695.069 203.452 695.069 204.264 694.968 205.076C693.191 205.076 691.363 205.051 689.485 205C687.607 204.949 685.728 204.924 683.85 204.924C681.921 204.924 679.966 204.949 677.986 205C676.057 205.051 674.128 205.076 672.199 205.076C672.047 204.315 672.047 203.502 672.199 202.639C674.686 202.386 676.413 202.157 677.377 201.954C678.342 201.7 678.824 201.091 678.824 200.126C678.824 199.72 678.748 199.263 678.596 198.756C678.443 198.248 678.24 197.613 677.986 196.852L673.646 185.125H656.512L652.704 195.634C652.349 196.598 652.07 197.41 651.867 198.07C651.714 198.68 651.638 199.238 651.638 199.746C651.638 200.862 652.146 201.573 653.161 201.878C654.227 202.132 655.953 202.386 658.34 202.639C658.441 203.502 658.441 204.315 658.34 205.076C656.613 205.076 654.913 205.051 653.237 205C651.562 204.949 649.861 204.924 648.135 204.924C646.714 204.924 645.343 204.949 644.023 205C642.703 205.051 641.282 205.076 639.759 205.076ZM657.654 181.926H672.503L665.041 161.67L657.654 181.926Z" fill="white" style="fill:white;fill-opacity:1;"/>
<path d="M728.224 206.066C728.173 206.066 727.335 206.015 725.711 205.914C724.137 205.863 722.309 205.66 720.228 205.305C718.502 205 716.928 204.797 715.506 204.695C714.136 204.543 713.298 204.467 712.993 204.467C712.943 200.253 712.714 195.151 712.308 189.161C712.714 189.11 713.12 189.085 713.527 189.085C713.983 189.085 714.39 189.085 714.745 189.085C715.709 193.552 717.309 197.004 719.542 199.441C721.827 201.878 724.822 203.096 728.528 203.096C731.828 203.096 734.519 202.208 736.6 200.431C738.682 198.603 739.722 196.217 739.722 193.273C739.722 191.039 739.138 189.211 737.971 187.79C736.854 186.369 735.356 185.176 733.478 184.211C731.65 183.196 729.696 182.256 727.614 181.393C725.178 180.327 722.842 179.21 720.608 178.043C718.426 176.824 716.623 175.276 715.202 173.398C713.78 171.519 713.07 169.082 713.07 166.087C713.07 162.889 713.856 160.147 715.43 157.863C717.055 155.578 719.212 153.852 721.903 152.685C724.594 151.466 727.564 150.857 730.813 150.857C731.828 150.857 732.869 150.908 733.935 151.009C735.052 151.111 736.194 151.263 737.362 151.466C738.834 151.669 739.951 151.796 740.712 151.847C741.524 151.898 742.058 151.923 742.311 151.923C742.464 151.923 742.743 151.923 743.149 151.923C743.555 151.872 743.885 151.822 744.139 151.771C744.24 154.005 744.342 156.315 744.444 158.701C744.545 161.087 744.697 163.574 744.9 166.163C743.885 166.316 743.047 166.366 742.387 166.316C741.22 161.899 739.773 158.726 738.047 156.797C736.321 154.817 733.859 153.827 730.66 153.827C727.868 153.827 725.482 154.588 723.502 156.111C721.522 157.584 720.532 159.792 720.532 162.737C720.532 164.31 720.888 165.706 721.598 166.925C722.36 168.143 723.604 169.311 725.33 170.428C727.056 171.545 729.442 172.738 732.488 174.007C734.163 174.718 735.839 175.504 737.514 176.367C739.24 177.231 740.814 178.271 742.235 179.49C743.657 180.657 744.799 182.104 745.662 183.83C746.525 185.506 746.957 187.511 746.957 189.846C746.957 193.298 746.093 196.243 744.367 198.68C742.641 201.066 740.357 202.893 737.514 204.162C734.722 205.432 731.625 206.066 728.224 206.066ZM790.733 181.393C789.82 181.393 788.804 181.343 787.687 181.241C786.571 181.14 785.301 180.936 783.88 180.632V195.557C783.88 197.131 783.931 198.375 784.032 199.289C784.134 200.152 784.438 200.812 784.946 201.269C785.504 201.726 786.266 202.03 787.231 202.182C788.246 202.335 789.845 202.487 792.028 202.639C792.13 203.452 792.13 204.264 792.028 205.076C790.911 205.076 789.566 205.051 787.992 205C786.469 205 784.946 205 783.423 205C781.951 204.949 780.707 204.924 779.692 204.924C778.727 204.924 777.509 204.949 776.036 205C774.615 205 773.168 205 771.696 205C770.274 205.051 769.005 205.076 767.888 205.076C767.787 204.315 767.787 203.502 767.888 202.639C770.325 202.386 772.077 202.157 773.143 201.954C774.209 201.7 774.869 201.192 775.123 200.431C775.376 199.669 775.503 198.375 775.503 196.547V161.137C775.503 159.005 775.376 157.482 775.123 156.568C774.869 155.655 774.209 155.071 773.143 154.817C772.077 154.512 770.325 154.258 767.888 154.055C767.787 153.294 767.787 152.482 767.888 151.619C768.904 151.619 770.173 151.644 771.696 151.695C773.27 151.695 774.793 151.72 776.265 151.771C777.737 151.771 778.803 151.771 779.463 151.771C780.428 151.771 781.621 151.771 783.042 151.771C784.514 151.72 785.961 151.669 787.383 151.619C788.804 151.568 789.921 151.542 790.733 151.542C793.932 151.542 796.902 151.999 799.643 152.913C802.384 153.776 804.593 155.223 806.268 157.254C807.943 159.284 808.781 162.077 808.781 165.63C808.781 169.032 807.994 171.9 806.42 174.235C804.847 176.571 802.689 178.347 799.948 179.566C797.257 180.784 794.186 181.393 790.733 181.393ZM783.88 177.586C784.54 177.738 785.276 177.89 786.088 178.043C786.901 178.195 787.764 178.271 788.677 178.271C792.028 178.271 794.668 177.154 796.597 174.921C798.526 172.636 799.491 169.666 799.491 166.011C799.491 162.457 798.526 159.665 796.597 157.634C794.668 155.604 791.774 154.588 787.916 154.588C787.408 154.588 786.774 154.614 786.012 154.665C785.301 154.715 784.591 154.792 783.88 154.893V177.586ZM883.164 178.043C883.164 183.526 882.048 188.374 879.814 192.587C877.58 196.801 874.433 200.126 870.371 202.563C866.31 204.949 861.512 206.142 855.979 206.142C850.496 206.142 845.8 204.975 841.891 202.639C837.982 200.304 834.961 197.08 832.829 192.968C830.748 188.856 829.707 184.186 829.707 178.957C829.707 173.525 830.824 168.702 833.058 164.488C835.291 160.224 838.439 156.898 842.5 154.512C846.612 152.076 851.41 150.857 856.893 150.857C862.325 150.857 866.995 152.025 870.904 154.36C874.813 156.695 877.834 159.919 879.966 164.031C882.098 168.092 883.164 172.763 883.164 178.043ZM873.722 178.804C873.722 175.708 873.417 172.687 872.808 169.742C872.199 166.798 871.209 164.133 869.838 161.747C868.518 159.361 866.767 157.482 864.584 156.111C862.401 154.69 859.736 153.979 856.588 153.979C853.39 153.979 850.674 154.69 848.44 156.111C846.257 157.533 844.48 159.411 843.109 161.747C841.789 164.082 840.799 166.696 840.14 169.59C839.53 172.484 839.226 175.428 839.226 178.424C839.226 181.368 839.53 184.312 840.14 187.257C840.799 190.151 841.815 192.791 843.186 195.177C844.556 197.563 846.358 199.492 848.592 200.964C850.877 202.386 853.618 203.096 856.816 203.096C859.964 203.096 862.604 202.411 864.736 201.04C866.919 199.669 868.671 197.842 869.99 195.557C871.31 193.222 872.25 190.608 872.808 187.714C873.417 184.82 873.722 181.85 873.722 178.804ZM922.44 180.936L920.46 180.708V195.557C920.46 197.131 920.51 198.375 920.612 199.289C920.714 200.203 920.967 200.862 921.373 201.269C921.83 201.675 922.541 201.979 923.506 202.182C924.521 202.335 925.917 202.487 927.694 202.639C927.846 203.452 927.846 204.264 927.694 205.076C926.679 205.076 925.46 205.051 924.039 205C922.617 205 921.196 205 919.774 205C918.353 204.949 917.16 204.924 916.195 204.924C915.281 204.924 914.088 204.949 912.616 205C911.144 205 909.672 205 908.199 205C906.727 205.051 905.483 205.076 904.468 205.076C904.316 204.315 904.316 203.502 904.468 202.639C906.905 202.436 908.656 202.233 909.722 202.03C910.789 201.776 911.449 201.269 911.702 200.507C911.956 199.695 912.083 198.375 912.083 196.547V161.061C912.083 158.98 911.931 157.482 911.626 156.568C911.372 155.655 910.712 155.045 909.646 154.741C908.58 154.436 906.854 154.208 904.468 154.055C904.316 153.294 904.316 152.482 904.468 151.619C905.433 151.619 906.676 151.644 908.199 151.695C909.773 151.695 911.296 151.72 912.768 151.771C914.291 151.771 915.408 151.771 916.119 151.771C917.033 151.771 918.201 151.771 919.622 151.771C921.094 151.72 922.541 151.669 923.963 151.619C925.435 151.568 926.577 151.542 927.389 151.542C930.588 151.542 933.558 151.974 936.299 152.837C939.091 153.7 941.325 155.122 943 157.101C944.726 159.031 945.589 161.645 945.589 164.945C945.589 168.194 944.599 171.088 942.619 173.626C940.69 176.164 937.619 178.068 933.405 179.337V179.566C934.167 180.175 935.03 181.19 935.994 182.612L943.99 194.187C945.31 196.065 946.402 197.537 947.265 198.603C948.178 199.669 949.041 200.482 949.854 201.04C950.666 201.548 951.605 201.903 952.671 202.106C953.737 202.309 955.083 202.487 956.707 202.639C956.86 203.452 956.86 204.264 956.707 205.076C955.743 205.076 954.55 205.051 953.128 205C951.707 205 950.336 205 949.016 205C947.696 204.949 946.63 204.924 945.818 204.924C945.005 204.924 944.295 204.949 943.686 205C943.076 205 942.366 205 941.553 205L927.466 184.211C926.602 182.891 925.841 182.053 925.181 181.698C924.521 181.292 923.607 181.038 922.44 180.936ZM920.46 177.586C921.12 177.687 921.703 177.764 922.211 177.814C922.719 177.865 923.201 177.89 923.658 177.89C927.618 177.89 930.74 176.875 933.024 174.844C935.36 172.814 936.527 169.819 936.527 165.859C936.527 162.254 935.512 159.487 933.481 157.558C931.501 155.629 928.557 154.665 924.648 154.665C924.14 154.665 923.506 154.69 922.744 154.741C922.033 154.792 921.272 154.868 920.46 154.969V177.586ZM980.356 205.076C980.255 204.315 980.255 203.502 980.356 202.639C982.894 202.386 984.697 202.157 985.763 201.954C986.829 201.7 987.489 201.192 987.743 200.431C987.997 199.669 988.123 198.375 988.123 196.547V154.969H982.641C979.95 154.969 977.818 155.35 976.244 156.111C974.721 156.822 973.477 157.914 972.513 159.386C971.599 160.858 970.685 162.737 969.771 165.021C968.959 165.123 968.147 165.123 967.334 165.021C967.639 162.584 967.918 160.249 968.172 158.015C968.477 155.781 968.73 153.624 968.934 151.542C972.233 151.746 975.889 151.872 979.899 151.923C983.91 151.923 988.073 151.923 992.388 151.923C996.754 151.923 1000.94 151.923 1004.95 151.923C1009.01 151.872 1012.67 151.746 1015.92 151.542C1016.12 153.573 1016.32 155.731 1016.53 158.015C1016.73 160.249 1016.98 162.584 1017.29 165.021C1016.43 165.123 1015.59 165.123 1014.78 165.021C1013.81 162.686 1012.85 160.782 1011.88 159.31C1010.92 157.838 1009.67 156.746 1008.15 156.035C1006.68 155.325 1004.6 154.969 1001.91 154.969H996.5V195.557C996.5 197.131 996.551 198.375 996.652 199.289C996.754 200.203 997.033 200.862 997.49 201.269C997.998 201.675 998.784 201.979 999.851 202.182C1000.92 202.335 1002.39 202.487 1004.27 202.639C1004.42 203.452 1004.42 204.264 1004.27 205.076C1003.2 205.076 1001.91 205.051 1000.38 205C998.911 205 997.439 205 995.967 205C994.495 204.949 993.251 204.924 992.236 204.924C991.271 204.924 990.053 204.949 988.58 205C987.159 205 985.687 205 984.164 205C982.691 205.051 981.422 205.076 980.356 205.076ZM1052.9 206.066C1052.85 206.066 1052.02 206.015 1050.39 205.914C1048.82 205.863 1046.99 205.66 1044.91 205.305C1043.18 205 1041.61 204.797 1040.19 204.695C1038.82 204.543 1037.98 204.467 1037.67 204.467C1037.62 200.253 1037.39 195.151 1036.99 189.161C1037.39 189.11 1037.8 189.085 1038.21 189.085C1038.66 189.085 1039.07 189.085 1039.42 189.085C1040.39 193.552 1041.99 197.004 1044.22 199.441C1046.51 201.878 1049.5 203.096 1053.21 203.096C1056.51 203.096 1059.2 202.208 1061.28 200.431C1063.36 198.603 1064.4 196.217 1064.4 193.273C1064.4 191.039 1063.82 189.211 1062.65 187.79C1061.53 186.369 1060.04 185.176 1058.16 184.211C1056.33 183.196 1054.38 182.256 1052.29 181.393C1049.86 180.327 1047.52 179.21 1045.29 178.043C1043.11 176.824 1041.3 175.276 1039.88 173.398C1038.46 171.519 1037.75 169.082 1037.75 166.087C1037.75 162.889 1038.54 160.147 1040.11 157.863C1041.73 155.578 1043.89 153.852 1046.58 152.685C1049.27 151.466 1052.24 150.857 1055.49 150.857C1056.51 150.857 1057.55 150.908 1058.61 151.009C1059.73 151.111 1060.87 151.263 1062.04 151.466C1063.51 151.669 1064.63 151.796 1065.39 151.847C1066.2 151.898 1066.74 151.923 1066.99 151.923C1067.14 151.923 1067.42 151.923 1067.83 151.923C1068.24 151.872 1068.57 151.822 1068.82 151.771C1068.92 154.005 1069.02 156.315 1069.12 158.701C1069.23 161.087 1069.38 163.574 1069.58 166.163C1068.57 166.316 1067.73 166.366 1067.07 166.316C1065.9 161.899 1064.45 158.726 1062.73 156.797C1061 154.817 1058.54 153.827 1055.34 153.827C1052.55 153.827 1050.16 154.588 1048.18 156.111C1046.2 157.584 1045.21 159.792 1045.21 162.737C1045.21 164.31 1045.57 165.706 1046.28 166.925C1047.04 168.143 1048.28 169.311 1050.01 170.428C1051.74 171.545 1054.12 172.738 1057.17 174.007C1058.84 174.718 1060.52 175.504 1062.19 176.367C1063.92 177.231 1065.49 178.271 1066.92 179.49C1068.34 180.657 1069.48 182.104 1070.34 183.83C1071.21 185.506 1071.64 187.511 1071.64 189.846C1071.64 193.298 1070.77 196.243 1069.05 198.68C1067.32 201.066 1065.04 202.893 1062.19 204.162C1059.4 205.432 1056.3 206.066 1052.9 206.066Z" fill="#396CBC" style="fill:#396CBC;fill:color(display-p3 0.2235 0.4235 0.7373);fill-opacity:1;"/>
<path d="M455.663 270.185C454.578 270.185 453.447 270.154 452.269 270.092C451.122 270.061 450.1 270.045 449.201 270.045C448.705 270.045 448.008 270.061 447.109 270.092C446.21 270.092 445.296 270.092 444.366 270.092C443.437 270.123 442.662 270.138 442.042 270.138C441.98 269.673 441.98 269.178 442.042 268.651C443.498 268.496 444.537 268.356 445.157 268.232C445.776 268.077 446.164 267.767 446.319 267.303C446.474 266.807 446.551 266.016 446.551 264.932V243.315C446.551 242.013 446.474 241.084 446.319 240.526C446.164 239.968 445.761 239.612 445.11 239.457C444.49 239.271 443.468 239.116 442.042 238.992C441.98 238.527 441.98 238.031 442.042 237.504C442.693 237.504 443.468 237.52 444.366 237.551C445.265 237.551 446.148 237.566 447.016 237.597C447.915 237.597 448.659 237.597 449.247 237.597C450.208 237.597 451.308 237.582 452.548 237.551C453.819 237.52 454.826 237.504 455.57 237.504C459.351 237.504 462.155 238.124 463.984 239.364C465.812 240.603 466.727 242.401 466.727 244.756C466.727 248.692 464.294 251.357 459.428 252.752V252.799C461.102 252.922 462.62 253.31 463.984 253.961C465.379 254.612 466.494 255.526 467.331 256.703C468.168 257.881 468.586 259.338 468.586 261.073C468.586 263.274 467.92 265.118 466.587 266.605C465.255 268.062 463.596 269.054 461.613 269.58C460.745 269.797 459.816 269.952 458.824 270.045C457.832 270.138 456.778 270.185 455.663 270.185ZM454.408 254.24C454.036 254.24 453.602 254.255 453.106 254.286C452.641 254.286 452.161 254.317 451.665 254.379V264.699C451.665 265.474 451.665 266.125 451.665 266.652C451.665 267.179 451.68 267.612 451.711 267.953C453.075 268.232 454.299 268.372 455.384 268.372C457.77 268.372 459.614 267.783 460.916 266.605C462.248 265.397 462.915 263.568 462.915 261.12C462.915 258.733 462.233 256.998 460.869 255.913C459.506 254.797 457.352 254.24 454.408 254.24ZM451.665 252.334C451.913 252.365 452.13 252.38 452.316 252.38C452.533 252.38 452.734 252.38 452.92 252.38C455.895 252.38 458.003 251.853 459.242 250.8C460.513 249.715 461.148 248.088 461.148 245.918C461.148 241.58 458.901 239.41 454.408 239.41C453.943 239.41 453.493 239.441 453.059 239.503C452.656 239.534 452.192 239.581 451.665 239.643V252.334ZM476.29 270.138C476.228 269.673 476.228 269.178 476.29 268.651C477.747 268.496 478.785 268.356 479.405 268.232C480.024 268.077 480.412 267.767 480.567 267.303C480.722 266.807 480.799 266.016 480.799 264.932V243.315C480.799 242.013 480.722 241.084 480.567 240.526C480.412 239.968 480.009 239.612 479.358 239.457C478.738 239.271 477.716 239.116 476.29 238.992C476.228 238.527 476.228 238.031 476.29 237.504C477.096 237.504 477.793 237.52 478.382 237.551C479.002 237.551 479.622 237.551 480.241 237.551C480.861 237.551 481.605 237.566 482.473 237.597C483.341 237.597 484.441 237.597 485.773 237.597C488.222 237.597 490.515 237.597 492.653 237.597C494.792 237.566 496.574 237.551 497.999 237.551C499.425 237.52 500.262 237.504 500.51 237.504C500.634 238.651 500.773 239.829 500.928 241.037C501.114 242.246 501.316 243.532 501.533 244.896C501.006 244.958 500.494 244.958 499.998 244.896C499.627 243.966 499.193 243.145 498.697 242.432C498.201 241.719 497.69 241.177 497.163 240.805C496.574 240.371 495.861 240.046 495.024 239.829C494.219 239.612 493.211 239.503 492.003 239.503H485.913V252.194H488.47C489.957 252.194 491.088 252.101 491.863 251.915C492.638 251.698 493.211 251.249 493.583 250.567C493.955 249.854 494.25 248.739 494.466 247.22C495.024 247.127 495.551 247.127 496.047 247.22C496.016 248.584 495.985 249.637 495.954 250.381C495.954 251.094 495.954 251.621 495.954 251.962C495.954 252.303 495.954 252.582 495.954 252.799C495.954 252.984 495.954 253.139 495.954 253.263L496.047 259.4C495.582 259.493 495.055 259.493 494.466 259.4C494.281 257.757 494.002 256.579 493.63 255.867C493.258 255.154 492.7 254.705 491.956 254.519C491.243 254.333 490.221 254.24 488.888 254.24H485.913V264.327C485.913 265.381 485.913 266.233 485.913 266.884C485.944 267.504 485.975 267.907 486.006 268.093H492.375C493.924 268.093 495.164 267.969 496.094 267.721C497.054 267.442 497.845 267.039 498.464 266.512C498.898 266.171 499.41 265.583 499.998 264.746C500.587 263.878 501.145 262.886 501.672 261.771C502.168 261.709 502.648 261.709 503.113 261.771C502.803 263.506 502.54 265.071 502.323 266.466C502.106 267.86 501.92 269.069 501.765 270.092C500.37 270.092 498.852 270.092 497.209 270.092C495.567 270.092 493.924 270.092 492.282 270.092C490.639 270.061 489.136 270.045 487.772 270.045C486.44 270.045 485.37 270.045 484.565 270.045C483.108 270.045 481.915 270.061 480.985 270.092C480.086 270.092 479.281 270.092 478.568 270.092C477.886 270.123 477.127 270.138 476.29 270.138ZM517.647 270.138C517.585 269.673 517.585 269.178 517.647 268.651C519.197 268.496 520.297 268.356 520.948 268.232C521.599 268.077 522.002 267.767 522.157 267.303C522.311 266.838 522.389 266.047 522.389 264.932V239.55H519.042C517.399 239.55 516.098 239.782 515.137 240.247C514.207 240.681 513.448 241.347 512.859 242.246C512.301 243.145 511.743 244.291 511.186 245.686C510.69 245.748 510.194 245.748 509.698 245.686C509.884 244.198 510.054 242.773 510.209 241.409C510.395 240.046 510.55 238.728 510.674 237.458C512.689 237.582 514.92 237.659 517.368 237.69C519.817 237.69 522.358 237.69 524.992 237.69C527.658 237.69 530.214 237.69 532.663 237.69C535.142 237.659 537.373 237.582 539.357 237.458C539.481 238.697 539.605 240.015 539.729 241.409C539.853 242.773 540.008 244.198 540.194 245.686C539.667 245.748 539.155 245.748 538.66 245.686C538.071 244.26 537.482 243.098 536.893 242.199C536.304 241.301 535.545 240.634 534.615 240.2C533.716 239.767 532.446 239.55 530.803 239.55H527.503V264.327C527.503 265.288 527.534 266.047 527.596 266.605C527.658 267.163 527.828 267.566 528.107 267.814C528.417 268.062 528.897 268.248 529.548 268.372C530.199 268.465 531.098 268.558 532.244 268.651C532.337 269.147 532.337 269.642 532.244 270.138C531.593 270.138 530.803 270.123 529.873 270.092C528.975 270.092 528.076 270.092 527.177 270.092C526.278 270.061 525.519 270.045 524.899 270.045C524.31 270.045 523.567 270.061 522.668 270.092C521.8 270.092 520.901 270.092 519.972 270.092C519.073 270.123 518.298 270.138 517.647 270.138ZM553.893 270.138C553.831 269.673 553.831 269.178 553.893 268.651C555.442 268.496 556.543 268.356 557.193 268.232C557.844 268.077 558.247 267.767 558.402 267.303C558.557 266.838 558.635 266.047 558.635 264.932V239.55H555.287C553.645 239.55 552.343 239.782 551.382 240.247C550.453 240.681 549.693 241.347 549.105 242.246C548.547 243.145 547.989 244.291 547.431 245.686C546.935 245.748 546.439 245.748 545.943 245.686C546.129 244.198 546.3 242.773 546.455 241.409C546.641 240.046 546.796 238.728 546.92 237.458C548.934 237.582 551.166 237.659 553.614 237.69C556.062 237.69 558.604 237.69 561.238 237.69C563.903 237.69 566.46 237.69 568.908 237.69C571.388 237.659 573.619 237.582 575.602 237.458C575.726 238.697 575.85 240.015 575.974 241.409C576.098 242.773 576.253 244.198 576.439 245.686C575.912 245.748 575.401 245.748 574.905 245.686C574.316 244.26 573.727 243.098 573.139 242.199C572.55 241.301 571.79 240.634 570.861 240.2C569.962 239.767 568.691 239.55 567.049 239.55H563.748V264.327C563.748 265.288 563.779 266.047 563.841 266.605C563.903 267.163 564.074 267.566 564.352 267.814C564.662 268.062 565.143 268.248 565.794 268.372C566.444 268.465 567.343 268.558 568.49 268.651C568.583 269.147 568.583 269.642 568.49 270.138C567.839 270.138 567.049 270.123 566.119 270.092C565.22 270.092 564.321 270.092 563.423 270.092C562.524 270.061 561.765 270.045 561.145 270.045C560.556 270.045 559.812 270.061 558.913 270.092C558.046 270.092 557.147 270.092 556.217 270.092C555.318 270.123 554.544 270.138 553.893 270.138ZM592.788 242.711V264.327C592.788 265.288 592.819 266.047 592.881 266.605C592.943 267.163 593.114 267.566 593.392 267.814C593.671 268.062 594.121 268.248 594.741 268.372C595.36 268.465 596.244 268.558 597.39 268.651C597.483 269.147 597.483 269.642 597.39 270.138C596.771 270.138 596.011 270.123 595.112 270.092C594.214 270.092 593.315 270.092 592.416 270.092C591.548 270.061 590.82 270.045 590.231 270.045C589.642 270.045 588.899 270.061 588 270.092C587.132 270.092 586.249 270.092 585.35 270.092C584.482 270.123 583.708 270.138 583.026 270.138C582.933 269.673 582.933 269.178 583.026 268.651C584.513 268.496 585.583 268.356 586.233 268.232C586.884 268.077 587.287 267.767 587.442 267.303C587.597 266.838 587.675 266.047 587.675 264.932V243.315C587.675 242.013 587.597 241.084 587.442 240.526C587.287 239.968 586.884 239.612 586.233 239.457C585.583 239.271 584.513 239.116 583.026 238.992C582.964 238.527 582.964 238.031 583.026 237.504C583.677 237.504 584.451 237.52 585.35 237.551C586.28 237.551 587.194 237.566 588.093 237.597C588.992 237.597 589.735 237.597 590.324 237.597C590.913 237.597 591.641 237.597 592.509 237.597C593.377 237.566 594.26 237.551 595.159 237.551C596.058 237.52 596.802 237.504 597.39 237.504C597.483 237.969 597.483 238.465 597.39 238.992C595.934 239.116 594.88 239.255 594.229 239.41C593.578 239.565 593.176 239.875 593.021 240.34C592.866 240.805 592.788 241.595 592.788 242.711ZM632.354 270.417L611.667 243.269V263.165C611.667 264.343 611.698 265.257 611.76 265.908C611.822 266.528 612.008 267.008 612.318 267.349C612.628 267.659 613.109 267.922 613.759 268.139C614.41 268.356 615.34 268.527 616.549 268.651C616.611 269.147 616.611 269.642 616.549 270.138C615.619 270.138 614.581 270.123 613.434 270.092C612.318 270.061 611.373 270.045 610.598 270.045C609.823 270.045 608.863 270.061 607.716 270.092C606.6 270.123 605.593 270.138 604.694 270.138C604.601 269.673 604.601 269.178 604.694 268.651C605.81 268.496 606.678 268.356 607.298 268.232C607.917 268.077 608.367 267.86 608.646 267.581C608.925 267.272 609.095 266.822 609.157 266.233C609.25 265.645 609.297 264.823 609.297 263.77V244.71C609.297 243.47 609.25 242.494 609.157 241.781C609.095 241.068 608.894 240.541 608.553 240.2C608.243 239.829 607.747 239.565 607.065 239.41C606.414 239.224 605.5 239.069 604.322 238.945C604.291 238.48 604.291 238 604.322 237.504C605.283 237.504 606.306 237.52 607.391 237.551C608.475 237.582 609.56 237.597 610.645 237.597C610.8 237.597 611.218 237.597 611.9 237.597C612.613 237.597 613.232 237.582 613.759 237.551L632.633 262.375V244.524C632.633 243.346 632.602 242.432 632.54 241.781C632.509 241.13 632.323 240.65 631.982 240.34C631.332 239.658 629.766 239.224 627.287 239.038C627.194 238.511 627.194 238.016 627.287 237.551C627.876 237.551 628.573 237.566 629.379 237.597C630.216 237.597 631.022 237.613 631.796 237.644C632.571 237.644 633.207 237.644 633.702 237.644C634.477 237.644 635.438 237.628 636.585 237.597C637.731 237.566 638.754 237.551 639.653 237.551C639.715 238.016 639.715 238.496 639.653 238.992C638.165 239.178 637.096 239.395 636.445 239.643C635.794 239.86 635.391 240.278 635.236 240.898C635.081 241.518 635.004 242.525 635.004 243.919V270.185C634.694 270.247 634.276 270.293 633.749 270.324C633.222 270.386 632.757 270.417 632.354 270.417ZM664.708 270.789C661.206 270.789 658.153 270.138 655.55 268.837C652.947 267.535 650.917 265.645 649.46 263.165C648.034 260.686 647.322 257.711 647.322 254.24C647.322 250.769 648.034 247.747 649.46 245.175C650.917 242.602 652.947 240.603 655.55 239.178C658.184 237.752 661.268 237.039 664.801 237.039C665.979 237.039 667.234 237.132 668.566 237.318C669.899 237.473 671.046 237.69 672.006 237.969C672.595 238.124 673.138 238.264 673.633 238.387C674.129 238.511 674.625 238.573 675.121 238.573C675.493 238.573 675.865 238.527 676.237 238.434C676.299 239.798 676.361 241.208 676.423 242.664C676.485 244.121 676.578 245.639 676.702 247.22C676.051 247.313 675.508 247.344 675.075 247.313C674.455 244.462 673.324 242.354 671.681 240.991C670.038 239.596 667.854 238.899 665.126 238.899C662.957 238.899 661.097 239.302 659.548 240.108C658.029 240.882 656.79 241.952 655.829 243.315C654.899 244.679 654.217 246.259 653.783 248.057C653.35 249.823 653.133 251.714 653.133 253.728C653.133 256.672 653.582 259.276 654.481 261.538C655.379 263.801 656.743 265.583 658.572 266.884C660.431 268.155 662.755 268.79 665.545 268.79C666.412 268.79 667.373 268.713 668.427 268.558C669.481 268.372 670.488 268.093 671.449 267.721V261.864C671.449 260.903 671.402 260.159 671.309 259.632C671.247 259.074 671.046 258.671 670.705 258.423C670.395 258.176 669.884 258.005 669.171 257.912C668.489 257.788 667.544 257.68 666.335 257.587C666.242 257.091 666.242 256.595 666.335 256.099C666.986 256.099 667.776 256.115 668.706 256.146C669.636 256.146 670.565 256.161 671.495 256.192C672.456 256.192 673.246 256.192 673.866 256.192C674.827 256.192 675.927 256.177 677.167 256.146C678.437 256.115 679.522 256.099 680.421 256.099C680.483 256.564 680.483 257.044 680.421 257.54C679.15 257.695 678.236 257.85 677.678 258.005C677.12 258.16 676.779 258.47 676.655 258.935C676.531 259.4 676.469 260.19 676.469 261.306V262.793C676.469 264.25 676.5 265.474 676.562 266.466C676.655 267.458 676.733 268.17 676.795 268.604C672.487 270.061 668.458 270.789 664.708 270.789ZM701.796 237.504C702.416 237.504 703.16 237.52 704.027 237.551C704.926 237.551 705.809 237.566 706.677 237.597C707.576 237.597 708.32 237.597 708.909 237.597C709.497 237.597 710.226 237.597 711.094 237.597C711.992 237.566 712.891 237.551 713.79 237.551C714.689 237.52 715.448 237.504 716.068 237.504C716.161 237.969 716.161 238.449 716.068 238.945C714.642 239.069 713.604 239.209 712.953 239.364C712.302 239.519 711.899 239.829 711.744 240.293C711.589 240.758 711.512 241.549 711.512 242.664V257.866C711.512 261.337 712.256 263.924 713.743 265.629C715.262 267.303 717.462 268.139 720.344 268.139C723.382 268.139 725.675 267.194 727.225 265.304C728.774 263.413 729.549 260.484 729.549 256.518V243.78C729.549 242.695 729.502 241.859 729.409 241.27C729.348 240.65 729.146 240.2 728.805 239.922C728.495 239.643 728.015 239.457 727.364 239.364C726.713 239.24 725.799 239.116 724.621 238.992C724.528 238.527 724.528 238.047 724.621 237.551C725.458 237.551 726.465 237.566 727.643 237.597C728.821 237.628 729.766 237.644 730.479 237.644C731.253 237.644 732.214 237.628 733.361 237.597C734.539 237.566 735.561 237.551 736.429 237.551C736.522 238.016 736.522 238.496 736.429 238.992C735.003 239.147 733.965 239.302 733.314 239.457C732.664 239.612 732.245 239.953 732.059 240.479C731.904 241.006 731.827 241.905 731.827 243.176V257.494C731.827 261.616 730.758 264.839 728.619 267.163C726.481 269.456 723.242 270.603 718.903 270.603C716.424 270.603 714.239 270.2 712.349 269.394C710.489 268.589 709.033 267.349 707.979 265.676C706.925 263.971 706.398 261.833 706.398 259.26V243.269C706.398 241.967 706.321 241.037 706.166 240.479C706.011 239.922 705.608 239.565 704.957 239.41C704.306 239.224 703.253 239.069 701.796 238.945C701.703 238.48 701.703 238 701.796 237.504ZM770.3 270.417L749.613 243.269V263.165C749.613 264.343 749.644 265.257 749.706 265.908C749.768 266.528 749.954 267.008 750.264 267.349C750.574 267.659 751.054 267.922 751.705 268.139C752.356 268.356 753.285 268.527 754.494 268.651C754.556 269.147 754.556 269.642 754.494 270.138C753.564 270.138 752.526 270.123 751.379 270.092C750.264 270.061 749.319 270.045 748.544 270.045C747.769 270.045 746.808 270.061 745.662 270.092C744.546 270.123 743.539 270.138 742.64 270.138C742.547 269.673 742.547 269.178 742.64 268.651C743.756 268.496 744.623 268.356 745.243 268.232C745.863 268.077 746.312 267.86 746.591 267.581C746.87 267.272 747.041 266.822 747.103 266.233C747.196 265.645 747.242 264.823 747.242 263.77V244.71C747.242 243.47 747.196 242.494 747.103 241.781C747.041 241.068 746.839 240.541 746.498 240.2C746.188 239.829 745.693 239.565 745.011 239.41C744.36 239.224 743.446 239.069 742.268 238.945C742.237 238.48 742.237 238 742.268 237.504C743.229 237.504 744.251 237.52 745.336 237.551C746.421 237.582 747.506 237.597 748.59 237.597C748.745 237.597 749.164 237.597 749.845 237.597C750.558 237.597 751.178 237.582 751.705 237.551L770.579 262.375V244.524C770.579 243.346 770.548 242.432 770.486 241.781C770.455 241.13 770.269 240.65 769.928 240.34C769.277 239.658 767.712 239.224 765.233 239.038C765.14 238.511 765.14 238.016 765.233 237.551C765.822 237.551 766.519 237.566 767.325 237.597C768.161 237.597 768.967 237.613 769.742 237.644C770.517 237.644 771.152 237.644 771.648 237.644C772.423 237.644 773.383 237.628 774.53 237.597C775.677 237.566 776.7 237.551 777.598 237.551C777.66 238.016 777.66 238.496 777.598 238.992C776.111 239.178 775.041 239.395 774.391 239.643C773.74 239.86 773.337 240.278 773.182 240.898C773.027 241.518 772.95 242.525 772.95 243.919V270.185C772.64 270.247 772.221 270.293 771.694 270.324C771.168 270.386 770.703 270.417 770.3 270.417ZM784.477 270.138C784.415 269.673 784.415 269.178 784.477 268.651C785.934 268.496 786.972 268.356 787.592 268.232C788.211 268.077 788.599 267.767 788.754 267.303C788.909 266.807 788.986 266.016 788.986 264.932V243.315C788.986 242.013 788.909 241.084 788.754 240.526C788.599 239.968 788.196 239.612 787.545 239.457C786.925 239.271 785.903 239.116 784.477 238.992C784.415 238.527 784.415 238.031 784.477 237.504C785.128 237.504 785.887 237.52 786.755 237.551C787.654 237.551 788.537 237.566 789.405 237.597C790.272 237.597 790.985 237.597 791.543 237.597C792.132 237.597 792.86 237.597 793.728 237.597C794.627 237.566 795.525 237.551 796.424 237.551C797.354 237.52 798.113 237.504 798.702 237.504C798.795 237.969 798.795 238.465 798.702 238.992C797.245 239.116 796.192 239.255 795.541 239.41C794.89 239.565 794.487 239.875 794.332 240.34C794.177 240.805 794.1 241.595 794.1 242.711V264.327C794.1 265.381 794.1 266.233 794.1 266.884C794.131 267.504 794.162 267.922 794.193 268.139H800.794C803.366 268.139 805.272 267.566 806.512 266.419C807.535 265.428 808.604 263.692 809.72 261.213C810.215 261.12 810.696 261.12 811.161 261.213C810.789 263.103 810.479 264.808 810.231 266.326C810.014 267.814 809.828 269.069 809.673 270.092C806.667 270.092 803.661 270.092 800.654 270.092C797.679 270.061 794.689 270.045 791.682 270.045C791.094 270.045 790.35 270.061 789.451 270.092C788.552 270.092 787.654 270.092 786.755 270.092C785.856 270.123 785.097 270.138 784.477 270.138ZM827.304 242.711V264.327C827.304 265.288 827.335 266.047 827.397 266.605C827.459 267.163 827.629 267.566 827.908 267.814C828.187 268.062 828.636 268.248 829.256 268.372C829.876 268.465 830.759 268.558 831.906 268.651C831.999 269.147 831.999 269.642 831.906 270.138C831.286 270.138 830.527 270.123 829.628 270.092C828.729 270.092 827.831 270.092 826.932 270.092C826.064 270.061 825.336 270.045 824.747 270.045C824.158 270.045 823.414 270.061 822.516 270.092C821.648 270.092 820.764 270.092 819.866 270.092C818.998 270.123 818.223 270.138 817.541 270.138C817.448 269.673 817.448 269.178 817.541 268.651C819.029 268.496 820.098 268.356 820.749 268.232C821.4 268.077 821.803 267.767 821.958 267.303C822.113 266.838 822.19 266.047 822.19 264.932V243.315C822.19 242.013 822.113 241.084 821.958 240.526C821.803 239.968 821.4 239.612 820.749 239.457C820.098 239.271 819.029 239.116 817.541 238.992C817.479 238.527 817.479 238.031 817.541 237.504C818.192 237.504 818.967 237.52 819.866 237.551C820.795 237.551 821.71 237.566 822.608 237.597C823.507 237.597 824.251 237.597 824.84 237.597C825.429 237.597 826.157 237.597 827.025 237.597C827.893 237.566 828.776 237.551 829.675 237.551C830.573 237.52 831.317 237.504 831.906 237.504C831.999 237.969 831.999 238.465 831.906 238.992C830.449 239.116 829.396 239.255 828.745 239.41C828.094 239.565 827.691 239.875 827.536 240.34C827.381 240.805 827.304 241.595 827.304 242.711ZM860.408 263.026L870.356 237.551C871.007 237.582 871.689 237.597 872.402 237.597C873.115 237.597 873.719 237.597 874.215 237.597C874.463 237.597 874.912 237.597 875.563 237.597C876.245 237.566 876.973 237.551 877.748 237.551C878.554 237.551 879.282 237.551 879.933 237.551C880.615 237.52 881.079 237.504 881.327 237.504C881.42 237.969 881.42 238.449 881.327 238.945H881.234C879.809 239.1 878.771 239.255 878.12 239.41C877.469 239.534 877.066 239.844 876.911 240.34C876.787 240.805 876.725 241.58 876.725 242.664L877.097 264.374C877.097 265.335 877.128 266.094 877.19 266.652C877.252 267.21 877.422 267.612 877.701 267.86C877.98 268.108 878.43 268.294 879.049 268.418C879.669 268.511 880.553 268.604 881.699 268.697C881.792 269.162 881.792 269.642 881.699 270.138C881.451 270.138 880.986 270.123 880.305 270.092C879.654 270.092 878.926 270.092 878.12 270.092C877.345 270.092 876.617 270.092 875.935 270.092C875.284 270.061 874.835 270.045 874.587 270.045C874.339 270.045 873.889 270.061 873.239 270.092C872.588 270.092 871.875 270.092 871.1 270.092C870.325 270.092 869.613 270.092 868.962 270.092C868.311 270.123 867.862 270.138 867.614 270.138C867.583 269.673 867.583 269.193 867.614 268.697H867.707C869.07 268.542 870.062 268.403 870.682 268.279C871.302 268.124 871.674 267.814 871.797 267.349C871.952 266.853 872.03 266.063 872.03 264.978L871.612 240.061L859.897 270.045C859.68 270.138 859.339 270.2 858.874 270.231C858.409 270.262 858.006 270.278 857.665 270.278L846.648 241.037L845.904 264.978C845.873 266.001 845.92 266.745 846.044 267.21C846.167 267.643 846.539 267.953 847.159 268.139C847.779 268.325 848.817 268.511 850.274 268.697C850.398 269.193 850.398 269.673 850.274 270.138C849.964 270.138 849.422 270.123 848.647 270.092C847.903 270.092 847.144 270.092 846.369 270.092C845.625 270.061 845.083 270.045 844.742 270.045C844.556 270.045 844.184 270.061 843.626 270.092C843.099 270.092 842.51 270.092 841.86 270.092C841.209 270.092 840.605 270.092 840.047 270.092C839.52 270.123 839.163 270.138 838.977 270.138C838.915 269.642 838.915 269.162 838.977 268.697C840.434 268.511 841.472 268.325 842.092 268.139C842.712 267.953 843.099 267.581 843.254 267.024C843.44 266.466 843.549 265.583 843.58 264.374L844.463 242.664C844.525 241.58 844.478 240.805 844.323 240.34C844.169 239.875 843.75 239.565 843.068 239.41C842.418 239.224 841.333 239.069 839.814 238.945C839.783 238.449 839.783 237.969 839.814 237.504C840.868 237.504 841.953 237.52 843.068 237.551C844.184 237.582 845.424 237.597 846.787 237.597C847.252 237.597 847.872 237.597 848.647 237.597C849.422 237.597 850.134 237.582 850.785 237.551L860.408 263.026ZM898.841 242.711V264.327C898.841 265.288 898.872 266.047 898.934 266.605C898.996 267.163 899.167 267.566 899.446 267.814C899.725 268.062 900.174 268.248 900.794 268.372C901.414 268.465 902.297 268.558 903.444 268.651C903.537 269.147 903.537 269.642 903.444 270.138C902.824 270.138 902.065 270.123 901.166 270.092C900.267 270.092 899.368 270.092 898.47 270.092C897.602 270.061 896.873 270.045 896.285 270.045C895.696 270.045 894.952 270.061 894.053 270.092C893.185 270.092 892.302 270.092 891.403 270.092C890.536 270.123 889.761 270.138 889.079 270.138C888.986 269.673 888.986 269.178 889.079 268.651C890.567 268.496 891.636 268.356 892.287 268.232C892.938 268.077 893.34 267.767 893.495 267.303C893.65 266.838 893.728 266.047 893.728 264.932V243.315C893.728 242.013 893.65 241.084 893.495 240.526C893.34 239.968 892.938 239.612 892.287 239.457C891.636 239.271 890.567 239.116 889.079 238.992C889.017 238.527 889.017 238.031 889.079 237.504C889.73 237.504 890.505 237.52 891.403 237.551C892.333 237.551 893.247 237.566 894.146 237.597C895.045 237.597 895.789 237.597 896.378 237.597C896.966 237.597 897.695 237.597 898.563 237.597C899.43 237.566 900.314 237.551 901.212 237.551C902.111 237.52 902.855 237.504 903.444 237.504C903.537 237.969 903.537 238.465 903.444 238.992C901.987 239.116 900.933 239.255 900.283 239.41C899.632 239.565 899.229 239.875 899.074 240.34C898.919 240.805 898.841 241.595 898.841 242.711ZM918.046 270.138C917.984 269.673 917.984 269.178 918.046 268.651C919.596 268.496 920.696 268.356 921.347 268.232C921.998 268.077 922.4 267.767 922.555 267.303C922.71 266.838 922.788 266.047 922.788 264.932V239.55H919.441C917.798 239.55 916.497 239.782 915.536 240.247C914.606 240.681 913.847 241.347 913.258 242.246C912.7 243.145 912.142 244.291 911.584 245.686C911.089 245.748 910.593 245.748 910.097 245.686C910.283 244.198 910.453 242.773 910.608 241.409C910.794 240.046 910.949 238.728 911.073 237.458C913.087 237.582 915.319 237.659 917.767 237.69C920.216 237.69 922.757 237.69 925.391 237.69C928.056 237.69 930.613 237.69 933.062 237.69C935.541 237.659 937.772 237.582 939.756 237.458C939.88 238.697 940.004 240.015 940.128 241.409C940.252 242.773 940.406 244.198 940.592 245.686C940.066 245.748 939.554 245.748 939.058 245.686C938.47 244.26 937.881 243.098 937.292 242.199C936.703 241.301 935.944 240.634 935.014 240.2C934.115 239.767 932.845 239.55 931.202 239.55H927.901V264.327C927.901 265.288 927.932 266.047 927.994 266.605C928.056 267.163 928.227 267.566 928.506 267.814C928.816 268.062 929.296 268.248 929.947 268.372C930.598 268.465 931.496 268.558 932.643 268.651C932.736 269.147 932.736 269.642 932.643 270.138C931.992 270.138 931.202 270.123 930.272 270.092C929.374 270.092 928.475 270.092 927.576 270.092C926.677 270.061 925.918 270.045 925.298 270.045C924.709 270.045 923.965 270.061 923.067 270.092C922.199 270.092 921.3 270.092 920.37 270.092C919.472 270.123 918.697 270.138 918.046 270.138ZM947.319 270.138C947.257 269.673 947.257 269.178 947.319 268.651C948.775 268.496 949.813 268.356 950.433 268.232C951.053 268.077 951.44 267.767 951.595 267.303C951.75 266.807 951.828 266.016 951.828 264.932V243.315C951.828 242.013 951.75 241.084 951.595 240.526C951.44 239.968 951.038 239.612 950.387 239.457C949.767 239.271 948.744 239.116 947.319 238.992C947.257 238.527 947.257 238.031 947.319 237.504C948.124 237.504 948.822 237.52 949.41 237.551C950.03 237.551 950.65 237.551 951.27 237.551C951.89 237.551 952.634 237.566 953.501 237.597C954.369 237.597 955.469 237.597 956.802 237.597C959.25 237.597 961.544 237.597 963.682 237.597C965.82 237.566 967.603 237.551 969.028 237.551C970.454 237.52 971.291 237.504 971.538 237.504C971.662 238.651 971.802 239.829 971.957 241.037C972.143 242.246 972.344 243.532 972.561 244.896C972.034 244.958 971.523 244.958 971.027 244.896C970.655 243.966 970.221 243.145 969.725 242.432C969.23 241.719 968.718 241.177 968.191 240.805C967.603 240.371 966.89 240.046 966.053 239.829C965.247 239.612 964.24 239.503 963.031 239.503H956.941V252.194H959.498C960.986 252.194 962.117 252.101 962.892 251.915C963.667 251.698 964.24 251.249 964.612 250.567C964.984 249.854 965.278 248.739 965.495 247.22C966.053 247.127 966.58 247.127 967.076 247.22C967.045 248.584 967.014 249.637 966.983 250.381C966.983 251.094 966.983 251.621 966.983 251.962C966.983 252.303 966.983 252.582 966.983 252.799C966.983 252.984 966.983 253.139 966.983 253.263L967.076 259.4C966.611 259.493 966.084 259.493 965.495 259.4C965.309 257.757 965.03 256.579 964.658 255.867C964.286 255.154 963.729 254.705 962.985 254.519C962.272 254.333 961.249 254.24 959.917 254.24H956.941V264.327C956.941 265.381 956.941 266.233 956.941 266.884C956.972 267.504 957.003 267.907 957.034 268.093H963.403C964.953 268.093 966.192 267.969 967.122 267.721C968.083 267.442 968.873 267.039 969.493 266.512C969.927 266.171 970.438 265.583 971.027 264.746C971.616 263.878 972.174 262.886 972.701 261.771C973.196 261.709 973.677 261.709 974.142 261.771C973.832 263.506 973.568 265.071 973.351 266.466C973.134 267.86 972.949 269.069 972.794 270.092C971.399 270.092 969.88 270.092 968.238 270.092C966.595 270.092 964.953 270.092 963.31 270.092C961.668 270.061 960.165 270.045 958.801 270.045C957.468 270.045 956.399 270.045 955.593 270.045C954.137 270.045 952.944 270.061 952.014 270.092C951.115 270.092 950.309 270.092 949.596 270.092C948.915 270.123 948.155 270.138 947.319 270.138ZM988.908 237.597C989.869 237.597 990.969 237.582 992.209 237.551C993.449 237.52 994.471 237.504 995.277 237.504C1001.38 237.504 1006 238.806 1009.13 241.409C1012.26 244.012 1013.83 247.809 1013.83 252.799C1013.83 256.456 1013.02 259.586 1011.41 262.189C1009.83 264.761 1007.63 266.729 1004.81 268.093C1001.99 269.456 998.748 270.138 995.091 270.138C994.657 270.138 994.053 270.123 993.278 270.092C992.503 270.092 991.713 270.092 990.907 270.092C990.101 270.061 989.42 270.045 988.862 270.045C988.366 270.045 987.669 270.061 986.77 270.092C985.871 270.092 984.957 270.092 984.027 270.092C983.097 270.123 982.323 270.138 981.703 270.138C981.641 269.673 981.641 269.178 981.703 268.651C983.159 268.496 984.198 268.356 984.817 268.232C985.437 268.077 985.825 267.767 985.98 267.303C986.135 266.838 986.212 266.047 986.212 264.932V243.315C986.212 242.013 986.135 241.084 985.98 240.526C985.825 239.968 985.422 239.612 984.771 239.457C984.151 239.271 983.128 239.116 981.703 238.992C981.641 238.527 981.641 238.031 981.703 237.504C982.354 237.504 983.128 237.52 984.027 237.551C984.926 237.551 985.809 237.566 986.677 237.597C987.576 237.597 988.319 237.597 988.908 237.597ZM991.326 239.643V264.327C991.326 265.102 991.326 265.753 991.326 266.28C991.326 266.807 991.341 267.241 991.372 267.581C992.86 268.015 994.394 268.232 995.974 268.232C998.671 268.232 1000.92 267.597 1002.72 266.326C1004.54 265.056 1005.91 263.32 1006.81 261.12C1007.74 258.919 1008.2 256.425 1008.2 253.635C1008.2 249.296 1007.08 245.841 1004.85 243.269C1002.65 240.696 999.383 239.41 995.045 239.41C994.27 239.41 993.526 239.441 992.813 239.503C992.131 239.565 991.636 239.612 991.326 239.643Z" fill="white" style="fill:white;fill-opacity:1;"/>
<path d="M175.359 237.602L181.139 241.806V263.876L175.359 274.385L167.477 263.876V278.063C167.477 278.063 182.05 289.604 193.225 291.2C198.1 291.896 205.836 291.2 205.836 291.2V296.98C205.836 296.98 201.463 296.45 199.005 297.505C197.383 298.202 195.326 300.133 195.326 300.133C195.326 300.133 186.119 297.803 180.088 297.505C177.628 297.384 176.202 297.05 173.782 297.505C169.903 298.235 167.726 299.532 164.849 302.235C162.815 304.146 160.646 308.015 160.646 308.015C160.646 308.015 161.193 310.517 162.222 311.693C163.311 312.938 165.9 313.795 165.9 313.795L170.104 306.438H214.243L208.989 316.948H181.139L210.039 334.813V350.052C210.039 350.052 209.212 353.674 207.412 354.781C205.489 355.963 203.875 355.038 201.632 354.781C196.597 354.203 194.23 351.988 189.546 350.052L189.18 349.9C176.598 344.7 169.362 341.71 157.493 334.813C149.422 330.124 144.604 327.76 137.525 321.677C133.343 318.083 130.773 316.16 127.541 311.693C123.937 306.711 122.65 303.341 120.71 297.505C118.348 290.398 118.476 286.021 117.557 278.589C116.599 270.825 115.981 258.621 115.981 258.621L111.777 253.366V229.72L117.557 226.042L144.882 248.637L175.359 237.602Z" fill="white" style="fill:white;fill-opacity:1;"/>
<path d="M240.034 299.556L237.406 293.776L278.393 289.047V294.827L240.034 299.556Z" fill="#396CBC" stroke="#396CBC" style="fill:#396CBC;fill:color(display-p3 0.2235 0.4235 0.7373);fill-opacity:1;stroke:#396CBC;stroke:color(display-p3 0.2235 0.4235 0.7373);stroke-opacity:1;" stroke-width="1.05093"/>
<path d="M220.457 303.141L215.288 298.319L214.627 296.794L233.903 294.053L236.115 301.244L220.457 303.141Z" fill="#396CBC" stroke="#396CBC" style="fill:#396CBC;fill:color(display-p3 0.2235 0.4235 0.7373);fill-opacity:1;stroke:#396CBC;stroke:color(display-p3 0.2235 0.4235 0.7373);stroke-opacity:1;" stroke-width="1.05093"/>
<path d="M197.489 228.162H191.183L184.352 236.57V267.572L180.148 272.827V278.081L189.081 283.336H205.371L211.676 278.081V271.776L205.371 264.419V236.57L197.489 228.162Z" fill="white" style="fill:white;fill-opacity:1;"/>
<path d="M250.03 267.532L232.164 285.398C232.164 285.398 231.002 277.556 228.486 273.312C225.599 268.443 217.977 263.328 217.977 263.328L215.875 245.463L222.181 240.733C222.181 240.733 233.251 245.306 240.572 247.564C244.235 248.694 250.03 250.192 250.03 250.192V267.532Z" fill="white" style="fill:white;fill-opacity:1;"/>
<path d="M265.246 223.907L271.552 216.025L277.332 221.28V264.368L271.552 274.352L265.246 269.623V223.907Z" fill="white" style="fill:white;fill-opacity:1;"/>
<path d="M89.7578 217.116L92.9106 205.03C92.9106 205.03 95.8101 212.455 99.2162 216.065C101.836 218.841 107.098 221.845 107.098 221.845V245.491H98.1653L89.7578 217.116Z" fill="white" style="fill:white;fill-opacity:1;"/>
<path d="M119.126 186.585C109.463 181.76 97.582 169.244 97.582 169.244L129.11 175.024C129.11 175.024 142.842 177.27 151.705 178.177C166.008 179.641 188.488 179.753 188.488 179.753C188.488 179.753 195.882 185.957 201.624 187.635C209.119 189.826 213.816 187.294 221.592 186.585C233.789 185.471 240.752 184.978 252.594 181.855C265.601 178.425 284.648 169.244 284.648 169.244C284.648 169.244 277.579 178.938 271.511 183.432C259.709 192.172 249.663 190.575 235.254 193.416C218.646 196.69 209.094 198.145 192.166 198.145C175.238 198.145 165.742 196.389 149.078 193.416C137.267 191.308 129.86 191.944 119.126 186.585Z" fill="white" style="fill:white;fill-opacity:1;"/>
<path d="M68.2057 141.899C72.647 143.741 77.6641 149.781 77.6641 149.781C77.6641 149.781 70.7474 146.855 69.2566 149.781C67.8809 152.48 71.2936 154.065 72.9349 156.612C75.0703 159.925 76.6537 161.519 79.2405 164.494L79.4461 164.73C83.6997 169.622 86.1892 172.484 91.3262 176.579C99.3685 182.99 104.968 185.198 114.447 189.191C122.401 192.541 127.122 193.813 135.465 196.022C143.169 198.06 147.563 198.976 155.433 200.225C162.774 201.39 166.931 201.872 174.35 202.327C183.567 202.893 197.996 202.327 197.996 202.327C197.996 202.327 202.538 208.613 206.929 209.684C209.321 210.267 210.773 209.774 213.234 209.684C222.607 209.341 227.674 207.273 236.88 205.48C246.559 203.595 252.085 202.895 261.577 200.225C272.075 197.273 287.85 190.767 287.85 190.767C287.85 190.767 299.335 185.875 304.665 180.258C310.415 174.198 314.739 166.408 316.226 158.188C317.102 153.342 318.511 151.787 314.649 148.73C311.592 146.31 304.665 148.73 304.665 148.73C304.665 148.73 312.357 142.411 318.327 141.373C321.562 140.811 323.954 139.628 326.735 141.373C329.456 143.08 329.521 145.644 330.413 148.73C331.781 153.461 331.291 156.495 330.413 161.341C329.428 166.778 327.962 169.716 325.158 174.478C321.188 181.22 317.567 184.198 311.534 189.16L311.496 189.191C303.338 195.901 297.619 198.306 287.85 202.327C277.998 206.384 271.975 207.356 261.577 209.684C245.803 213.215 236.722 214.424 220.591 215.464C206.87 216.348 199.132 215.665 185.385 215.464C176.764 215.338 171.924 215.404 163.315 214.938C150.755 214.26 143.595 214.256 131.262 211.786C121.643 209.859 116.443 207.913 107.09 204.955C99.851 202.665 95.6123 201.788 88.6989 198.649C82.2559 195.724 78.6826 193.843 72.9349 189.716C68.3245 186.406 65.609 184.554 61.9001 180.258C58.105 175.861 56.2305 173.016 54.0181 167.646C52.6329 164.284 51.8984 162.314 51.3908 158.714C50.9039 155.259 50.8367 153.225 51.3908 149.781C51.7624 147.471 51.6145 145.91 52.9672 144C54.7189 141.528 56.8129 140.839 59.7983 140.322C63.0898 139.752 65.1201 140.619 68.2057 141.899Z" fill="white" style="fill:white;fill-opacity:1;"/>
<path d="M286.263 115.689C286.399 108.891 284.686 98.349 284.686 98.349C284.686 98.349 290.086 108.541 290.992 115.689C291.508 119.761 292.043 122.095 292.043 126.199C292.043 129.892 292.157 132.702 289.941 135.657C286.788 139.861 285.398 141.233 281.533 144.065C275.833 148.241 272.451 149.643 265.77 151.947C253.28 156.253 245.32 154.721 232.14 155.625C209.825 157.156 197.204 156.729 174.864 155.625C158.201 154.801 148.858 154.003 132.301 151.947C126.34 151.206 122.754 151.767 117.063 149.845C111.492 147.963 103.926 142.488 103.926 142.488V135.657C103.926 130.527 103.301 127.612 103.926 122.52C104.678 116.393 108.13 107.282 108.13 107.282L112.334 94.6708C112.334 94.6708 115.516 85.9862 118.639 81.0087C121.433 76.5566 123.401 74.2852 127.047 70.4994C130.274 67.1483 132.465 65.6655 135.98 62.6174C140.049 59.0883 141.925 56.5447 146.489 53.6845C150.691 51.0512 153.482 50.3614 158.049 48.4298C162.717 46.4557 165.125 44.4664 170.135 43.7006C173.583 43.1735 175.579 43.7006 179.068 43.7006H195.357C200.487 43.7006 202.714 42.1242 208.494 43.7006C214.274 45.277 213.748 45.277 217.427 45.8025C221.105 46.328 223.646 46.3788 226.885 48.4298C229.337 49.9825 230.424 51.3442 232.14 53.6845C234.039 56.2746 235.096 57.9112 235.818 61.041C236.51 64.0403 235.818 68.923 235.818 68.923C235.818 68.923 227.196 68.6438 222.156 70.4994C216.76 72.4858 213.676 74.4287 210.07 78.9068C205.958 84.0139 203.777 88.1339 204.29 94.6708C204.714 100.072 206.629 103.098 210.07 107.282C213.722 111.723 216.828 113.528 222.156 115.689C228.477 118.254 239.496 117.791 239.496 117.791V138.284C239.496 138.284 241.073 144.065 248.955 144.065C256.837 144.065 262.499 141.066 265.769 140.386C271.024 139.294 274.288 138.067 282.059 131.453C284.382 129.476 285.461 128.711 285.737 125.673C286.263 119.893 286.151 121.263 286.263 115.689Z" fill="white" style="fill:white;fill-opacity:1;"/>
<path d="M292.554 216.629L297.283 204.018L298.334 237.647L290.978 245.529L283.621 241.851V222.934L292.554 216.629Z" fill="white" style="fill:white;fill-opacity:1;"/>
</svg>
